%TF.GenerationSoftware,KiCad,Pcbnew,10.0.5*%
%TF.CreationDate,2026-09-22T23:11:33-07:00*%
%TF.ProjectId,Keyboard Final,4b657962-6f61-4726-9420-46696e616c2e,v1.0.0*%
%TF.SameCoordinates,Original*%
%TF.FileFunction,Profile,NP*%
%FSLAX46Y46*%
G04 Gerber Fmt 4.6, Leading zero omitted, Abs format (unit mm)*
G04 Created by KiCad (PCBNEW 10.0.5) date 2026-09-22 23:11:33*
%MOMM*%
%LPD*%
G01*
G04 APERTURE LIST*
%TA.AperFunction,Profile*%
%ADD10C,0.150000*%
%TD*%
G04 APERTURE END LIST*
D10*
X54391944Y-115988719D02*
G75*
G02*
X53755810Y-113738053I1243249J1566627D01*
G01*
X82752611Y-138495287D02*
X54391944Y-115988719D01*
X77292638Y-49071169D02*
G75*
G02*
X79591016Y-47799560I1879389J-684000D01*
G01*
X79591010Y-47799590D02*
X131061629Y-58827201D01*
X53755812Y-113738054D02*
X77292627Y-49071169D01*
X83266672Y-138790990D02*
G75*
G02*
X82752619Y-138495277I729121J1862131D01*
G01*
X192728794Y-85028193D02*
G75*
G02*
X193672085Y-82576717I1879411J684051D01*
G01*
X131061628Y-58827201D02*
G75*
G02*
X131326675Y-58903443I-419578J-1957441D01*
G01*
X151740131Y-66333327D02*
G75*
G02*
X151992175Y-66445297I-683781J-1878850D01*
G01*
X293369436Y-138495287D02*
G75*
G02*
X292855375Y-138790979I-1243215J1566639D01*
G01*
X181030811Y-99366567D02*
X195091240Y-99366562D01*
X196970628Y-96682523D02*
G75*
G02*
X195091240Y-99366545I-1879358J-684046D01*
G01*
X224381921Y-66333332D02*
X244795375Y-58903436D01*
X151992175Y-66445298D02*
X182449948Y-82576733D01*
X193532070Y-168843132D02*
G75*
G02*
X194817624Y-169311074I-65J-2000019D01*
G01*
X209143714Y-181332045D02*
X194817647Y-169311046D01*
X224129874Y-66445302D02*
G75*
G02*
X224381922Y-66333335I936329J-1768086D01*
G01*
X245060428Y-58827205D02*
X296531038Y-47799584D01*
X131326678Y-58903435D02*
X151740131Y-66333327D01*
X132722144Y-158155233D02*
G75*
G02*
X133176663Y-158405473I-729043J-1862085D01*
G01*
X164509053Y-181412042D02*
X133176664Y-158405471D01*
X181304399Y-169311043D02*
G75*
G02*
X182589979Y-168843131I1285596J-1532143D01*
G01*
X166978340Y-181332049D02*
G75*
G02*
X164509086Y-181411997I-1285526J1532070D01*
G01*
X182449948Y-82576739D02*
G75*
G02*
X183393275Y-85028195I-936022J-1767409D01*
G01*
X183393250Y-85028186D02*
X179151419Y-96682524D01*
X244795380Y-58903435D02*
G75*
G02*
X245060426Y-58827197I684023J-1879196D01*
G01*
X322366238Y-113738054D02*
G75*
G02*
X321730115Y-115988733I-1879345J-684065D01*
G01*
X181304399Y-169311043D02*
X166978336Y-181332039D01*
X242945385Y-158405476D02*
X211613002Y-181412043D01*
X193532070Y-168843132D02*
X182589979Y-168843133D01*
X292855380Y-138790991D02*
X243399906Y-158155235D01*
X132722144Y-158155233D02*
X83266666Y-138790994D01*
X181030808Y-99366565D02*
G75*
G02*
X179151376Y-96682508I-1J2000036D01*
G01*
X196970628Y-96682523D02*
X192728794Y-85028193D01*
X211613001Y-181412043D02*
G75*
G02*
X209143696Y-181332067I-1183737J1612028D01*
G01*
X193672100Y-82576745D02*
X224129874Y-66445302D01*
X242945385Y-158405476D02*
G75*
G02*
X243399903Y-158155228I1183728J-1612081D01*
G01*
X296531038Y-47799584D02*
G75*
G02*
X298829443Y-49071158I419020J-1955612D01*
G01*
X321730107Y-115988723D02*
X293369444Y-138495286D01*
X298829419Y-49071167D02*
X322366238Y-113738054D01*
M02*
