M48
; DRILL file KiCad 10.0.5 date 2026-09-22T23:10:51
; FORMAT={-:-/ absolute / inch / decimal}
; #@! TF.CreationDate,2026-09-22T23:10:51-07:00
; #@! TF.GenerationSoftware,Kicad,Pcbnew,10.0.5
; #@! TF.FileFunction,NonPlated,1,2,NPTH
FMAT,2
INCH
; #@! TA.AperFunction,NonPlated,NPTH,ComponentDrill
T1C0.0670
; #@! TA.AperFunction,NonPlated,NPTH,ComponentDrill
T2C0.1181
; #@! TA.AperFunction,NonPlated,NPTH,ComponentDrill
T3C0.1350
%
G90
G05
T1
X2.4418Y-4.2168
X2.6707Y-3.5879
X2.8488Y-4.3649
X2.8996Y-2.959
X3.0777Y-3.736
X3.1077Y-4.4592
X3.1286Y-2.33
X3.3066Y-3.1071
X3.3367Y-3.8303
X3.5147Y-4.6073
X3.5355Y-2.4781
X3.5656Y-3.2013
X3.6121Y-5.1455
X3.7436Y-3.9784
X3.7945Y-2.5724
X3.841Y-4.5166
X3.9725Y-3.3494
X4.019Y-5.2936
X4.0699Y-3.8877
X4.2014Y-2.7205
X4.248Y-4.6647
X4.2988Y-3.2587
X4.3117Y-5.2954
X4.4769Y-4.0358
X4.5277Y-2.6298
X4.5406Y-4.6665
X4.7058Y-3.4068
X4.7186Y-5.4435
X4.7695Y-4.0375
X4.9347Y-2.7779
X4.9439Y-5.6303
X4.9475Y-4.8146
X4.9984Y-3.4086
X5.1728Y-5.0013
X5.1764Y-4.1857
X5.2273Y-2.7797
X5.3509Y-5.7784
X5.4018Y-4.3724
X5.4054Y-3.5567
X5.5798Y-5.1495
X5.6307Y-3.7435
X5.6343Y-2.9278
X5.6494Y-6.0159
X5.8051Y-5.3362
X5.8087Y-4.5205
X5.8596Y-3.1146
X6.0041Y-6.2643
X6.034Y-4.7073
X6.0376Y-3.8916
X6.2121Y-5.4843
X6.2629Y-4.0783
X6.2665Y-3.2627
X6.399Y-6.7205
X6.441Y-4.8554
X6.4918Y-3.4494
X6.6699Y-4.2265
X6.7308Y-6.4421
X6.8988Y-3.5975
X7.9092Y-3.5975
X8.0772Y-6.4421
X8.1381Y-4.2265
X8.3161Y-3.4494
X8.367Y-4.8554
X8.409Y-6.7205
X8.5414Y-3.2627
X8.545Y-4.0783
X8.5959Y-5.4843
X8.7703Y-3.8916
X8.7739Y-4.7073
X8.8038Y-6.2643
X8.9484Y-3.1146
X8.9992Y-4.5205
X9.0028Y-5.3362
X9.1586Y-6.0159
X9.1737Y-2.9278
X9.1773Y-3.7435
X9.2282Y-5.1495
X9.4026Y-3.5567
X9.4062Y-4.3724
X9.4571Y-5.7784
X9.5806Y-2.7797
X9.6315Y-4.1857
X9.6351Y-5.0013
X9.8095Y-3.4086
X9.8604Y-4.8146
X9.864Y-5.6303
X9.8733Y-2.7779
X10.0385Y-4.0375
X10.0893Y-5.4435
X10.1022Y-3.4068
X10.2674Y-4.6665
X10.2802Y-2.6298
X10.3311Y-4.0358
X10.4963Y-5.2954
X10.5091Y-3.2587
X10.56Y-4.6647
X10.6065Y-2.7205
X10.738Y-3.8877
X10.7889Y-5.2936
X10.8354Y-3.3494
X10.967Y-4.5166
X11.0135Y-2.5724
X11.0643Y-3.9784
X11.1959Y-5.1455
X11.2424Y-3.2013
X11.2724Y-2.4781
X11.2933Y-4.6073
X11.4713Y-3.8303
X11.5014Y-3.1071
X11.6794Y-2.33
X11.7002Y-4.4592
X11.7303Y-3.736
X11.9083Y-2.959
X11.9592Y-4.3649
X12.1372Y-3.5879
X12.3661Y-4.2168
T2
X2.7254Y-4.0707
X2.8808Y-4.2195
X2.9543Y-3.4418
X3.1097Y-3.5905
X3.1832Y-2.8129
X3.3386Y-2.9616
X3.3913Y-4.3131
X3.4122Y-2.184
X3.5467Y-4.4618
X3.5675Y-2.3327
X3.6203Y-3.6842
X3.7756Y-3.8329
X3.8492Y-3.0553
X3.8957Y-4.9994
X4.0045Y-3.204
X4.051Y-5.1482
X4.0781Y-2.4263
X4.1246Y-4.3705
X4.2334Y-2.5751
X4.2799Y-4.5192
X4.3535Y-3.7416
X4.5089Y-3.8903
X4.5824Y-3.1127
X4.5953Y-5.1493
X4.7378Y-3.2614
X4.7506Y-5.2981
X4.8113Y-2.4837
X4.8242Y-4.5204
X4.9667Y-2.6325
X4.9795Y-4.6691
X5.0531Y-3.8915
X5.2084Y-4.0402
X5.2275Y-5.4842
X5.282Y-3.2625
X5.3829Y-5.6329
X5.4374Y-3.4113
X5.4564Y-4.8553
X5.5109Y-2.6336
X5.6118Y-5.004
X5.6663Y-2.7823
X5.6854Y-4.2263
X5.8407Y-4.3751
X5.9143Y-3.5974
X5.9611Y-5.9482
X6.0696Y-3.7461
X6.0727Y-6.1321
X6.0887Y-5.1901
X6.1432Y-2.9685
X6.2441Y-5.3389
X6.2985Y-3.1172
X6.3176Y-4.5612
X6.4143Y-6.4019
X6.473Y-4.7099
X6.5465Y-3.9323
X6.6208Y-6.3417
X6.7019Y-4.081
X6.7754Y-3.3034
X6.9308Y-3.4521
X8.0325Y-3.3034
X8.2471Y-3.3174
X8.2614Y-3.9323
X8.3937Y-6.4019
X8.476Y-3.9463
X8.4888Y-6.5948
X8.4903Y-4.5612
X8.6648Y-2.9685
X8.7049Y-4.5753
X8.7193Y-5.1901
X8.8469Y-5.9482
X8.8794Y-2.9826
X8.8937Y-3.5974
X8.9339Y-5.2042
X9.0578Y-5.9063
X9.1083Y-3.6115
X9.1226Y-4.2263
X9.297Y-2.6336
X9.3372Y-4.2404
X9.3515Y-4.8553
X9.5116Y-2.6477
X9.526Y-3.2625
X9.5661Y-4.8693
X9.5804Y-5.4842
X9.7406Y-3.2766
X9.7549Y-3.8915
X9.795Y-5.4983
X9.9695Y-3.9055
X9.9838Y-4.5204
X9.9966Y-2.4837
X10.1984Y-4.5345
X10.2112Y-2.4978
X10.2127Y-5.1493
X10.2255Y-3.1127
X10.4273Y-5.1634
X10.4401Y-3.1267
X10.4545Y-3.7416
X10.6691Y-3.7557
X10.6834Y-4.3705
X10.7299Y-2.4263
X10.898Y-4.3846
X10.9123Y-4.9994
X10.9445Y-2.4404
X10.9588Y-3.0553
X11.1269Y-5.0135
X11.1734Y-3.0693
X11.1877Y-3.6842
X11.3958Y-2.184
X11.4023Y-3.6983
X11.4166Y-4.3131
X11.6104Y-2.198
X11.6247Y-2.8129
X11.6312Y-4.3272
X11.8393Y-2.827
X11.8536Y-3.4418
X12.0682Y-3.4559
X12.0825Y-4.0707
X12.2971Y-4.0848
T3
X2.6453Y-4.2909
X2.8742Y-3.6619
X3.1031Y-3.033
X3.3112Y-4.5332
X3.332Y-2.4041
X3.5401Y-3.9043
X3.769Y-3.2754
X3.8156Y-5.2196
X3.998Y-2.6465
X4.0445Y-4.5906
X4.2734Y-3.9617
X4.5023Y-3.3328
X4.5152Y-5.3695
X4.7312Y-2.7039
X4.7441Y-4.7405
X4.973Y-4.1116
X5.1474Y-5.7043
X5.2019Y-3.4827
X5.3763Y-5.0754
X5.4308Y-2.8537
X5.6052Y-4.4465
X5.8267Y-6.1401
X5.8341Y-3.8175
X6.0086Y-5.4103
X6.0631Y-3.1886
X6.2375Y-4.7813
X6.4664Y-4.1524
X6.5649Y-6.5813
X6.6953Y-3.5235
X8.1126Y-3.5235
X8.2431Y-6.5813
X8.3415Y-4.1524
X8.5705Y-4.7813
X8.7449Y-3.1886
X8.7994Y-5.4103
X8.9738Y-3.8175
X8.9812Y-6.1401
X9.2027Y-4.4465
X9.3772Y-2.8537
X9.4316Y-5.0754
X9.6061Y-3.4827
X9.6605Y-5.7043
X9.835Y-4.1116
X10.0639Y-4.7405
X10.0767Y-2.7039
X10.2928Y-5.3695
X10.3057Y-3.3328
X10.5346Y-3.9617
X10.7635Y-4.5906
X10.81Y-2.6465
X10.9924Y-5.2196
X11.0389Y-3.2754
X11.2678Y-3.9043
X11.4759Y-2.4041
X11.4967Y-4.5332
X11.7048Y-3.033
X11.9337Y-3.6619
X12.1627Y-4.2909
M30
