%TF.GenerationSoftware,KiCad,Pcbnew,10.0.5*%
%TF.CreationDate,2026-09-22T23:11:33-07:00*%
%TF.ProjectId,Keyboard Final,4b657962-6f61-4726-9420-46696e616c2e,v1.0.0*%
%TF.SameCoordinates,Original*%
%TF.FileFunction,Copper,L1,Top*%
%TF.FilePolarity,Positive*%
%FSLAX46Y46*%
G04 Gerber Fmt 4.6, Leading zero omitted, Abs format (unit mm)*
G04 Created by KiCad (PCBNEW 10.0.5) date 2026-09-22 23:11:33*
%MOMM*%
%LPD*%
G01*
G04 APERTURE LIST*
G04 Aperture macros list*
%AMRotRect*
0 Rectangle, with rotation*
0 The origin of the aperture is its center*
0 $1 length*
0 $2 width*
0 $3 Rotation angle, in degrees counterclockwise*
0 Add horizontal line*
21,1,$1,$2,0,0,$3*%
G04 Aperture macros list end*
%TA.AperFunction,ComponentPad*%
%ADD10RotRect,1.778000X1.778000X20.000000*%
%TD*%
%TA.AperFunction,SMDPad,CuDef*%
%ADD11RotRect,0.900000X1.200000X20.000000*%
%TD*%
%TA.AperFunction,ComponentPad*%
%ADD12C,1.905000*%
%TD*%
%TA.AperFunction,ComponentPad*%
%ADD13RotRect,1.778000X1.778000X340.000000*%
%TD*%
%TA.AperFunction,SMDPad,CuDef*%
%ADD14RotRect,0.900000X1.200000X340.000000*%
%TD*%
%TA.AperFunction,ComponentPad*%
%ADD15R,1.752600X1.752600*%
%TD*%
%TA.AperFunction,ComponentPad*%
%ADD16C,1.752600*%
%TD*%
%TA.AperFunction,ComponentPad*%
%ADD17RotRect,1.778000X1.778000X320.000000*%
%TD*%
%TA.AperFunction,SMDPad,CuDef*%
%ADD18RotRect,0.900000X1.200000X320.000000*%
%TD*%
%TA.AperFunction,ComponentPad*%
%ADD19RotRect,1.778000X1.778000X35.000000*%
%TD*%
%TA.AperFunction,SMDPad,CuDef*%
%ADD20RotRect,0.900000X1.200000X35.000000*%
%TD*%
%TA.AperFunction,ComponentPad*%
%ADD21R,1.700000X1.700000*%
%TD*%
%TA.AperFunction,ComponentPad*%
%ADD22O,1.700000X1.700000*%
%TD*%
%TA.AperFunction,ComponentPad*%
%ADD23RotRect,1.778000X1.778000X40.000000*%
%TD*%
%TA.AperFunction,SMDPad,CuDef*%
%ADD24RotRect,0.900000X1.200000X40.000000*%
%TD*%
%TA.AperFunction,ComponentPad*%
%ADD25RotRect,1.778000X1.778000X325.000000*%
%TD*%
%TA.AperFunction,SMDPad,CuDef*%
%ADD26RotRect,0.900000X1.200000X325.000000*%
%TD*%
%TA.AperFunction,SMDPad,CuDef*%
%ADD27R,1.100000X1.800000*%
%TD*%
%TA.AperFunction,ViaPad*%
%ADD28C,0.800000*%
%TD*%
%TA.AperFunction,Conductor*%
%ADD29C,0.250000*%
%TD*%
G04 APERTURE END LIST*
D10*
%TO.P,D45,1*%
%TO.N,P4*%
X247938420Y-110436264D03*
D11*
X249968157Y-109697499D03*
%TO.P,D45,2*%
%TO.N,mirror_middle_home*%
X253069141Y-108568835D03*
D12*
X255098878Y-107830070D03*
%TD*%
D10*
%TO.P,D41,1*%
%TO.N,P0*%
X259893593Y-90654358D03*
D11*
X261923330Y-89915593D03*
%TO.P,D41,2*%
%TO.N,mirror_ring_top*%
X265024314Y-88786929D03*
D12*
X267054051Y-88048164D03*
%TD*%
D10*
%TO.P,D40,1*%
%TO.N,P4*%
X265707937Y-106629132D03*
D11*
X267737674Y-105890367D03*
%TO.P,D40,2*%
%TO.N,mirror_ring_home*%
X270838658Y-104761703D03*
D12*
X272868395Y-104022938D03*
%TD*%
D10*
%TO.P,D53,1*%
%TO.N,P5*%
X221633925Y-143422228D03*
D11*
X223663662Y-142683463D03*
%TO.P,D53,2*%
%TO.N,mirror_inner_bottom*%
X226764646Y-141554799D03*
D12*
X228794383Y-140816034D03*
%TD*%
D13*
%TO.P,D24,1*%
%TO.N,P18*%
X147327668Y-140816028D03*
D14*
X149357405Y-141554791D03*
%TO.P,D24,2*%
%TO.N,inner_bottom*%
X152458389Y-142683459D03*
D12*
X154488126Y-143422222D03*
%TD*%
D15*
%TO.P,MCU1,1*%
%TO.N,RAW*%
X180441027Y-107475894D03*
D16*
%TO.P,MCU1,2*%
%TO.N,GND*%
X180441027Y-110015894D03*
%TO.P,MCU1,3*%
%TO.N,RST*%
X180441028Y-112555894D03*
%TO.P,MCU1,4*%
%TO.N,VCC*%
X180441025Y-115095893D03*
%TO.P,MCU1,5*%
%TO.N,P21*%
X180441025Y-117635895D03*
%TO.P,MCU1,6*%
%TO.N,P20*%
X180441029Y-120175896D03*
%TO.P,MCU1,7*%
%TO.N,P19*%
X180441029Y-122715892D03*
%TO.P,MCU1,8*%
%TO.N,P18*%
X180441026Y-125255894D03*
%TO.P,MCU1,9*%
%TO.N,P15*%
X180441025Y-127795895D03*
%TO.P,MCU1,10*%
%TO.N,P14*%
X180441028Y-130335894D03*
%TO.P,MCU1,11*%
%TO.N,P16*%
X180441027Y-132875894D03*
%TO.P,MCU1,12*%
%TO.N,P10*%
X180441027Y-135415894D03*
%TO.P,MCU1,13*%
%TO.N,P1*%
X195681027Y-107475894D03*
%TO.P,MCU1,14*%
%TO.N,P0*%
X195681027Y-110015894D03*
%TO.P,MCU1,15*%
%TO.N,GND*%
X195681026Y-112555894D03*
%TO.P,MCU1,16*%
X195681029Y-115095893D03*
%TO.P,MCU1,17*%
%TO.N,P2*%
X195681028Y-117635894D03*
%TO.P,MCU1,18*%
%TO.N,P3*%
X195681025Y-120175896D03*
%TO.P,MCU1,19*%
%TO.N,P4*%
X195681025Y-122715892D03*
%TO.P,MCU1,20*%
%TO.N,P5*%
X195681029Y-125255893D03*
%TO.P,MCU1,21*%
%TO.N,P6*%
X195681029Y-127795895D03*
%TO.P,MCU1,22*%
%TO.N,P7*%
X195681026Y-130335894D03*
%TO.P,MCU1,23*%
%TO.N,P8*%
X195681027Y-132875894D03*
%TO.P,MCU1,24*%
%TO.N,P9*%
X195681027Y-135415894D03*
%TD*%
D13*
%TO.P,D25,1*%
%TO.N,P19*%
X153142009Y-124841262D03*
D14*
X155171746Y-125580025D03*
%TO.P,D25,2*%
%TO.N,inner_home*%
X158272730Y-126708693D03*
D12*
X160302467Y-127447456D03*
%TD*%
D17*
%TO.P,D58,1*%
%TO.N,P6*%
X203241573Y-168547118D03*
D18*
X204896229Y-169935540D03*
%TO.P,D58,2*%
%TO.N,mirror_space_cluster*%
X207424175Y-172056738D03*
D12*
X209078831Y-173445160D03*
%TD*%
D13*
%TO.P,D16,1*%
%TO.N,P19*%
X121023181Y-107830074D03*
D14*
X123052918Y-108568837D03*
%TO.P,D16,2*%
%TO.N,middle_home*%
X126153902Y-109697505D03*
D12*
X128183639Y-110436268D03*
%TD*%
D10*
%TO.P,D33,1*%
%TO.N,P1*%
X289618285Y-67065323D03*
D11*
X291648022Y-66326558D03*
%TO.P,D33,2*%
%TO.N,mirror_outer_num*%
X294749006Y-65197894D03*
D12*
X296778743Y-64459129D03*
%TD*%
D10*
%TO.P,D37,1*%
%TO.N,P1*%
X272703819Y-73221686D03*
D11*
X274733556Y-72482921D03*
%TO.P,D37,2*%
%TO.N,mirror_pinky_num*%
X277834540Y-71354257D03*
D12*
X279864277Y-70615492D03*
%TD*%
D10*
%TO.P,D38,1*%
%TO.N,P6*%
X277336617Y-138578678D03*
D11*
X279366354Y-137839913D03*
%TO.P,D38,2*%
%TO.N,mirror_ring_mod*%
X282467338Y-136711249D03*
D12*
X284497075Y-135972484D03*
%TD*%
D13*
%TO.P,D27,1*%
%TO.N,P21*%
X164770697Y-92891707D03*
D14*
X166800434Y-93630470D03*
%TO.P,D27,2*%
%TO.N,inner_num*%
X169901418Y-94759138D03*
D12*
X171931155Y-95497901D03*
%TD*%
D13*
%TO.P,D19,1*%
%TO.N,P15*%
X125453911Y-148285213D03*
D14*
X127483648Y-149023976D03*
%TO.P,D19,2*%
%TO.N,index_mod*%
X130584632Y-150152644D03*
D12*
X132614369Y-150891407D03*
%TD*%
D19*
%TO.P,D57,1*%
%TO.N,P6*%
X227869966Y-162239947D03*
D20*
X229639334Y-161001024D03*
%TO.P,D57,2*%
%TO.N,mirror_layer_cluster*%
X232342534Y-159108220D03*
D12*
X234111902Y-157869297D03*
%TD*%
D13*
%TO.P,D4,1*%
%TO.N,P21*%
X79343313Y-64459131D03*
D14*
X81373050Y-65197894D03*
%TO.P,D4,2*%
%TO.N,outer_num*%
X84474034Y-66326562D03*
D12*
X86503771Y-67065325D03*
%TD*%
D13*
%TO.P,D10,1*%
%TO.N,P18*%
X97439315Y-119997716D03*
D14*
X99469052Y-120736479D03*
%TO.P,D10,2*%
%TO.N,ring_bottom*%
X102570036Y-121865147D03*
D12*
X104599773Y-122603910D03*
%TD*%
D13*
%TO.P,D22,1*%
%TO.N,P20*%
X142896936Y-100360888D03*
D14*
X144926673Y-101099651D03*
%TO.P,D22,2*%
%TO.N,index_top*%
X148027657Y-102228319D03*
D12*
X150057394Y-102967082D03*
%TD*%
D13*
%TO.P,D9,1*%
%TO.N,P15*%
X91624974Y-135972488D03*
D14*
X93654711Y-136711251D03*
%TO.P,D9,2*%
%TO.N,ring_mod*%
X96755695Y-137839919D03*
D12*
X98785432Y-138578682D03*
%TD*%
D10*
%TO.P,D50,1*%
%TO.N,P4*%
X231878996Y-118941858D03*
D11*
X233908733Y-118203093D03*
%TO.P,D50,2*%
%TO.N,mirror_index_home*%
X237009717Y-117074429D03*
D12*
X239039454Y-116335664D03*
%TD*%
D10*
%TO.P,D32,1*%
%TO.N,P0*%
X295432623Y-83040095D03*
D11*
X297462360Y-82301330D03*
%TO.P,D32,2*%
%TO.N,mirror_outer_top*%
X300563344Y-81172666D03*
D12*
X302593081Y-80433901D03*
%TD*%
D10*
%TO.P,D56,1*%
%TO.N,P1*%
X204190899Y-95497899D03*
D11*
X206220636Y-94759134D03*
%TO.P,D56,2*%
%TO.N,mirror_inner_num*%
X209321620Y-93630470D03*
D12*
X211351357Y-92891705D03*
%TD*%
D13*
%TO.P,D18,1*%
%TO.N,P21*%
X132651861Y-75880523D03*
D14*
X134681598Y-76619286D03*
%TO.P,D18,2*%
%TO.N,middle_num*%
X137782582Y-77747954D03*
D12*
X139812319Y-78486717D03*
%TD*%
D13*
%TO.P,D17,1*%
%TO.N,P20*%
X126837519Y-91855298D03*
D14*
X128867256Y-92594061D03*
%TO.P,D17,2*%
%TO.N,middle_top*%
X131968240Y-93722729D03*
D12*
X133997977Y-94461492D03*
%TD*%
D13*
%TO.P,D14,1*%
%TO.N,P15*%
X109394500Y-139779622D03*
D14*
X111424237Y-140518385D03*
%TO.P,D14,2*%
%TO.N,middle_mod*%
X114525221Y-141647053D03*
D12*
X116554958Y-142385816D03*
%TD*%
D13*
%TO.P,D13,1*%
%TO.N,P21*%
X114882347Y-72073386D03*
D14*
X116912084Y-72812149D03*
%TO.P,D13,2*%
%TO.N,ring_num*%
X120013068Y-73940817D03*
D12*
X122042805Y-74679580D03*
%TD*%
D10*
%TO.P,D51,1*%
%TO.N,P0*%
X226064656Y-102967079D03*
D11*
X228094393Y-102228314D03*
%TO.P,D51,2*%
%TO.N,mirror_index_top*%
X231195377Y-101099650D03*
D12*
X233225114Y-100360885D03*
%TD*%
D10*
%TO.P,D39,1*%
%TO.N,P5*%
X271522278Y-122603904D03*
D11*
X273552015Y-121865139D03*
%TO.P,D39,2*%
%TO.N,mirror_ring_bottom*%
X276652999Y-120736475D03*
D12*
X278682736Y-119997710D03*
%TD*%
D13*
%TO.P,D3,1*%
%TO.N,P20*%
X73528968Y-80433906D03*
D14*
X75558705Y-81172669D03*
%TO.P,D3,2*%
%TO.N,outer_top*%
X78659689Y-82301337D03*
D12*
X80689426Y-83040100D03*
%TD*%
D21*
%TO.P,OLED1,1*%
%TO.N,GND*%
X191861029Y-138845894D03*
D22*
%TO.P,OLED1,2*%
%TO.N,VCC*%
X189321028Y-138845899D03*
%TO.P,OLED1,3*%
%TO.N,P3*%
X186781028Y-138845896D03*
%TO.P,OLED1,4*%
%TO.N,P2*%
X184241028Y-138845895D03*
%TD*%
D13*
%TO.P,D2,1*%
%TO.N,P19*%
X67714623Y-96408676D03*
D14*
X69744360Y-97147439D03*
%TO.P,D2,2*%
%TO.N,outer_home*%
X72845344Y-98276107D03*
D12*
X74875081Y-99014870D03*
%TD*%
D10*
%TO.P,D43,1*%
%TO.N,P6*%
X259567099Y-142385814D03*
D11*
X261596836Y-141647049D03*
%TO.P,D43,2*%
%TO.N,mirror_middle_mod*%
X264697820Y-140518385D03*
D12*
X266727557Y-139779620D03*
%TD*%
D10*
%TO.P,D48,1*%
%TO.N,P6*%
X243507684Y-150891409D03*
D11*
X245537421Y-150152644D03*
%TO.P,D48,2*%
%TO.N,mirror_index_mod*%
X248638405Y-149023980D03*
D12*
X250668142Y-148285215D03*
%TD*%
D10*
%TO.P,D52,1*%
%TO.N,P1*%
X220250311Y-86992308D03*
D11*
X222280048Y-86253543D03*
%TO.P,D52,2*%
%TO.N,mirror_index_num*%
X225381032Y-85124879D03*
D12*
X227410769Y-84386114D03*
%TD*%
D13*
%TO.P,D23,1*%
%TO.N,P21*%
X148711277Y-84386114D03*
D14*
X150741014Y-85124877D03*
%TO.P,D23,2*%
%TO.N,index_num*%
X153841998Y-86253545D03*
D12*
X155871735Y-86992308D03*
%TD*%
D10*
%TO.P,D30,1*%
%TO.N,P5*%
X307061309Y-114989645D03*
D11*
X309091046Y-114250880D03*
%TO.P,D30,2*%
%TO.N,mirror_outer_bottom*%
X312192030Y-113122216D03*
D12*
X314221767Y-112383451D03*
%TD*%
D10*
%TO.P,D35,1*%
%TO.N,P4*%
X284332502Y-105171236D03*
D11*
X286362239Y-104432471D03*
%TO.P,D35,2*%
%TO.N,mirror_pinky_home*%
X289463223Y-103303807D03*
D12*
X291492960Y-102565042D03*
%TD*%
D10*
%TO.P,D54,1*%
%TO.N,P4*%
X215819579Y-127447451D03*
D11*
X217849316Y-126708686D03*
%TO.P,D54,2*%
%TO.N,mirror_inner_home*%
X220950300Y-125580022D03*
D12*
X222980037Y-124841257D03*
%TD*%
D13*
%TO.P,D12,1*%
%TO.N,P20*%
X109068008Y-88048165D03*
D14*
X111097745Y-88786928D03*
%TO.P,D12,2*%
%TO.N,ring_top*%
X114198729Y-89915596D03*
D12*
X116228466Y-90654359D03*
%TD*%
D23*
%TO.P,D29,1*%
%TO.N,P15*%
X167043217Y-173445160D03*
D24*
X168697875Y-172056742D03*
%TO.P,D29,2*%
%TO.N,space_cluster*%
X171225817Y-169935536D03*
D12*
X172880475Y-168547118D03*
%TD*%
D13*
%TO.P,D15,1*%
%TO.N,P18*%
X115208830Y-123804844D03*
D14*
X117238567Y-124543607D03*
%TO.P,D15,2*%
%TO.N,middle_bottom*%
X120339551Y-125672275D03*
D12*
X122369288Y-126411038D03*
%TD*%
D10*
%TO.P,D34,1*%
%TO.N,P5*%
X290146841Y-121146006D03*
D11*
X292176578Y-120407241D03*
%TO.P,D34,2*%
%TO.N,mirror_pinky_bottom*%
X295277562Y-119278577D03*
D12*
X297307299Y-118539812D03*
%TD*%
D13*
%TO.P,D26,1*%
%TO.N,P20*%
X158956354Y-108866484D03*
D14*
X160986091Y-109605247D03*
%TO.P,D26,2*%
%TO.N,inner_top*%
X164087075Y-110733915D03*
D12*
X166116812Y-111472678D03*
%TD*%
D10*
%TO.P,D31,1*%
%TO.N,P4*%
X301246962Y-99014869D03*
D11*
X303276699Y-98276104D03*
%TO.P,D31,2*%
%TO.N,mirror_outer_home*%
X306377683Y-97147440D03*
D12*
X308407420Y-96408675D03*
%TD*%
D10*
%TO.P,D55,1*%
%TO.N,P0*%
X210005238Y-111472677D03*
D11*
X212034975Y-110733912D03*
%TO.P,D55,2*%
%TO.N,mirror_inner_top*%
X215135959Y-109605248D03*
D12*
X217165696Y-108866483D03*
%TD*%
D10*
%TO.P,D47,1*%
%TO.N,P1*%
X236309733Y-78486719D03*
D11*
X238339470Y-77747954D03*
%TO.P,D47,2*%
%TO.N,mirror_middle_num*%
X241440454Y-76619290D03*
D12*
X243470191Y-75880525D03*
%TD*%
D13*
%TO.P,D21,1*%
%TO.N,P19*%
X137082592Y-116335661D03*
D14*
X139112329Y-117074424D03*
%TO.P,D21,2*%
%TO.N,index_home*%
X142213313Y-118203092D03*
D12*
X144243050Y-118941855D03*
%TD*%
D13*
%TO.P,D5,1*%
%TO.N,P18*%
X78814748Y-118539817D03*
D14*
X80844485Y-119278580D03*
%TO.P,D5,2*%
%TO.N,pinky_bottom*%
X83945469Y-120407248D03*
D12*
X85975206Y-121146011D03*
%TD*%
D10*
%TO.P,D36,1*%
%TO.N,P0*%
X278518153Y-89196458D03*
D11*
X280547890Y-88457693D03*
%TO.P,D36,2*%
%TO.N,mirror_pinky_top*%
X283648874Y-87329029D03*
D12*
X285678611Y-86590264D03*
%TD*%
D13*
%TO.P,D6,1*%
%TO.N,P19*%
X84629091Y-102565037D03*
D14*
X86658828Y-103303800D03*
%TO.P,D6,2*%
%TO.N,pinky_home*%
X89759812Y-104432468D03*
D12*
X91789549Y-105171231D03*
%TD*%
D25*
%TO.P,D28,1*%
%TO.N,P15*%
X142010154Y-157869302D03*
D26*
X143779520Y-159108226D03*
%TO.P,D28,2*%
%TO.N,layer_cluster*%
X146482722Y-161001026D03*
D12*
X148252088Y-162239950D03*
%TD*%
%TO.P,D8,2*%
%TO.N,pinky_num*%
X103418237Y-73221687D03*
D14*
X101388500Y-72482924D03*
%TO.P,D8,1*%
%TO.N,P21*%
X98287516Y-71354256D03*
D13*
X96257779Y-70615493D03*
%TD*%
%TO.P,D1,1*%
%TO.N,P18*%
X61900279Y-112383458D03*
D14*
X63930016Y-113122221D03*
%TO.P,D1,2*%
%TO.N,outer_bottom*%
X67031000Y-114250889D03*
D12*
X69060737Y-114989652D03*
%TD*%
D13*
%TO.P,D7,1*%
%TO.N,P20*%
X90443432Y-86590267D03*
D14*
X92473169Y-87329030D03*
%TO.P,D7,2*%
%TO.N,pinky_top*%
X95574153Y-88457698D03*
D12*
X97603890Y-89196461D03*
%TD*%
D10*
%TO.P,D46,1*%
%TO.N,P0*%
X242124072Y-94461490D03*
D11*
X244153809Y-93722725D03*
%TO.P,D46,2*%
%TO.N,mirror_middle_top*%
X247254793Y-92594061D03*
D12*
X249284530Y-91855296D03*
%TD*%
D13*
%TO.P,D11,1*%
%TO.N,P19*%
X103253663Y-104022940D03*
D14*
X105283400Y-104761703D03*
%TO.P,D11,2*%
%TO.N,ring_home*%
X108384384Y-105890371D03*
D12*
X110414121Y-106629134D03*
%TD*%
D10*
%TO.P,D44,1*%
%TO.N,P5*%
X253752752Y-126411037D03*
D11*
X255782489Y-125672272D03*
%TO.P,D44,2*%
%TO.N,mirror_middle_bottom*%
X258883473Y-124543608D03*
D12*
X260913210Y-123804843D03*
%TD*%
D13*
%TO.P,D20,1*%
%TO.N,P18*%
X131268254Y-132310436D03*
D14*
X133297991Y-133049199D03*
%TO.P,D20,2*%
%TO.N,index_bottom*%
X136398975Y-134177867D03*
D12*
X138428712Y-134916630D03*
%TD*%
D10*
%TO.P,D49,1*%
%TO.N,P5*%
X237693340Y-134916632D03*
D11*
X239723077Y-134177867D03*
%TO.P,D49,2*%
%TO.N,mirror_index_bottom*%
X242824061Y-133049203D03*
D12*
X244853798Y-132310438D03*
%TD*%
D27*
%TO.P,B1,1*%
%TO.N,GND*%
X189911022Y-142789850D03*
X189911024Y-148989842D03*
%TO.P,B1,2*%
%TO.N,RST*%
X186211018Y-142789850D03*
X186211020Y-148989842D03*
%TD*%
D10*
%TO.P,D42,1*%
%TO.N,P1*%
X254079247Y-74679582D03*
D11*
X256108984Y-73940817D03*
%TO.P,D42,2*%
%TO.N,mirror_ring_num*%
X259209968Y-72812153D03*
D12*
X261239705Y-72073388D03*
%TD*%
D28*
%TO.N,P18*%
X152300530Y-127354549D03*
X149731596Y-132154550D03*
%TO.N,P10*%
X111564933Y-76365307D03*
%TO.N,P9*%
X204335066Y-98811349D03*
%TO.N,P16*%
X93662176Y-72337788D03*
%TO.N,P14*%
X77685254Y-65616913D03*
%TO.N,P6*%
X204896229Y-169935541D03*
%TO.N,P7*%
X233986256Y-86130482D03*
%TO.N,P8*%
X218660976Y-92559772D03*
%TD*%
%TO.N,pinky_num*%
D29*
X103418237Y-73221687D02*
X101388500Y-72482924D01*
%TO.N,P1*%
X204190895Y-95497895D02*
X206220630Y-94759143D01*
X291648014Y-66326556D02*
X291648016Y-66326557D01*
%TO.N,RST*%
X181642324Y-113757196D02*
X180441021Y-112555897D01*
X186211024Y-148989845D02*
X186211022Y-142789848D01*
%TO.N,P1*%
X205685074Y-92293620D02*
X220250316Y-86992310D01*
X272703811Y-73221683D02*
X274733549Y-72482919D01*
%TO.N,RST*%
X186211022Y-142789848D02*
X181642327Y-138221152D01*
%TO.N,GND*%
X189911024Y-142789849D02*
X189911026Y-140795897D01*
%TO.N,P1*%
X204190895Y-95497895D02*
X205685074Y-92293620D01*
X256108982Y-73940819D02*
X256108982Y-73940817D01*
X274341207Y-73985210D02*
X288854753Y-68702707D01*
X238339459Y-77747954D02*
X238339463Y-77747948D01*
X220250316Y-86992310D02*
X221744499Y-83788022D01*
X220250316Y-86992310D02*
X222280051Y-86253542D01*
X256302351Y-75716230D02*
X268518355Y-71269973D01*
X236309729Y-78486717D02*
X239514013Y-79980896D01*
X254079249Y-74679580D02*
X256302351Y-75716230D01*
X289618283Y-67065320D02*
X291648014Y-66326556D01*
%TO.N,GND*%
X189911026Y-140795897D02*
X191861029Y-138845893D01*
X189911028Y-148989847D02*
X189911024Y-142789849D01*
%TO.N,P1*%
X272703811Y-73221683D02*
X274341207Y-73985210D01*
X274733549Y-72482919D02*
X274733549Y-72482919D01*
X222280051Y-86253542D02*
X222280052Y-86253543D01*
X288854753Y-68702707D02*
X289618283Y-67065320D01*
X254079249Y-74679580D02*
X256108982Y-73940819D01*
X239514013Y-79980896D02*
X254079249Y-74679580D01*
%TO.N,RST*%
X181642327Y-138221152D02*
X181642324Y-113757196D01*
%TO.N,P1*%
X236309729Y-78486717D02*
X238339459Y-77747954D01*
X268518355Y-71269973D02*
X272703811Y-73221683D01*
X206220630Y-94759143D02*
X206220628Y-94759138D01*
X221744499Y-83788022D02*
X236309729Y-78486717D01*
%TO.N,P14*%
X129113385Y-79865676D02*
X112333688Y-73758370D01*
X179241151Y-100026211D02*
X163538072Y-94310759D01*
X95300344Y-71602614D02*
X94626005Y-71917061D01*
X94222532Y-71770210D02*
X77760634Y-65778571D01*
X180441024Y-130335893D02*
X179276487Y-129912037D01*
X96409875Y-72006449D02*
X95300344Y-71602614D01*
X162758079Y-92638059D02*
X149732357Y-87897086D01*
X173147498Y-116768383D02*
X179241151Y-100026211D01*
X148694796Y-85672027D02*
X147155280Y-85111686D01*
X179276487Y-129912037D02*
X173147498Y-116768383D01*
%TO.N,mirror_ring_num*%
X259209976Y-72812158D02*
X261239707Y-72073397D01*
%TO.N,P14*%
X112333688Y-73758370D02*
X104481757Y-77419782D01*
%TO.N,mirror_ring_num*%
X261239707Y-72073397D02*
X261239703Y-72073389D01*
%TO.N,P14*%
X163538072Y-94310759D02*
X162758079Y-92638059D01*
X147155280Y-85111686D02*
X147414854Y-84398513D01*
X131676812Y-78670332D02*
X129113385Y-79865676D01*
X77760634Y-65778571D02*
X77685254Y-65616913D01*
X97800136Y-74987873D02*
X96409875Y-72006449D01*
X94626005Y-71917061D02*
X94222532Y-71770210D01*
X149732357Y-87897086D02*
X148694796Y-85672027D01*
X147414854Y-84398513D02*
X131676812Y-78670332D01*
X104481757Y-77419782D02*
X97800136Y-74987873D01*
%TO.N,P5*%
X223128106Y-140217938D02*
X237693338Y-134916633D01*
X285375665Y-118921171D02*
X290146842Y-121146007D01*
X239187522Y-131712351D02*
X253752752Y-126411034D01*
X255782493Y-125672277D02*
X255782494Y-125672273D01*
X253752752Y-126411034D02*
X255782493Y-125672277D01*
X221633921Y-143422228D02*
X223663657Y-142683461D01*
X239723075Y-134177870D02*
X239723079Y-134177864D01*
X253752752Y-126411034D02*
X256957039Y-127905223D01*
X256957039Y-127905223D02*
X271522277Y-122603905D01*
X290146842Y-121146007D02*
X292176579Y-120407250D01*
X237693338Y-134916633D02*
X239187522Y-131712351D01*
X273552010Y-121865142D02*
X273552006Y-121865140D01*
X292176579Y-120407250D02*
X292176577Y-120407245D01*
X307061310Y-114989646D02*
X309091041Y-114250882D01*
X223663657Y-142683461D02*
X223663660Y-142683468D01*
X309091041Y-114250882D02*
X309091041Y-114250882D01*
%TO.N,outer_top*%
X78659688Y-82301337D02*
X80689420Y-83040094D01*
%TO.N,P5*%
X271522277Y-122603905D02*
X273159665Y-123367435D01*
X237693338Y-134916633D02*
X239723075Y-134177870D01*
X273159665Y-123367435D02*
X285375665Y-118921171D01*
%TO.N,mirror_index_bottom*%
X244853799Y-132310437D02*
X244853802Y-132310438D01*
%TO.N,P21*%
X132651859Y-75880522D02*
X134681598Y-76619284D01*
%TO.N,P5*%
X221633921Y-143422228D02*
X223128106Y-140217938D01*
%TO.N,P21*%
X132651859Y-75880522D02*
X134146043Y-79084805D01*
X148711284Y-84386114D02*
X150741015Y-85124881D01*
X96257778Y-70615493D02*
X98287508Y-71354256D01*
X148711284Y-84386114D02*
X150205459Y-87590401D01*
X164484938Y-92787703D02*
X164384040Y-92571315D01*
X96257778Y-70615493D02*
X98129196Y-74628754D01*
X134146043Y-79084805D02*
X148711284Y-84386114D01*
X114882348Y-72073387D02*
X118086625Y-70579213D01*
X150205459Y-87590401D02*
X164770698Y-92891711D01*
X104460511Y-76933169D02*
X114882348Y-72073387D01*
X98129196Y-74628754D02*
X104460511Y-76933169D01*
%TO.N,outer_num*%
X84474034Y-66326553D02*
X86503769Y-67065321D01*
%TO.N,P21*%
X164770698Y-92891711D02*
X166800432Y-93630475D01*
X94551597Y-71411101D02*
X96257778Y-70615493D01*
%TO.N,outer_home*%
X72845343Y-98276100D02*
X74875081Y-99014867D01*
%TO.N,P21*%
X80138918Y-66165310D02*
X94551597Y-71411101D01*
X79343307Y-64459126D02*
X81373049Y-65197893D01*
X79343307Y-64459126D02*
X80138918Y-66165310D01*
%TO.N,mirror_index_bottom*%
X242824065Y-133049203D02*
X244853799Y-132310437D01*
%TO.N,P21*%
X114882348Y-72073387D02*
X116912082Y-72812152D01*
%TO.N,P5*%
X271522277Y-122603905D02*
X273552010Y-121865142D01*
%TO.N,P21*%
X118086625Y-70579213D02*
X132651859Y-75880522D01*
%TO.N,P6*%
X277336621Y-138578684D02*
X279366356Y-137839918D01*
X261596835Y-141647051D02*
X261596835Y-141647047D01*
%TO.N,mirror_index_num*%
X225381040Y-85124882D02*
X227410772Y-84386120D01*
%TO.N,P6*%
X227869970Y-162239944D02*
X229305209Y-161717568D01*
X203241571Y-168547118D02*
X203511971Y-169290050D01*
X262771383Y-143879996D02*
X277336621Y-138578684D01*
X279366356Y-137839918D02*
X279366356Y-137839921D01*
X259567099Y-142385814D02*
X261596835Y-141647051D01*
%TO.N,mirror_index_mod*%
X248638404Y-149023977D02*
X250668140Y-148285215D01*
%TO.N,P16*%
X162055312Y-92861151D02*
X149403296Y-88256195D01*
X148365730Y-86031135D02*
X146826214Y-85470797D01*
%TO.N,P6*%
X226438397Y-161572396D02*
X227869970Y-162239944D01*
X245537416Y-150152641D02*
X245537423Y-150152637D01*
%TO.N,P16*%
X172030612Y-116913206D02*
X177959439Y-100623885D01*
%TO.N,P6*%
X203511971Y-169290050D02*
X204896229Y-169935541D01*
X203241571Y-168547118D02*
X204367973Y-166131544D01*
%TO.N,mirror_outer_bottom*%
X314221767Y-112383454D02*
X314221767Y-112383454D01*
%TO.N,mirror_index_num*%
X227410772Y-84386120D02*
X227410771Y-84386115D01*
%TO.N,P16*%
X146826214Y-85470797D02*
X146668666Y-85132934D01*
X179276487Y-132452038D02*
X172030612Y-116913206D01*
%TO.N,P6*%
X215263646Y-165639676D02*
X226438397Y-161572396D01*
X243507682Y-150891405D02*
X245537416Y-150152641D01*
%TO.N,mirror_outer_bottom*%
X312192034Y-113122215D02*
X314221767Y-112383454D01*
%TO.N,P16*%
X146796169Y-84782624D02*
X146722924Y-84625550D01*
%TO.N,P6*%
X259567099Y-142385814D02*
X262771383Y-143879996D01*
X243507682Y-150891405D02*
X245001868Y-147687125D01*
X231047035Y-155426716D02*
X243507682Y-150891405D01*
%TO.N,mirror_index_mod*%
X250668140Y-148285215D02*
X250668145Y-148285213D01*
%TO.N,index_num*%
X153842002Y-86253551D02*
X155871737Y-86992312D01*
%TO.N,P6*%
X229305209Y-161717568D02*
X229639334Y-161001030D01*
X245001868Y-147687125D02*
X259567099Y-142385814D01*
X204367973Y-166131544D02*
X211079711Y-163688676D01*
X227869970Y-162239944D02*
X231047035Y-155426716D01*
X211079711Y-163688676D02*
X215263646Y-165639676D01*
%TO.N,P16*%
X131817594Y-79200457D02*
X129125997Y-80455566D01*
X162924956Y-94726109D02*
X162055312Y-92861151D01*
X149403296Y-88256195D02*
X148365730Y-86031135D01*
X180441020Y-132875894D02*
X179276487Y-132452038D01*
X146668666Y-85132934D02*
X146796169Y-84782624D01*
X177720367Y-100111199D02*
X162924956Y-94726109D01*
X113373361Y-74722075D02*
X105649603Y-78323722D01*
X129125997Y-80455566D02*
X113373361Y-74722075D01*
X105649603Y-78323722D02*
X94892233Y-74408361D01*
X94892233Y-74408361D02*
X93830693Y-72131882D01*
X177959439Y-100623885D02*
X177720367Y-100111199D01*
X146722924Y-84625550D02*
X131817594Y-79200457D01*
%TO.N,P10*%
X146181932Y-85013944D02*
X131710667Y-79746832D01*
X162604355Y-95460765D02*
X161525527Y-93147206D01*
X146497153Y-85829909D02*
X146153320Y-85092560D01*
X180441023Y-135415894D02*
X179276488Y-134992039D01*
X171033256Y-117314368D02*
X177070876Y-100726148D01*
X149061448Y-88610655D02*
X148023887Y-86385594D01*
%TO.N,mirror_ring_bottom*%
X276653002Y-120736479D02*
X278682737Y-119997717D01*
X278682737Y-119997717D02*
X278682732Y-119997716D01*
%TO.N,mirror_pinky_top*%
X285678613Y-86590269D02*
X285678620Y-86590262D01*
%TO.N,P10*%
X179276488Y-134992039D02*
X171033256Y-117314368D01*
X148023887Y-86385594D02*
X146497153Y-85829909D01*
X161525527Y-93147206D02*
X149061448Y-88610655D01*
X131710667Y-79746832D02*
X129147241Y-80942179D01*
X129147241Y-80942179D02*
X113548344Y-75264644D01*
X113548344Y-75264644D02*
X111497603Y-76220922D01*
X177070876Y-100726148D02*
X162604355Y-95460765D01*
%TO.N,mirror_pinky_top*%
X283648881Y-87329028D02*
X285678613Y-86590269D01*
%TO.N,P10*%
X146153320Y-85092560D02*
X146181932Y-85013944D01*
%TO.N,mirror_middle_mod*%
X266727559Y-139779619D02*
X266727555Y-139779621D01*
%TO.N,P19*%
X121023181Y-107830072D02*
X122517361Y-111034353D01*
X67714625Y-96408678D02*
X68478151Y-98046064D01*
%TO.N,P7*%
X201165420Y-98289128D02*
X201917174Y-98015512D01*
X201917174Y-98015512D02*
X202036707Y-97759167D01*
X204181997Y-114179001D02*
X199611472Y-101621581D01*
%TO.N,P19*%
X153142008Y-124841258D02*
X155171748Y-125580023D01*
X84629092Y-102565040D02*
X85424699Y-104271223D01*
%TO.N,P7*%
X195681025Y-130335895D02*
X196845562Y-129912037D01*
%TO.N,P19*%
X68478151Y-98046064D02*
X82991707Y-103328568D01*
%TO.N,P2*%
X184241027Y-129075891D02*
X195681023Y-117635892D01*
%TO.N,P19*%
X85424699Y-104271223D02*
X95138915Y-107806911D01*
%TO.N,P2*%
X184241029Y-138845892D02*
X184241027Y-129075891D01*
%TO.N,P19*%
X84629092Y-102565040D02*
X86658828Y-103303804D01*
X137082592Y-116335662D02*
X139112330Y-117074429D01*
%TO.N,P3*%
X186781028Y-138845898D02*
X186781029Y-129075891D01*
%TO.N,P19*%
X106457938Y-102528760D02*
X121023181Y-107830072D01*
X103253661Y-104022941D02*
X105283389Y-104761702D01*
X95138915Y-107806911D02*
X103253661Y-104022941D01*
%TO.N,P7*%
X196845562Y-129912037D02*
X204181997Y-114179001D01*
X202036707Y-97759167D02*
X233986256Y-86130482D01*
%TO.N,ring_home*%
X108384383Y-105890373D02*
X110414119Y-106629135D01*
%TO.N,P7*%
X199611472Y-101621581D02*
X201165420Y-98289128D01*
%TO.N,P3*%
X186781029Y-129075891D02*
X195681023Y-120175896D01*
%TO.N,P19*%
X67714625Y-96408678D02*
X69744366Y-97147439D01*
X122517361Y-111034353D02*
X137082592Y-116335662D01*
%TO.N,pinky_top*%
X95574154Y-88457696D02*
X97603894Y-89196461D01*
%TO.N,P19*%
X82991707Y-103328568D02*
X84629092Y-102565040D01*
X121023181Y-107830072D02*
X123052914Y-108568834D01*
%TO.N,mirror_middle_mod*%
X264697824Y-140518387D02*
X266727559Y-139779619D01*
%TO.N,P19*%
X138576776Y-119539945D02*
X153142008Y-124841258D01*
X137082592Y-116335662D02*
X138576776Y-119539945D01*
X103253661Y-104022941D02*
X106457938Y-102528760D01*
%TO.N,P15*%
X142010154Y-157869307D02*
X143977442Y-162088171D01*
X109394495Y-139779620D02*
X111424228Y-140518380D01*
X143977442Y-162088171D02*
X159877945Y-167875474D01*
X125453911Y-148285212D02*
X127452249Y-152570656D01*
X167043216Y-173445162D02*
X167313625Y-172702226D01*
%TO.N,mirror_middle_home*%
X255098871Y-107830068D02*
X255098871Y-107830068D01*
%TO.N,P15*%
X161913930Y-172270810D02*
X166209087Y-173834120D01*
%TO.N,mirror_middle_home*%
X253069142Y-108568837D02*
X255098871Y-107830068D01*
%TO.N,ring_num*%
X120013071Y-73940821D02*
X122042806Y-74679587D01*
%TO.N,P0*%
X227558838Y-99762800D02*
X242124073Y-94461494D01*
X259893587Y-90654359D02*
X261923319Y-89915599D01*
X278518158Y-89196456D02*
X280547894Y-88457697D01*
%TO.N,P15*%
X110888674Y-142983903D02*
X125453911Y-148285212D01*
%TO.N,P0*%
X242124073Y-94461494D02*
X244153811Y-93722725D01*
X211499423Y-108268395D02*
X226064655Y-102967084D01*
X261923319Y-89915599D02*
X261923325Y-89915594D01*
%TO.N,P15*%
X161073285Y-170438900D02*
X161067334Y-170455273D01*
X167313625Y-172702226D02*
X168697869Y-172056739D01*
%TO.N,P0*%
X210005240Y-111472673D02*
X212034969Y-110733912D01*
X228094388Y-102228316D02*
X228094389Y-102228315D01*
X278518158Y-89196456D02*
X280155546Y-89959987D01*
X242124073Y-94461494D02*
X245328356Y-95955673D01*
X226064655Y-102967084D02*
X227558838Y-99762800D01*
%TO.N,P15*%
X109394495Y-139779620D02*
X110888674Y-142983903D01*
%TO.N,P0*%
X261530973Y-91417887D02*
X273746985Y-86971625D01*
%TO.N,P15*%
X125453911Y-148285212D02*
X127483642Y-149023978D01*
X166209087Y-173834120D02*
X167043217Y-173445159D01*
X159877945Y-167875474D02*
X161073285Y-170438900D01*
X91624975Y-135972493D02*
X94829253Y-134478311D01*
%TO.N,middle_mod*%
X114525214Y-141647046D02*
X116554948Y-142385816D01*
%TO.N,P15*%
X127452249Y-152570656D02*
X142010151Y-157869301D01*
X142010151Y-157869301D02*
X143445392Y-158391686D01*
X161067334Y-170455273D02*
X161913930Y-172270810D01*
X143445392Y-158391686D02*
X143779516Y-159108223D01*
X91624975Y-135972493D02*
X93654712Y-136711252D01*
X94829253Y-134478311D02*
X109394495Y-139779620D01*
%TO.N,pinky_bottom*%
X83945471Y-120407246D02*
X85975211Y-121146007D01*
%TO.N,P0*%
X294669099Y-84677484D02*
X295432626Y-83040096D01*
X245328356Y-95955673D02*
X259893587Y-90654359D01*
%TO.N,P20*%
X90443435Y-86590265D02*
X91206963Y-88227654D01*
X73528964Y-80433901D02*
X75558703Y-81172663D01*
%TO.N,middle_top*%
X131968245Y-93722724D02*
X133997980Y-94461489D01*
%TO.N,P0*%
X280547894Y-88457697D02*
X280547897Y-88457693D01*
%TO.N,mirror_index_top*%
X231195381Y-101099652D02*
X233225112Y-100360891D01*
%TO.N,P0*%
X244153811Y-93722725D02*
X244153812Y-93722724D01*
%TO.N,P20*%
X74292491Y-82071287D02*
X88806047Y-87353786D01*
X109068001Y-88048167D02*
X111097743Y-88786926D01*
X90443435Y-86590265D02*
X92473173Y-87329026D01*
%TO.N,P0*%
X210005240Y-111472673D02*
X211499423Y-108268395D01*
%TO.N,mirror_index_top*%
X233225112Y-100360891D02*
X233225117Y-100360889D01*
%TO.N,P20*%
X126837528Y-91855295D02*
X128331702Y-95059574D01*
X112272286Y-86553983D02*
X126837528Y-91855295D01*
X158956350Y-108866481D02*
X160986094Y-109605246D01*
%TO.N,P0*%
X212034969Y-110733912D02*
X212034972Y-110733911D01*
X273746985Y-86971625D02*
X278518158Y-89196456D01*
%TO.N,P20*%
X101022054Y-91800055D02*
X109068001Y-88048167D01*
%TO.N,P0*%
X226064655Y-102967084D02*
X228094388Y-102228316D01*
X295432626Y-83040096D02*
X297462358Y-82301327D01*
X259893587Y-90654359D02*
X261530973Y-91417887D01*
X297462358Y-82301327D02*
X297462359Y-82301330D01*
%TO.N,P20*%
X88806047Y-87353786D02*
X90443435Y-86590265D01*
X144391117Y-103565170D02*
X158956350Y-108866481D01*
X126837528Y-91855295D02*
X128867255Y-92594059D01*
X128331702Y-95059574D02*
X142896940Y-100360887D01*
X73528964Y-80433901D02*
X74292491Y-82071287D01*
X91206963Y-88227654D02*
X101022054Y-91800055D01*
X142896940Y-100360887D02*
X144391117Y-103565170D01*
X142896940Y-100360887D02*
X144926675Y-101099652D01*
X109068001Y-88048167D02*
X112272286Y-86553983D01*
%TO.N,P0*%
X280155546Y-89959987D02*
X294669099Y-84677484D01*
%TO.N,P8*%
X195681025Y-132875893D02*
X196845562Y-132452038D01*
X205298887Y-114323823D02*
X200687971Y-101655436D01*
X218617408Y-92539458D02*
X218660976Y-92559772D01*
%TO.N,mirror_outer_num*%
X296778739Y-64459130D02*
X296778737Y-64459130D01*
X294749009Y-65197895D02*
X296778739Y-64459130D01*
%TO.N,P8*%
X201883315Y-99092010D02*
X203010948Y-98681585D01*
X203010948Y-98681585D02*
X203270331Y-98125334D01*
X196845562Y-132452038D02*
X205298887Y-114323823D01*
X200687971Y-101655436D02*
X201883315Y-99092010D01*
X203270331Y-98125334D02*
X218617408Y-92539458D01*
%TO.N,middle_home*%
X126153902Y-109697501D02*
X128183636Y-110436265D01*
%TO.N,P9*%
X195681021Y-135415895D02*
X196845562Y-134992036D01*
X196845562Y-134992036D02*
X206415777Y-114468647D01*
%TO.N,mirror_middle_top*%
X247254797Y-92594060D02*
X249284534Y-91855301D01*
%TO.N,mirror_space_cluster*%
X207424170Y-172056738D02*
X207694581Y-172799674D01*
%TO.N,P9*%
X202652344Y-99450617D02*
X204320008Y-98843635D01*
X206415777Y-114468647D02*
X201696069Y-101501355D01*
X204320008Y-98843635D02*
X204335066Y-98811349D01*
%TO.N,mirror_middle_top*%
X249284534Y-91855301D02*
X249284534Y-91855295D01*
%TO.N,P9*%
X201696069Y-101501355D02*
X202652344Y-99450617D01*
%TO.N,mirror_space_cluster*%
X207694581Y-172799674D02*
X209078831Y-173445161D01*
%TO.N,mirror_inner_num*%
X209321624Y-93630471D02*
X211351350Y-92891710D01*
%TO.N,mirror_middle_num*%
X243470188Y-75880525D02*
X243470187Y-75880522D01*
%TO.N,mirror_inner_num*%
X211351350Y-92891710D02*
X211351353Y-92891709D01*
%TO.N,ring_bottom*%
X102570043Y-121865148D02*
X104599771Y-122603909D01*
%TO.N,P4*%
X217849315Y-126708687D02*
X217849316Y-126708681D01*
X285969895Y-105934753D02*
X300483446Y-100652258D01*
X215819578Y-127447450D02*
X217849315Y-126708687D01*
%TO.N,mirror_middle_num*%
X241440455Y-76619286D02*
X243470188Y-75880525D01*
%TO.N,P4*%
X233908729Y-118203098D02*
X233908734Y-118203094D01*
%TO.N,mirror_ring_mod*%
X282467340Y-136711251D02*
X284497072Y-135972494D01*
%TO.N,P4*%
X217313761Y-124243169D02*
X231878997Y-118941857D01*
X247938418Y-110436268D02*
X249968146Y-109697497D01*
X265707934Y-106629134D02*
X267737666Y-105890371D01*
%TO.N,mirror_pinky_num*%
X277834537Y-71354250D02*
X279864272Y-70615491D01*
%TO.N,mirror_ring_mod*%
X284497072Y-135972494D02*
X284497077Y-135972493D01*
%TO.N,mirror_pinky_num*%
X279864272Y-70615491D02*
X279864273Y-70615494D01*
%TO.N,mirror_middle_bottom*%
X260913210Y-123804845D02*
X260913210Y-123804845D01*
%TO.N,middle_num*%
X137782583Y-77747948D02*
X139812319Y-78486715D01*
%TO.N,mirror_middle_bottom*%
X258883476Y-124543613D02*
X260913210Y-123804845D01*
%TO.N,inner_home*%
X158272734Y-126708690D02*
X160302472Y-127447452D01*
%TO.N,P4*%
X247938418Y-110436268D02*
X251142698Y-111930438D01*
X303276701Y-98276105D02*
X303276704Y-98276106D01*
X249968146Y-109697497D02*
X249968155Y-109697499D01*
%TO.N,mirror_outer_top*%
X302593078Y-80433907D02*
X302593083Y-80433898D01*
%TO.N,mirror_inner_bottom*%
X226764647Y-141554797D02*
X228794383Y-140816038D01*
X228794383Y-140816038D02*
X228794386Y-140816034D01*
%TO.N,P4*%
X300483446Y-100652258D02*
X301246964Y-99014870D01*
X284332499Y-105171232D02*
X285969895Y-105934753D01*
X215819578Y-127447450D02*
X217313761Y-124243169D01*
X279561326Y-102946396D02*
X284332499Y-105171232D01*
X265707934Y-106629134D02*
X267345322Y-107392655D01*
X251142698Y-111930438D02*
X265707934Y-106629134D01*
X301246964Y-99014870D02*
X303276701Y-98276105D01*
X231878997Y-118941857D02*
X233373180Y-115737572D01*
X267345322Y-107392655D02*
X279561326Y-102946396D01*
%TO.N,ring_mod*%
X96755696Y-137839920D02*
X98785438Y-138578682D01*
%TO.N,mirror_ring_top*%
X265024311Y-88786929D02*
X267054050Y-88048169D01*
X267054050Y-88048169D02*
X267054045Y-88048167D01*
%TO.N,mirror_index_home*%
X237009722Y-117074428D02*
X239039457Y-116335666D01*
%TO.N,mirror_outer_top*%
X300563353Y-81172667D02*
X302593078Y-80433907D01*
%TO.N,P4*%
X284332499Y-105171232D02*
X286362236Y-104432471D01*
X233373180Y-115737572D02*
X247938418Y-110436268D01*
%TO.N,outer_bottom*%
X67031002Y-114250880D02*
X69060740Y-114989640D01*
%TO.N,P4*%
X267737666Y-105890371D02*
X267737670Y-105890364D01*
X231878997Y-118941857D02*
X233908729Y-118203098D01*
X286362236Y-104432471D02*
X286362235Y-104432467D01*
%TO.N,index_mod*%
X130584630Y-150152650D02*
X132614367Y-150891412D01*
%TO.N,mirror_index_home*%
X239039457Y-116335666D02*
X239039459Y-116335664D01*
%TO.N,index_top*%
X148027663Y-102228320D02*
X150057394Y-102967084D01*
%TO.N,mirror_pinky_bottom*%
X295277567Y-119278580D02*
X297307301Y-118539818D01*
%TO.N,P18*%
X78814752Y-118539816D02*
X80844489Y-119278576D01*
X61900279Y-112383449D02*
X62663808Y-114020842D01*
%TO.N,mirror_layer_cluster*%
X232342537Y-159108220D02*
X233777774Y-158585841D01*
%TO.N,P18*%
X62663808Y-114020842D02*
X77177359Y-119303340D01*
%TO.N,mirror_pinky_home*%
X289463219Y-103303804D02*
X291492954Y-102565041D01*
%TO.N,layer_cluster*%
X147917960Y-161523416D02*
X148252089Y-162239953D01*
X146482722Y-161001028D02*
X147917960Y-161523416D01*
%TO.N,inner_num*%
X169901419Y-94759136D02*
X171931151Y-95497904D01*
%TO.N,P18*%
X132762433Y-135514720D02*
X147327670Y-140816031D01*
X98832598Y-122985613D02*
X109016651Y-126692298D01*
X97439320Y-119997711D02*
X99469053Y-120736473D01*
X97439320Y-119997711D02*
X98832598Y-122985613D01*
X77177359Y-119303340D02*
X78814752Y-118539816D01*
X115208837Y-123804843D02*
X116703013Y-127009130D01*
X109016651Y-126692298D02*
X115208837Y-123804843D01*
X61900279Y-112383449D02*
X63930018Y-113122216D01*
%TO.N,pinky_home*%
X89759813Y-104432467D02*
X91789551Y-105171238D01*
%TO.N,mirror_layer_cluster*%
X233777774Y-158585841D02*
X234111902Y-157869300D01*
%TO.N,P18*%
X89393363Y-123749603D02*
X97439320Y-119997711D01*
%TO.N,mirror_pinky_home*%
X291492954Y-102565041D02*
X291492958Y-102565034D01*
%TO.N,P18*%
X115208837Y-123804843D02*
X117238570Y-124543606D01*
X116703013Y-127009130D02*
X131268253Y-132310439D01*
X79578280Y-120177198D02*
X89393363Y-123749603D01*
X78814752Y-118539816D02*
X79578280Y-120177198D01*
X131268253Y-132310439D02*
X132762433Y-135514720D01*
X131268253Y-132310439D02*
X133297986Y-133049203D01*
X147327670Y-140816031D02*
X149357404Y-141554798D01*
%TO.N,inner_bottom*%
X152458390Y-142683462D02*
X154488131Y-143422228D01*
%TO.N,mirror_pinky_bottom*%
X297307301Y-118539818D02*
X297307305Y-118539816D01*
%TO.N,index_home*%
X142213317Y-118203090D02*
X144243059Y-118941860D01*
%TO.N,ring_top*%
X114198724Y-89915594D02*
X116228459Y-90654357D01*
%TO.N,index_bottom*%
X136398974Y-134177869D02*
X138428717Y-134916632D01*
%TO.N,mirror_outer_home*%
X306377697Y-97147441D02*
X308407423Y-96408677D01*
%TO.N,mirror_inner_top*%
X215135964Y-109605247D02*
X217165695Y-108866490D01*
%TO.N,space_cluster*%
X171225819Y-169935542D02*
X171496226Y-169192608D01*
%TO.N,mirror_ring_home*%
X272868392Y-104022943D02*
X272868393Y-104022938D01*
X270838659Y-104761705D02*
X272868392Y-104022943D01*
%TO.N,mirror_inner_top*%
X217165695Y-108866490D02*
X217165700Y-108866485D01*
%TO.N,space_cluster*%
X171496226Y-169192608D02*
X172880478Y-168547120D01*
%TO.N,mirror_inner_home*%
X222980039Y-124841259D02*
X222980040Y-124841253D01*
%TO.N,inner_top*%
X164087073Y-110733911D02*
X166116815Y-111472676D01*
%TO.N,mirror_outer_home*%
X308407423Y-96408677D02*
X308407429Y-96408676D01*
%TO.N,middle_bottom*%
X120339555Y-125672271D02*
X122369293Y-126411035D01*
%TO.N,mirror_inner_home*%
X220950302Y-125580020D02*
X222980039Y-124841259D01*
%TO.N,P5*%
X306297786Y-116627029D02*
X291784230Y-121909531D01*
X291784230Y-121909531D02*
X290146844Y-121146003D01*
X307061310Y-114989646D02*
X306297786Y-116627029D01*
%TO.N,P18*%
X149331597Y-130323484D02*
X149331596Y-131754550D01*
X152300530Y-127354549D02*
X149331597Y-130323484D01*
X149331596Y-131754550D02*
X149731596Y-132154550D01*
%TD*%
M02*
