%TF.GenerationSoftware,KiCad,Pcbnew,10.0.5*%
%TF.CreationDate,2026-09-22T23:11:33-07:00*%
%TF.ProjectId,Keyboard Final,4b657962-6f61-4726-9420-46696e616c2e,v1.0.0*%
%TF.SameCoordinates,Original*%
%TF.FileFunction,Legend,Top*%
%TF.FilePolarity,Positive*%
%FSLAX46Y46*%
G04 Gerber Fmt 4.6, Leading zero omitted, Abs format (unit mm)*
G04 Created by KiCad (PCBNEW 10.0.5) date 2026-09-22 23:11:33*
%MOMM*%
%LPD*%
G01*
G04 APERTURE LIST*
%ADD10C,0.150000*%
%ADD11C,0.100000*%
%ADD12R,1.752600X1.752600*%
%ADD13C,1.752600*%
G04 APERTURE END LIST*
D10*
X182289599Y-135778187D02*
X182289599Y-134978187D01*
X182289599Y-134978187D02*
X182594361Y-134978187D01*
X182594361Y-134978187D02*
X182670551Y-135016282D01*
X182670551Y-135016282D02*
X182708646Y-135054377D01*
X182708646Y-135054377D02*
X182746742Y-135130568D01*
X182746742Y-135130568D02*
X182746742Y-135244853D01*
X182746742Y-135244853D02*
X182708646Y-135321044D01*
X182708646Y-135321044D02*
X182670551Y-135359139D01*
X182670551Y-135359139D02*
X182594361Y-135397234D01*
X182594361Y-135397234D02*
X182289599Y-135397234D01*
X183508646Y-135778187D02*
X183051503Y-135778187D01*
X183280075Y-135778187D02*
X183280075Y-134978187D01*
X183280075Y-134978187D02*
X183203884Y-135092472D01*
X183203884Y-135092472D02*
X183127694Y-135168663D01*
X183127694Y-135168663D02*
X183051503Y-135206758D01*
X184003885Y-134978187D02*
X184080075Y-134978187D01*
X184080075Y-134978187D02*
X184156266Y-135016282D01*
X184156266Y-135016282D02*
X184194361Y-135054377D01*
X184194361Y-135054377D02*
X184232456Y-135130568D01*
X184232456Y-135130568D02*
X184270551Y-135282949D01*
X184270551Y-135282949D02*
X184270551Y-135473425D01*
X184270551Y-135473425D02*
X184232456Y-135625806D01*
X184232456Y-135625806D02*
X184194361Y-135701996D01*
X184194361Y-135701996D02*
X184156266Y-135740092D01*
X184156266Y-135740092D02*
X184080075Y-135778187D01*
X184080075Y-135778187D02*
X184003885Y-135778187D01*
X184003885Y-135778187D02*
X183927694Y-135740092D01*
X183927694Y-135740092D02*
X183889599Y-135701996D01*
X183889599Y-135701996D02*
X183851504Y-135625806D01*
X183851504Y-135625806D02*
X183813408Y-135473425D01*
X183813408Y-135473425D02*
X183813408Y-135282949D01*
X183813408Y-135282949D02*
X183851504Y-135130568D01*
X183851504Y-135130568D02*
X183889599Y-135054377D01*
X183889599Y-135054377D02*
X183927694Y-135016282D01*
X183927694Y-135016282D02*
X184003885Y-134978187D01*
X182289599Y-133238186D02*
X182289599Y-132438186D01*
X182289599Y-132438186D02*
X182594361Y-132438186D01*
X182594361Y-132438186D02*
X182670551Y-132476281D01*
X182670551Y-132476281D02*
X182708646Y-132514376D01*
X182708646Y-132514376D02*
X182746742Y-132590567D01*
X182746742Y-132590567D02*
X182746742Y-132704852D01*
X182746742Y-132704852D02*
X182708646Y-132781043D01*
X182708646Y-132781043D02*
X182670551Y-132819138D01*
X182670551Y-132819138D02*
X182594361Y-132857233D01*
X182594361Y-132857233D02*
X182289599Y-132857233D01*
X183508646Y-133238186D02*
X183051503Y-133238186D01*
X183280075Y-133238186D02*
X183280075Y-132438186D01*
X183280075Y-132438186D02*
X183203884Y-132552471D01*
X183203884Y-132552471D02*
X183127694Y-132628662D01*
X183127694Y-132628662D02*
X183051503Y-132666757D01*
X184194361Y-132438186D02*
X184041980Y-132438186D01*
X184041980Y-132438186D02*
X183965789Y-132476281D01*
X183965789Y-132476281D02*
X183927694Y-132514376D01*
X183927694Y-132514376D02*
X183851504Y-132628662D01*
X183851504Y-132628662D02*
X183813408Y-132781043D01*
X183813408Y-132781043D02*
X183813408Y-133085805D01*
X183813408Y-133085805D02*
X183851504Y-133161995D01*
X183851504Y-133161995D02*
X183889599Y-133200091D01*
X183889599Y-133200091D02*
X183965789Y-133238186D01*
X183965789Y-133238186D02*
X184118170Y-133238186D01*
X184118170Y-133238186D02*
X184194361Y-133200091D01*
X184194361Y-133200091D02*
X184232456Y-133161995D01*
X184232456Y-133161995D02*
X184270551Y-133085805D01*
X184270551Y-133085805D02*
X184270551Y-132895329D01*
X184270551Y-132895329D02*
X184232456Y-132819138D01*
X184232456Y-132819138D02*
X184194361Y-132781043D01*
X184194361Y-132781043D02*
X184118170Y-132742948D01*
X184118170Y-132742948D02*
X183965789Y-132742948D01*
X183965789Y-132742948D02*
X183889599Y-132781043D01*
X183889599Y-132781043D02*
X183851504Y-132819138D01*
X183851504Y-132819138D02*
X183813408Y-132895329D01*
X182289596Y-130698189D02*
X182289596Y-129898189D01*
X182289596Y-129898189D02*
X182594358Y-129898189D01*
X182594358Y-129898189D02*
X182670548Y-129936284D01*
X182670548Y-129936284D02*
X182708643Y-129974379D01*
X182708643Y-129974379D02*
X182746739Y-130050570D01*
X182746739Y-130050570D02*
X182746739Y-130164855D01*
X182746739Y-130164855D02*
X182708643Y-130241046D01*
X182708643Y-130241046D02*
X182670548Y-130279141D01*
X182670548Y-130279141D02*
X182594358Y-130317236D01*
X182594358Y-130317236D02*
X182289596Y-130317236D01*
X183508643Y-130698189D02*
X183051500Y-130698189D01*
X183280072Y-130698189D02*
X183280072Y-129898189D01*
X183280072Y-129898189D02*
X183203881Y-130012474D01*
X183203881Y-130012474D02*
X183127691Y-130088665D01*
X183127691Y-130088665D02*
X183051500Y-130126760D01*
X184194358Y-130164855D02*
X184194358Y-130698189D01*
X184003882Y-129860094D02*
X183813405Y-130431522D01*
X183813405Y-130431522D02*
X184308644Y-130431522D01*
X182289601Y-128158189D02*
X182289601Y-127358189D01*
X182289601Y-127358189D02*
X182594363Y-127358189D01*
X182594363Y-127358189D02*
X182670553Y-127396284D01*
X182670553Y-127396284D02*
X182708648Y-127434379D01*
X182708648Y-127434379D02*
X182746744Y-127510570D01*
X182746744Y-127510570D02*
X182746744Y-127624855D01*
X182746744Y-127624855D02*
X182708648Y-127701046D01*
X182708648Y-127701046D02*
X182670553Y-127739141D01*
X182670553Y-127739141D02*
X182594363Y-127777236D01*
X182594363Y-127777236D02*
X182289601Y-127777236D01*
X183508648Y-128158189D02*
X183051505Y-128158189D01*
X183280077Y-128158189D02*
X183280077Y-127358189D01*
X183280077Y-127358189D02*
X183203886Y-127472474D01*
X183203886Y-127472474D02*
X183127696Y-127548665D01*
X183127696Y-127548665D02*
X183051505Y-127586760D01*
X184232458Y-127358189D02*
X183851506Y-127358189D01*
X183851506Y-127358189D02*
X183813410Y-127739141D01*
X183813410Y-127739141D02*
X183851506Y-127701046D01*
X183851506Y-127701046D02*
X183927696Y-127662951D01*
X183927696Y-127662951D02*
X184118172Y-127662951D01*
X184118172Y-127662951D02*
X184194363Y-127701046D01*
X184194363Y-127701046D02*
X184232458Y-127739141D01*
X184232458Y-127739141D02*
X184270553Y-127815332D01*
X184270553Y-127815332D02*
X184270553Y-128005808D01*
X184270553Y-128005808D02*
X184232458Y-128081998D01*
X184232458Y-128081998D02*
X184194363Y-128120094D01*
X184194363Y-128120094D02*
X184118172Y-128158189D01*
X184118172Y-128158189D02*
X183927696Y-128158189D01*
X183927696Y-128158189D02*
X183851506Y-128120094D01*
X183851506Y-128120094D02*
X183813410Y-128081998D01*
X182289598Y-125618189D02*
X182289598Y-124818189D01*
X182289598Y-124818189D02*
X182594360Y-124818189D01*
X182594360Y-124818189D02*
X182670550Y-124856284D01*
X182670550Y-124856284D02*
X182708645Y-124894379D01*
X182708645Y-124894379D02*
X182746741Y-124970570D01*
X182746741Y-124970570D02*
X182746741Y-125084855D01*
X182746741Y-125084855D02*
X182708645Y-125161046D01*
X182708645Y-125161046D02*
X182670550Y-125199141D01*
X182670550Y-125199141D02*
X182594360Y-125237236D01*
X182594360Y-125237236D02*
X182289598Y-125237236D01*
X183508645Y-125618189D02*
X183051502Y-125618189D01*
X183280074Y-125618189D02*
X183280074Y-124818189D01*
X183280074Y-124818189D02*
X183203883Y-124932474D01*
X183203883Y-124932474D02*
X183127693Y-125008665D01*
X183127693Y-125008665D02*
X183051502Y-125046760D01*
X183965788Y-125161046D02*
X183889598Y-125122951D01*
X183889598Y-125122951D02*
X183851503Y-125084855D01*
X183851503Y-125084855D02*
X183813407Y-125008665D01*
X183813407Y-125008665D02*
X183813407Y-124970570D01*
X183813407Y-124970570D02*
X183851503Y-124894379D01*
X183851503Y-124894379D02*
X183889598Y-124856284D01*
X183889598Y-124856284D02*
X183965788Y-124818189D01*
X183965788Y-124818189D02*
X184118169Y-124818189D01*
X184118169Y-124818189D02*
X184194360Y-124856284D01*
X184194360Y-124856284D02*
X184232455Y-124894379D01*
X184232455Y-124894379D02*
X184270550Y-124970570D01*
X184270550Y-124970570D02*
X184270550Y-125008665D01*
X184270550Y-125008665D02*
X184232455Y-125084855D01*
X184232455Y-125084855D02*
X184194360Y-125122951D01*
X184194360Y-125122951D02*
X184118169Y-125161046D01*
X184118169Y-125161046D02*
X183965788Y-125161046D01*
X183965788Y-125161046D02*
X183889598Y-125199141D01*
X183889598Y-125199141D02*
X183851503Y-125237236D01*
X183851503Y-125237236D02*
X183813407Y-125313427D01*
X183813407Y-125313427D02*
X183813407Y-125465808D01*
X183813407Y-125465808D02*
X183851503Y-125541998D01*
X183851503Y-125541998D02*
X183889598Y-125580094D01*
X183889598Y-125580094D02*
X183965788Y-125618189D01*
X183965788Y-125618189D02*
X184118169Y-125618189D01*
X184118169Y-125618189D02*
X184194360Y-125580094D01*
X184194360Y-125580094D02*
X184232455Y-125541998D01*
X184232455Y-125541998D02*
X184270550Y-125465808D01*
X184270550Y-125465808D02*
X184270550Y-125313427D01*
X184270550Y-125313427D02*
X184232455Y-125237236D01*
X184232455Y-125237236D02*
X184194360Y-125199141D01*
X184194360Y-125199141D02*
X184118169Y-125161046D01*
X182289597Y-123078188D02*
X182289597Y-122278188D01*
X182289597Y-122278188D02*
X182594359Y-122278188D01*
X182594359Y-122278188D02*
X182670549Y-122316283D01*
X182670549Y-122316283D02*
X182708644Y-122354378D01*
X182708644Y-122354378D02*
X182746740Y-122430569D01*
X182746740Y-122430569D02*
X182746740Y-122544854D01*
X182746740Y-122544854D02*
X182708644Y-122621045D01*
X182708644Y-122621045D02*
X182670549Y-122659140D01*
X182670549Y-122659140D02*
X182594359Y-122697235D01*
X182594359Y-122697235D02*
X182289597Y-122697235D01*
X183508644Y-123078188D02*
X183051501Y-123078188D01*
X183280073Y-123078188D02*
X183280073Y-122278188D01*
X183280073Y-122278188D02*
X183203882Y-122392473D01*
X183203882Y-122392473D02*
X183127692Y-122468664D01*
X183127692Y-122468664D02*
X183051501Y-122506759D01*
X183889597Y-123078188D02*
X184041978Y-123078188D01*
X184041978Y-123078188D02*
X184118168Y-123040093D01*
X184118168Y-123040093D02*
X184156264Y-123001997D01*
X184156264Y-123001997D02*
X184232454Y-122887712D01*
X184232454Y-122887712D02*
X184270549Y-122735331D01*
X184270549Y-122735331D02*
X184270549Y-122430569D01*
X184270549Y-122430569D02*
X184232454Y-122354378D01*
X184232454Y-122354378D02*
X184194359Y-122316283D01*
X184194359Y-122316283D02*
X184118168Y-122278188D01*
X184118168Y-122278188D02*
X183965787Y-122278188D01*
X183965787Y-122278188D02*
X183889597Y-122316283D01*
X183889597Y-122316283D02*
X183851502Y-122354378D01*
X183851502Y-122354378D02*
X183813406Y-122430569D01*
X183813406Y-122430569D02*
X183813406Y-122621045D01*
X183813406Y-122621045D02*
X183851502Y-122697235D01*
X183851502Y-122697235D02*
X183889597Y-122735331D01*
X183889597Y-122735331D02*
X183965787Y-122773426D01*
X183965787Y-122773426D02*
X184118168Y-122773426D01*
X184118168Y-122773426D02*
X184194359Y-122735331D01*
X184194359Y-122735331D02*
X184232454Y-122697235D01*
X184232454Y-122697235D02*
X184270549Y-122621045D01*
X182289597Y-120538186D02*
X182289597Y-119738186D01*
X182289597Y-119738186D02*
X182594359Y-119738186D01*
X182594359Y-119738186D02*
X182670549Y-119776281D01*
X182670549Y-119776281D02*
X182708644Y-119814376D01*
X182708644Y-119814376D02*
X182746740Y-119890567D01*
X182746740Y-119890567D02*
X182746740Y-120004852D01*
X182746740Y-120004852D02*
X182708644Y-120081043D01*
X182708644Y-120081043D02*
X182670549Y-120119138D01*
X182670549Y-120119138D02*
X182594359Y-120157233D01*
X182594359Y-120157233D02*
X182289597Y-120157233D01*
X183051501Y-119814376D02*
X183089597Y-119776281D01*
X183089597Y-119776281D02*
X183165787Y-119738186D01*
X183165787Y-119738186D02*
X183356263Y-119738186D01*
X183356263Y-119738186D02*
X183432454Y-119776281D01*
X183432454Y-119776281D02*
X183470549Y-119814376D01*
X183470549Y-119814376D02*
X183508644Y-119890567D01*
X183508644Y-119890567D02*
X183508644Y-119966757D01*
X183508644Y-119966757D02*
X183470549Y-120081043D01*
X183470549Y-120081043D02*
X183013406Y-120538186D01*
X183013406Y-120538186D02*
X183508644Y-120538186D01*
X184003883Y-119738186D02*
X184080073Y-119738186D01*
X184080073Y-119738186D02*
X184156264Y-119776281D01*
X184156264Y-119776281D02*
X184194359Y-119814376D01*
X184194359Y-119814376D02*
X184232454Y-119890567D01*
X184232454Y-119890567D02*
X184270549Y-120042948D01*
X184270549Y-120042948D02*
X184270549Y-120233424D01*
X184270549Y-120233424D02*
X184232454Y-120385805D01*
X184232454Y-120385805D02*
X184194359Y-120461995D01*
X184194359Y-120461995D02*
X184156264Y-120500091D01*
X184156264Y-120500091D02*
X184080073Y-120538186D01*
X184080073Y-120538186D02*
X184003883Y-120538186D01*
X184003883Y-120538186D02*
X183927692Y-120500091D01*
X183927692Y-120500091D02*
X183889597Y-120461995D01*
X183889597Y-120461995D02*
X183851502Y-120385805D01*
X183851502Y-120385805D02*
X183813406Y-120233424D01*
X183813406Y-120233424D02*
X183813406Y-120042948D01*
X183813406Y-120042948D02*
X183851502Y-119890567D01*
X183851502Y-119890567D02*
X183889597Y-119814376D01*
X183889597Y-119814376D02*
X183927692Y-119776281D01*
X183927692Y-119776281D02*
X184003883Y-119738186D01*
X182289598Y-117998189D02*
X182289598Y-117198189D01*
X182289598Y-117198189D02*
X182594360Y-117198189D01*
X182594360Y-117198189D02*
X182670550Y-117236284D01*
X182670550Y-117236284D02*
X182708645Y-117274379D01*
X182708645Y-117274379D02*
X182746741Y-117350570D01*
X182746741Y-117350570D02*
X182746741Y-117464855D01*
X182746741Y-117464855D02*
X182708645Y-117541046D01*
X182708645Y-117541046D02*
X182670550Y-117579141D01*
X182670550Y-117579141D02*
X182594360Y-117617236D01*
X182594360Y-117617236D02*
X182289598Y-117617236D01*
X183051502Y-117274379D02*
X183089598Y-117236284D01*
X183089598Y-117236284D02*
X183165788Y-117198189D01*
X183165788Y-117198189D02*
X183356264Y-117198189D01*
X183356264Y-117198189D02*
X183432455Y-117236284D01*
X183432455Y-117236284D02*
X183470550Y-117274379D01*
X183470550Y-117274379D02*
X183508645Y-117350570D01*
X183508645Y-117350570D02*
X183508645Y-117426760D01*
X183508645Y-117426760D02*
X183470550Y-117541046D01*
X183470550Y-117541046D02*
X183013407Y-117998189D01*
X183013407Y-117998189D02*
X183508645Y-117998189D01*
X184270550Y-117998189D02*
X183813407Y-117998189D01*
X184041979Y-117998189D02*
X184041979Y-117198189D01*
X184041979Y-117198189D02*
X183965788Y-117312474D01*
X183965788Y-117312474D02*
X183889598Y-117388665D01*
X183889598Y-117388665D02*
X183813407Y-117426760D01*
X182194362Y-114658189D02*
X182461029Y-115458189D01*
X182461029Y-115458189D02*
X182727695Y-114658189D01*
X183451505Y-115381998D02*
X183413409Y-115420094D01*
X183413409Y-115420094D02*
X183299124Y-115458189D01*
X183299124Y-115458189D02*
X183222933Y-115458189D01*
X183222933Y-115458189D02*
X183108647Y-115420094D01*
X183108647Y-115420094D02*
X183032457Y-115343903D01*
X183032457Y-115343903D02*
X182994362Y-115267713D01*
X182994362Y-115267713D02*
X182956266Y-115115332D01*
X182956266Y-115115332D02*
X182956266Y-115001046D01*
X182956266Y-115001046D02*
X182994362Y-114848665D01*
X182994362Y-114848665D02*
X183032457Y-114772474D01*
X183032457Y-114772474D02*
X183108647Y-114696284D01*
X183108647Y-114696284D02*
X183222933Y-114658189D01*
X183222933Y-114658189D02*
X183299124Y-114658189D01*
X183299124Y-114658189D02*
X183413409Y-114696284D01*
X183413409Y-114696284D02*
X183451505Y-114734379D01*
X184251505Y-115381998D02*
X184213409Y-115420094D01*
X184213409Y-115420094D02*
X184099124Y-115458189D01*
X184099124Y-115458189D02*
X184022933Y-115458189D01*
X184022933Y-115458189D02*
X183908647Y-115420094D01*
X183908647Y-115420094D02*
X183832457Y-115343903D01*
X183832457Y-115343903D02*
X183794362Y-115267713D01*
X183794362Y-115267713D02*
X183756266Y-115115332D01*
X183756266Y-115115332D02*
X183756266Y-115001046D01*
X183756266Y-115001046D02*
X183794362Y-114848665D01*
X183794362Y-114848665D02*
X183832457Y-114772474D01*
X183832457Y-114772474D02*
X183908647Y-114696284D01*
X183908647Y-114696284D02*
X184022933Y-114658189D01*
X184022933Y-114658189D02*
X184099124Y-114658189D01*
X184099124Y-114658189D02*
X184213409Y-114696284D01*
X184213409Y-114696284D02*
X184251505Y-114734379D01*
X182822930Y-112918189D02*
X182556263Y-112537236D01*
X182365787Y-112918189D02*
X182365787Y-112118189D01*
X182365787Y-112118189D02*
X182670549Y-112118189D01*
X182670549Y-112118189D02*
X182746739Y-112156284D01*
X182746739Y-112156284D02*
X182784834Y-112194379D01*
X182784834Y-112194379D02*
X182822930Y-112270570D01*
X182822930Y-112270570D02*
X182822930Y-112384855D01*
X182822930Y-112384855D02*
X182784834Y-112461046D01*
X182784834Y-112461046D02*
X182746739Y-112499141D01*
X182746739Y-112499141D02*
X182670549Y-112537236D01*
X182670549Y-112537236D02*
X182365787Y-112537236D01*
X183127691Y-112880094D02*
X183241977Y-112918189D01*
X183241977Y-112918189D02*
X183432453Y-112918189D01*
X183432453Y-112918189D02*
X183508644Y-112880094D01*
X183508644Y-112880094D02*
X183546739Y-112841998D01*
X183546739Y-112841998D02*
X183584834Y-112765808D01*
X183584834Y-112765808D02*
X183584834Y-112689617D01*
X183584834Y-112689617D02*
X183546739Y-112613427D01*
X183546739Y-112613427D02*
X183508644Y-112575332D01*
X183508644Y-112575332D02*
X183432453Y-112537236D01*
X183432453Y-112537236D02*
X183280072Y-112499141D01*
X183280072Y-112499141D02*
X183203882Y-112461046D01*
X183203882Y-112461046D02*
X183165787Y-112422951D01*
X183165787Y-112422951D02*
X183127691Y-112346760D01*
X183127691Y-112346760D02*
X183127691Y-112270570D01*
X183127691Y-112270570D02*
X183165787Y-112194379D01*
X183165787Y-112194379D02*
X183203882Y-112156284D01*
X183203882Y-112156284D02*
X183280072Y-112118189D01*
X183280072Y-112118189D02*
X183470549Y-112118189D01*
X183470549Y-112118189D02*
X183584834Y-112156284D01*
X183813406Y-112118189D02*
X184270549Y-112118189D01*
X184041977Y-112918189D02*
X184041977Y-112118189D01*
X182651504Y-109616282D02*
X182575314Y-109578187D01*
X182575314Y-109578187D02*
X182461028Y-109578187D01*
X182461028Y-109578187D02*
X182346742Y-109616282D01*
X182346742Y-109616282D02*
X182270552Y-109692472D01*
X182270552Y-109692472D02*
X182232457Y-109768663D01*
X182232457Y-109768663D02*
X182194361Y-109921044D01*
X182194361Y-109921044D02*
X182194361Y-110035330D01*
X182194361Y-110035330D02*
X182232457Y-110187711D01*
X182232457Y-110187711D02*
X182270552Y-110263901D01*
X182270552Y-110263901D02*
X182346742Y-110340092D01*
X182346742Y-110340092D02*
X182461028Y-110378187D01*
X182461028Y-110378187D02*
X182537219Y-110378187D01*
X182537219Y-110378187D02*
X182651504Y-110340092D01*
X182651504Y-110340092D02*
X182689600Y-110301996D01*
X182689600Y-110301996D02*
X182689600Y-110035330D01*
X182689600Y-110035330D02*
X182537219Y-110035330D01*
X183032457Y-110378187D02*
X183032457Y-109578187D01*
X183032457Y-109578187D02*
X183489600Y-110378187D01*
X183489600Y-110378187D02*
X183489600Y-109578187D01*
X183870552Y-110378187D02*
X183870552Y-109578187D01*
X183870552Y-109578187D02*
X184061028Y-109578187D01*
X184061028Y-109578187D02*
X184175314Y-109616282D01*
X184175314Y-109616282D02*
X184251504Y-109692472D01*
X184251504Y-109692472D02*
X184289599Y-109768663D01*
X184289599Y-109768663D02*
X184327695Y-109921044D01*
X184327695Y-109921044D02*
X184327695Y-110035330D01*
X184327695Y-110035330D02*
X184289599Y-110187711D01*
X184289599Y-110187711D02*
X184251504Y-110263901D01*
X184251504Y-110263901D02*
X184175314Y-110340092D01*
X184175314Y-110340092D02*
X184061028Y-110378187D01*
X184061028Y-110378187D02*
X183870552Y-110378187D01*
X191889599Y-135778190D02*
X191889599Y-134978190D01*
X191889599Y-134978190D02*
X192194361Y-134978190D01*
X192194361Y-134978190D02*
X192270551Y-135016285D01*
X192270551Y-135016285D02*
X192308646Y-135054380D01*
X192308646Y-135054380D02*
X192346742Y-135130571D01*
X192346742Y-135130571D02*
X192346742Y-135244856D01*
X192346742Y-135244856D02*
X192308646Y-135321047D01*
X192308646Y-135321047D02*
X192270551Y-135359142D01*
X192270551Y-135359142D02*
X192194361Y-135397237D01*
X192194361Y-135397237D02*
X191889599Y-135397237D01*
X192841980Y-134978190D02*
X192918170Y-134978190D01*
X192918170Y-134978190D02*
X192994361Y-135016285D01*
X192994361Y-135016285D02*
X193032456Y-135054380D01*
X193032456Y-135054380D02*
X193070551Y-135130571D01*
X193070551Y-135130571D02*
X193108646Y-135282952D01*
X193108646Y-135282952D02*
X193108646Y-135473428D01*
X193108646Y-135473428D02*
X193070551Y-135625809D01*
X193070551Y-135625809D02*
X193032456Y-135701999D01*
X193032456Y-135701999D02*
X192994361Y-135740095D01*
X192994361Y-135740095D02*
X192918170Y-135778190D01*
X192918170Y-135778190D02*
X192841980Y-135778190D01*
X192841980Y-135778190D02*
X192765789Y-135740095D01*
X192765789Y-135740095D02*
X192727694Y-135701999D01*
X192727694Y-135701999D02*
X192689599Y-135625809D01*
X192689599Y-135625809D02*
X192651503Y-135473428D01*
X192651503Y-135473428D02*
X192651503Y-135282952D01*
X192651503Y-135282952D02*
X192689599Y-135130571D01*
X192689599Y-135130571D02*
X192727694Y-135054380D01*
X192727694Y-135054380D02*
X192765789Y-135016285D01*
X192765789Y-135016285D02*
X192841980Y-134978190D01*
X193489599Y-135778190D02*
X193641980Y-135778190D01*
X193641980Y-135778190D02*
X193718170Y-135740095D01*
X193718170Y-135740095D02*
X193756266Y-135701999D01*
X193756266Y-135701999D02*
X193832456Y-135587714D01*
X193832456Y-135587714D02*
X193870551Y-135435333D01*
X193870551Y-135435333D02*
X193870551Y-135130571D01*
X193870551Y-135130571D02*
X193832456Y-135054380D01*
X193832456Y-135054380D02*
X193794361Y-135016285D01*
X193794361Y-135016285D02*
X193718170Y-134978190D01*
X193718170Y-134978190D02*
X193565789Y-134978190D01*
X193565789Y-134978190D02*
X193489599Y-135016285D01*
X193489599Y-135016285D02*
X193451504Y-135054380D01*
X193451504Y-135054380D02*
X193413408Y-135130571D01*
X193413408Y-135130571D02*
X193413408Y-135321047D01*
X193413408Y-135321047D02*
X193451504Y-135397237D01*
X193451504Y-135397237D02*
X193489599Y-135435333D01*
X193489599Y-135435333D02*
X193565789Y-135473428D01*
X193565789Y-135473428D02*
X193718170Y-135473428D01*
X193718170Y-135473428D02*
X193794361Y-135435333D01*
X193794361Y-135435333D02*
X193832456Y-135397237D01*
X193832456Y-135397237D02*
X193870551Y-135321047D01*
X182708645Y-107838188D02*
X182441978Y-107457235D01*
X182251502Y-107838188D02*
X182251502Y-107038188D01*
X182251502Y-107038188D02*
X182556264Y-107038188D01*
X182556264Y-107038188D02*
X182632454Y-107076283D01*
X182632454Y-107076283D02*
X182670549Y-107114378D01*
X182670549Y-107114378D02*
X182708645Y-107190569D01*
X182708645Y-107190569D02*
X182708645Y-107304854D01*
X182708645Y-107304854D02*
X182670549Y-107381045D01*
X182670549Y-107381045D02*
X182632454Y-107419140D01*
X182632454Y-107419140D02*
X182556264Y-107457235D01*
X182556264Y-107457235D02*
X182251502Y-107457235D01*
X183013406Y-107609616D02*
X183394359Y-107609616D01*
X182937216Y-107838188D02*
X183203883Y-107038188D01*
X183203883Y-107038188D02*
X183470549Y-107838188D01*
X183661025Y-107038188D02*
X183851501Y-107838188D01*
X183851501Y-107838188D02*
X184003882Y-107266759D01*
X184003882Y-107266759D02*
X184156263Y-107838188D01*
X184156263Y-107838188D02*
X184346740Y-107038188D01*
X191889597Y-133238191D02*
X191889597Y-132438191D01*
X191889597Y-132438191D02*
X192194359Y-132438191D01*
X192194359Y-132438191D02*
X192270549Y-132476286D01*
X192270549Y-132476286D02*
X192308644Y-132514381D01*
X192308644Y-132514381D02*
X192346740Y-132590572D01*
X192346740Y-132590572D02*
X192346740Y-132704857D01*
X192346740Y-132704857D02*
X192308644Y-132781048D01*
X192308644Y-132781048D02*
X192270549Y-132819143D01*
X192270549Y-132819143D02*
X192194359Y-132857238D01*
X192194359Y-132857238D02*
X191889597Y-132857238D01*
X192841978Y-132438191D02*
X192918168Y-132438191D01*
X192918168Y-132438191D02*
X192994359Y-132476286D01*
X192994359Y-132476286D02*
X193032454Y-132514381D01*
X193032454Y-132514381D02*
X193070549Y-132590572D01*
X193070549Y-132590572D02*
X193108644Y-132742953D01*
X193108644Y-132742953D02*
X193108644Y-132933429D01*
X193108644Y-132933429D02*
X193070549Y-133085810D01*
X193070549Y-133085810D02*
X193032454Y-133162000D01*
X193032454Y-133162000D02*
X192994359Y-133200096D01*
X192994359Y-133200096D02*
X192918168Y-133238191D01*
X192918168Y-133238191D02*
X192841978Y-133238191D01*
X192841978Y-133238191D02*
X192765787Y-133200096D01*
X192765787Y-133200096D02*
X192727692Y-133162000D01*
X192727692Y-133162000D02*
X192689597Y-133085810D01*
X192689597Y-133085810D02*
X192651501Y-132933429D01*
X192651501Y-132933429D02*
X192651501Y-132742953D01*
X192651501Y-132742953D02*
X192689597Y-132590572D01*
X192689597Y-132590572D02*
X192727692Y-132514381D01*
X192727692Y-132514381D02*
X192765787Y-132476286D01*
X192765787Y-132476286D02*
X192841978Y-132438191D01*
X193565787Y-132781048D02*
X193489597Y-132742953D01*
X193489597Y-132742953D02*
X193451502Y-132704857D01*
X193451502Y-132704857D02*
X193413406Y-132628667D01*
X193413406Y-132628667D02*
X193413406Y-132590572D01*
X193413406Y-132590572D02*
X193451502Y-132514381D01*
X193451502Y-132514381D02*
X193489597Y-132476286D01*
X193489597Y-132476286D02*
X193565787Y-132438191D01*
X193565787Y-132438191D02*
X193718168Y-132438191D01*
X193718168Y-132438191D02*
X193794359Y-132476286D01*
X193794359Y-132476286D02*
X193832454Y-132514381D01*
X193832454Y-132514381D02*
X193870549Y-132590572D01*
X193870549Y-132590572D02*
X193870549Y-132628667D01*
X193870549Y-132628667D02*
X193832454Y-132704857D01*
X193832454Y-132704857D02*
X193794359Y-132742953D01*
X193794359Y-132742953D02*
X193718168Y-132781048D01*
X193718168Y-132781048D02*
X193565787Y-132781048D01*
X193565787Y-132781048D02*
X193489597Y-132819143D01*
X193489597Y-132819143D02*
X193451502Y-132857238D01*
X193451502Y-132857238D02*
X193413406Y-132933429D01*
X193413406Y-132933429D02*
X193413406Y-133085810D01*
X193413406Y-133085810D02*
X193451502Y-133162000D01*
X193451502Y-133162000D02*
X193489597Y-133200096D01*
X193489597Y-133200096D02*
X193565787Y-133238191D01*
X193565787Y-133238191D02*
X193718168Y-133238191D01*
X193718168Y-133238191D02*
X193794359Y-133200096D01*
X193794359Y-133200096D02*
X193832454Y-133162000D01*
X193832454Y-133162000D02*
X193870549Y-133085810D01*
X193870549Y-133085810D02*
X193870549Y-132933429D01*
X193870549Y-132933429D02*
X193832454Y-132857238D01*
X193832454Y-132857238D02*
X193794359Y-132819143D01*
X193794359Y-132819143D02*
X193718168Y-132781048D01*
X191889600Y-130698189D02*
X191889600Y-129898189D01*
X191889600Y-129898189D02*
X192194362Y-129898189D01*
X192194362Y-129898189D02*
X192270552Y-129936284D01*
X192270552Y-129936284D02*
X192308647Y-129974379D01*
X192308647Y-129974379D02*
X192346743Y-130050570D01*
X192346743Y-130050570D02*
X192346743Y-130164855D01*
X192346743Y-130164855D02*
X192308647Y-130241046D01*
X192308647Y-130241046D02*
X192270552Y-130279141D01*
X192270552Y-130279141D02*
X192194362Y-130317236D01*
X192194362Y-130317236D02*
X191889600Y-130317236D01*
X192841981Y-129898189D02*
X192918171Y-129898189D01*
X192918171Y-129898189D02*
X192994362Y-129936284D01*
X192994362Y-129936284D02*
X193032457Y-129974379D01*
X193032457Y-129974379D02*
X193070552Y-130050570D01*
X193070552Y-130050570D02*
X193108647Y-130202951D01*
X193108647Y-130202951D02*
X193108647Y-130393427D01*
X193108647Y-130393427D02*
X193070552Y-130545808D01*
X193070552Y-130545808D02*
X193032457Y-130621998D01*
X193032457Y-130621998D02*
X192994362Y-130660094D01*
X192994362Y-130660094D02*
X192918171Y-130698189D01*
X192918171Y-130698189D02*
X192841981Y-130698189D01*
X192841981Y-130698189D02*
X192765790Y-130660094D01*
X192765790Y-130660094D02*
X192727695Y-130621998D01*
X192727695Y-130621998D02*
X192689600Y-130545808D01*
X192689600Y-130545808D02*
X192651504Y-130393427D01*
X192651504Y-130393427D02*
X192651504Y-130202951D01*
X192651504Y-130202951D02*
X192689600Y-130050570D01*
X192689600Y-130050570D02*
X192727695Y-129974379D01*
X192727695Y-129974379D02*
X192765790Y-129936284D01*
X192765790Y-129936284D02*
X192841981Y-129898189D01*
X193375314Y-129898189D02*
X193908648Y-129898189D01*
X193908648Y-129898189D02*
X193565790Y-130698189D01*
X191889596Y-128158189D02*
X191889596Y-127358189D01*
X191889596Y-127358189D02*
X192194358Y-127358189D01*
X192194358Y-127358189D02*
X192270548Y-127396284D01*
X192270548Y-127396284D02*
X192308643Y-127434379D01*
X192308643Y-127434379D02*
X192346739Y-127510570D01*
X192346739Y-127510570D02*
X192346739Y-127624855D01*
X192346739Y-127624855D02*
X192308643Y-127701046D01*
X192308643Y-127701046D02*
X192270548Y-127739141D01*
X192270548Y-127739141D02*
X192194358Y-127777236D01*
X192194358Y-127777236D02*
X191889596Y-127777236D01*
X192841977Y-127358189D02*
X192918167Y-127358189D01*
X192918167Y-127358189D02*
X192994358Y-127396284D01*
X192994358Y-127396284D02*
X193032453Y-127434379D01*
X193032453Y-127434379D02*
X193070548Y-127510570D01*
X193070548Y-127510570D02*
X193108643Y-127662951D01*
X193108643Y-127662951D02*
X193108643Y-127853427D01*
X193108643Y-127853427D02*
X193070548Y-128005808D01*
X193070548Y-128005808D02*
X193032453Y-128081998D01*
X193032453Y-128081998D02*
X192994358Y-128120094D01*
X192994358Y-128120094D02*
X192918167Y-128158189D01*
X192918167Y-128158189D02*
X192841977Y-128158189D01*
X192841977Y-128158189D02*
X192765786Y-128120094D01*
X192765786Y-128120094D02*
X192727691Y-128081998D01*
X192727691Y-128081998D02*
X192689596Y-128005808D01*
X192689596Y-128005808D02*
X192651500Y-127853427D01*
X192651500Y-127853427D02*
X192651500Y-127662951D01*
X192651500Y-127662951D02*
X192689596Y-127510570D01*
X192689596Y-127510570D02*
X192727691Y-127434379D01*
X192727691Y-127434379D02*
X192765786Y-127396284D01*
X192765786Y-127396284D02*
X192841977Y-127358189D01*
X193794358Y-127358189D02*
X193641977Y-127358189D01*
X193641977Y-127358189D02*
X193565786Y-127396284D01*
X193565786Y-127396284D02*
X193527691Y-127434379D01*
X193527691Y-127434379D02*
X193451501Y-127548665D01*
X193451501Y-127548665D02*
X193413405Y-127701046D01*
X193413405Y-127701046D02*
X193413405Y-128005808D01*
X193413405Y-128005808D02*
X193451501Y-128081998D01*
X193451501Y-128081998D02*
X193489596Y-128120094D01*
X193489596Y-128120094D02*
X193565786Y-128158189D01*
X193565786Y-128158189D02*
X193718167Y-128158189D01*
X193718167Y-128158189D02*
X193794358Y-128120094D01*
X193794358Y-128120094D02*
X193832453Y-128081998D01*
X193832453Y-128081998D02*
X193870548Y-128005808D01*
X193870548Y-128005808D02*
X193870548Y-127815332D01*
X193870548Y-127815332D02*
X193832453Y-127739141D01*
X193832453Y-127739141D02*
X193794358Y-127701046D01*
X193794358Y-127701046D02*
X193718167Y-127662951D01*
X193718167Y-127662951D02*
X193565786Y-127662951D01*
X193565786Y-127662951D02*
X193489596Y-127701046D01*
X193489596Y-127701046D02*
X193451501Y-127739141D01*
X193451501Y-127739141D02*
X193413405Y-127815332D01*
X191889598Y-125618189D02*
X191889598Y-124818189D01*
X191889598Y-124818189D02*
X192194360Y-124818189D01*
X192194360Y-124818189D02*
X192270550Y-124856284D01*
X192270550Y-124856284D02*
X192308645Y-124894379D01*
X192308645Y-124894379D02*
X192346741Y-124970570D01*
X192346741Y-124970570D02*
X192346741Y-125084855D01*
X192346741Y-125084855D02*
X192308645Y-125161046D01*
X192308645Y-125161046D02*
X192270550Y-125199141D01*
X192270550Y-125199141D02*
X192194360Y-125237236D01*
X192194360Y-125237236D02*
X191889598Y-125237236D01*
X192841979Y-124818189D02*
X192918169Y-124818189D01*
X192918169Y-124818189D02*
X192994360Y-124856284D01*
X192994360Y-124856284D02*
X193032455Y-124894379D01*
X193032455Y-124894379D02*
X193070550Y-124970570D01*
X193070550Y-124970570D02*
X193108645Y-125122951D01*
X193108645Y-125122951D02*
X193108645Y-125313427D01*
X193108645Y-125313427D02*
X193070550Y-125465808D01*
X193070550Y-125465808D02*
X193032455Y-125541998D01*
X193032455Y-125541998D02*
X192994360Y-125580094D01*
X192994360Y-125580094D02*
X192918169Y-125618189D01*
X192918169Y-125618189D02*
X192841979Y-125618189D01*
X192841979Y-125618189D02*
X192765788Y-125580094D01*
X192765788Y-125580094D02*
X192727693Y-125541998D01*
X192727693Y-125541998D02*
X192689598Y-125465808D01*
X192689598Y-125465808D02*
X192651502Y-125313427D01*
X192651502Y-125313427D02*
X192651502Y-125122951D01*
X192651502Y-125122951D02*
X192689598Y-124970570D01*
X192689598Y-124970570D02*
X192727693Y-124894379D01*
X192727693Y-124894379D02*
X192765788Y-124856284D01*
X192765788Y-124856284D02*
X192841979Y-124818189D01*
X193832455Y-124818189D02*
X193451503Y-124818189D01*
X193451503Y-124818189D02*
X193413407Y-125199141D01*
X193413407Y-125199141D02*
X193451503Y-125161046D01*
X193451503Y-125161046D02*
X193527693Y-125122951D01*
X193527693Y-125122951D02*
X193718169Y-125122951D01*
X193718169Y-125122951D02*
X193794360Y-125161046D01*
X193794360Y-125161046D02*
X193832455Y-125199141D01*
X193832455Y-125199141D02*
X193870550Y-125275332D01*
X193870550Y-125275332D02*
X193870550Y-125465808D01*
X193870550Y-125465808D02*
X193832455Y-125541998D01*
X193832455Y-125541998D02*
X193794360Y-125580094D01*
X193794360Y-125580094D02*
X193718169Y-125618189D01*
X193718169Y-125618189D02*
X193527693Y-125618189D01*
X193527693Y-125618189D02*
X193451503Y-125580094D01*
X193451503Y-125580094D02*
X193413407Y-125541998D01*
X191889599Y-123078192D02*
X191889599Y-122278192D01*
X191889599Y-122278192D02*
X192194361Y-122278192D01*
X192194361Y-122278192D02*
X192270551Y-122316287D01*
X192270551Y-122316287D02*
X192308646Y-122354382D01*
X192308646Y-122354382D02*
X192346742Y-122430573D01*
X192346742Y-122430573D02*
X192346742Y-122544858D01*
X192346742Y-122544858D02*
X192308646Y-122621049D01*
X192308646Y-122621049D02*
X192270551Y-122659144D01*
X192270551Y-122659144D02*
X192194361Y-122697239D01*
X192194361Y-122697239D02*
X191889599Y-122697239D01*
X192841980Y-122278192D02*
X192918170Y-122278192D01*
X192918170Y-122278192D02*
X192994361Y-122316287D01*
X192994361Y-122316287D02*
X193032456Y-122354382D01*
X193032456Y-122354382D02*
X193070551Y-122430573D01*
X193070551Y-122430573D02*
X193108646Y-122582954D01*
X193108646Y-122582954D02*
X193108646Y-122773430D01*
X193108646Y-122773430D02*
X193070551Y-122925811D01*
X193070551Y-122925811D02*
X193032456Y-123002001D01*
X193032456Y-123002001D02*
X192994361Y-123040097D01*
X192994361Y-123040097D02*
X192918170Y-123078192D01*
X192918170Y-123078192D02*
X192841980Y-123078192D01*
X192841980Y-123078192D02*
X192765789Y-123040097D01*
X192765789Y-123040097D02*
X192727694Y-123002001D01*
X192727694Y-123002001D02*
X192689599Y-122925811D01*
X192689599Y-122925811D02*
X192651503Y-122773430D01*
X192651503Y-122773430D02*
X192651503Y-122582954D01*
X192651503Y-122582954D02*
X192689599Y-122430573D01*
X192689599Y-122430573D02*
X192727694Y-122354382D01*
X192727694Y-122354382D02*
X192765789Y-122316287D01*
X192765789Y-122316287D02*
X192841980Y-122278192D01*
X193794361Y-122544858D02*
X193794361Y-123078192D01*
X193603885Y-122240097D02*
X193413408Y-122811525D01*
X193413408Y-122811525D02*
X193908647Y-122811525D01*
X191889599Y-120538190D02*
X191889599Y-119738190D01*
X191889599Y-119738190D02*
X192194361Y-119738190D01*
X192194361Y-119738190D02*
X192270551Y-119776285D01*
X192270551Y-119776285D02*
X192308646Y-119814380D01*
X192308646Y-119814380D02*
X192346742Y-119890571D01*
X192346742Y-119890571D02*
X192346742Y-120004856D01*
X192346742Y-120004856D02*
X192308646Y-120081047D01*
X192308646Y-120081047D02*
X192270551Y-120119142D01*
X192270551Y-120119142D02*
X192194361Y-120157237D01*
X192194361Y-120157237D02*
X191889599Y-120157237D01*
X192841980Y-119738190D02*
X192918170Y-119738190D01*
X192918170Y-119738190D02*
X192994361Y-119776285D01*
X192994361Y-119776285D02*
X193032456Y-119814380D01*
X193032456Y-119814380D02*
X193070551Y-119890571D01*
X193070551Y-119890571D02*
X193108646Y-120042952D01*
X193108646Y-120042952D02*
X193108646Y-120233428D01*
X193108646Y-120233428D02*
X193070551Y-120385809D01*
X193070551Y-120385809D02*
X193032456Y-120461999D01*
X193032456Y-120461999D02*
X192994361Y-120500095D01*
X192994361Y-120500095D02*
X192918170Y-120538190D01*
X192918170Y-120538190D02*
X192841980Y-120538190D01*
X192841980Y-120538190D02*
X192765789Y-120500095D01*
X192765789Y-120500095D02*
X192727694Y-120461999D01*
X192727694Y-120461999D02*
X192689599Y-120385809D01*
X192689599Y-120385809D02*
X192651503Y-120233428D01*
X192651503Y-120233428D02*
X192651503Y-120042952D01*
X192651503Y-120042952D02*
X192689599Y-119890571D01*
X192689599Y-119890571D02*
X192727694Y-119814380D01*
X192727694Y-119814380D02*
X192765789Y-119776285D01*
X192765789Y-119776285D02*
X192841980Y-119738190D01*
X193375313Y-119738190D02*
X193870551Y-119738190D01*
X193870551Y-119738190D02*
X193603885Y-120042952D01*
X193603885Y-120042952D02*
X193718170Y-120042952D01*
X193718170Y-120042952D02*
X193794361Y-120081047D01*
X193794361Y-120081047D02*
X193832456Y-120119142D01*
X193832456Y-120119142D02*
X193870551Y-120195333D01*
X193870551Y-120195333D02*
X193870551Y-120385809D01*
X193870551Y-120385809D02*
X193832456Y-120461999D01*
X193832456Y-120461999D02*
X193794361Y-120500095D01*
X193794361Y-120500095D02*
X193718170Y-120538190D01*
X193718170Y-120538190D02*
X193489599Y-120538190D01*
X193489599Y-120538190D02*
X193413408Y-120500095D01*
X193413408Y-120500095D02*
X193375313Y-120461999D01*
X191889598Y-117998189D02*
X191889598Y-117198189D01*
X191889598Y-117198189D02*
X192194360Y-117198189D01*
X192194360Y-117198189D02*
X192270550Y-117236284D01*
X192270550Y-117236284D02*
X192308645Y-117274379D01*
X192308645Y-117274379D02*
X192346741Y-117350570D01*
X192346741Y-117350570D02*
X192346741Y-117464855D01*
X192346741Y-117464855D02*
X192308645Y-117541046D01*
X192308645Y-117541046D02*
X192270550Y-117579141D01*
X192270550Y-117579141D02*
X192194360Y-117617236D01*
X192194360Y-117617236D02*
X191889598Y-117617236D01*
X192841979Y-117198189D02*
X192918169Y-117198189D01*
X192918169Y-117198189D02*
X192994360Y-117236284D01*
X192994360Y-117236284D02*
X193032455Y-117274379D01*
X193032455Y-117274379D02*
X193070550Y-117350570D01*
X193070550Y-117350570D02*
X193108645Y-117502951D01*
X193108645Y-117502951D02*
X193108645Y-117693427D01*
X193108645Y-117693427D02*
X193070550Y-117845808D01*
X193070550Y-117845808D02*
X193032455Y-117921998D01*
X193032455Y-117921998D02*
X192994360Y-117960094D01*
X192994360Y-117960094D02*
X192918169Y-117998189D01*
X192918169Y-117998189D02*
X192841979Y-117998189D01*
X192841979Y-117998189D02*
X192765788Y-117960094D01*
X192765788Y-117960094D02*
X192727693Y-117921998D01*
X192727693Y-117921998D02*
X192689598Y-117845808D01*
X192689598Y-117845808D02*
X192651502Y-117693427D01*
X192651502Y-117693427D02*
X192651502Y-117502951D01*
X192651502Y-117502951D02*
X192689598Y-117350570D01*
X192689598Y-117350570D02*
X192727693Y-117274379D01*
X192727693Y-117274379D02*
X192765788Y-117236284D01*
X192765788Y-117236284D02*
X192841979Y-117198189D01*
X193413407Y-117274379D02*
X193451503Y-117236284D01*
X193451503Y-117236284D02*
X193527693Y-117198189D01*
X193527693Y-117198189D02*
X193718169Y-117198189D01*
X193718169Y-117198189D02*
X193794360Y-117236284D01*
X193794360Y-117236284D02*
X193832455Y-117274379D01*
X193832455Y-117274379D02*
X193870550Y-117350570D01*
X193870550Y-117350570D02*
X193870550Y-117426760D01*
X193870550Y-117426760D02*
X193832455Y-117541046D01*
X193832455Y-117541046D02*
X193375312Y-117998189D01*
X193375312Y-117998189D02*
X193870550Y-117998189D01*
X192251500Y-114696284D02*
X192175310Y-114658189D01*
X192175310Y-114658189D02*
X192061024Y-114658189D01*
X192061024Y-114658189D02*
X191946738Y-114696284D01*
X191946738Y-114696284D02*
X191870548Y-114772474D01*
X191870548Y-114772474D02*
X191832453Y-114848665D01*
X191832453Y-114848665D02*
X191794357Y-115001046D01*
X191794357Y-115001046D02*
X191794357Y-115115332D01*
X191794357Y-115115332D02*
X191832453Y-115267713D01*
X191832453Y-115267713D02*
X191870548Y-115343903D01*
X191870548Y-115343903D02*
X191946738Y-115420094D01*
X191946738Y-115420094D02*
X192061024Y-115458189D01*
X192061024Y-115458189D02*
X192137215Y-115458189D01*
X192137215Y-115458189D02*
X192251500Y-115420094D01*
X192251500Y-115420094D02*
X192289596Y-115381998D01*
X192289596Y-115381998D02*
X192289596Y-115115332D01*
X192289596Y-115115332D02*
X192137215Y-115115332D01*
X192632453Y-115458189D02*
X192632453Y-114658189D01*
X192632453Y-114658189D02*
X193089596Y-115458189D01*
X193089596Y-115458189D02*
X193089596Y-114658189D01*
X193470548Y-115458189D02*
X193470548Y-114658189D01*
X193470548Y-114658189D02*
X193661024Y-114658189D01*
X193661024Y-114658189D02*
X193775310Y-114696284D01*
X193775310Y-114696284D02*
X193851500Y-114772474D01*
X193851500Y-114772474D02*
X193889595Y-114848665D01*
X193889595Y-114848665D02*
X193927691Y-115001046D01*
X193927691Y-115001046D02*
X193927691Y-115115332D01*
X193927691Y-115115332D02*
X193889595Y-115267713D01*
X193889595Y-115267713D02*
X193851500Y-115343903D01*
X193851500Y-115343903D02*
X193775310Y-115420094D01*
X193775310Y-115420094D02*
X193661024Y-115458189D01*
X193661024Y-115458189D02*
X193470548Y-115458189D01*
X192251505Y-112156284D02*
X192175315Y-112118189D01*
X192175315Y-112118189D02*
X192061029Y-112118189D01*
X192061029Y-112118189D02*
X191946743Y-112156284D01*
X191946743Y-112156284D02*
X191870553Y-112232474D01*
X191870553Y-112232474D02*
X191832458Y-112308665D01*
X191832458Y-112308665D02*
X191794362Y-112461046D01*
X191794362Y-112461046D02*
X191794362Y-112575332D01*
X191794362Y-112575332D02*
X191832458Y-112727713D01*
X191832458Y-112727713D02*
X191870553Y-112803903D01*
X191870553Y-112803903D02*
X191946743Y-112880094D01*
X191946743Y-112880094D02*
X192061029Y-112918189D01*
X192061029Y-112918189D02*
X192137220Y-112918189D01*
X192137220Y-112918189D02*
X192251505Y-112880094D01*
X192251505Y-112880094D02*
X192289601Y-112841998D01*
X192289601Y-112841998D02*
X192289601Y-112575332D01*
X192289601Y-112575332D02*
X192137220Y-112575332D01*
X192632458Y-112918189D02*
X192632458Y-112118189D01*
X192632458Y-112118189D02*
X193089601Y-112918189D01*
X193089601Y-112918189D02*
X193089601Y-112118189D01*
X193470553Y-112918189D02*
X193470553Y-112118189D01*
X193470553Y-112118189D02*
X193661029Y-112118189D01*
X193661029Y-112118189D02*
X193775315Y-112156284D01*
X193775315Y-112156284D02*
X193851505Y-112232474D01*
X193851505Y-112232474D02*
X193889600Y-112308665D01*
X193889600Y-112308665D02*
X193927696Y-112461046D01*
X193927696Y-112461046D02*
X193927696Y-112575332D01*
X193927696Y-112575332D02*
X193889600Y-112727713D01*
X193889600Y-112727713D02*
X193851505Y-112803903D01*
X193851505Y-112803903D02*
X193775315Y-112880094D01*
X193775315Y-112880094D02*
X193661029Y-112918189D01*
X193661029Y-112918189D02*
X193470553Y-112918189D01*
X191889597Y-110378192D02*
X191889597Y-109578192D01*
X191889597Y-109578192D02*
X192194359Y-109578192D01*
X192194359Y-109578192D02*
X192270549Y-109616287D01*
X192270549Y-109616287D02*
X192308644Y-109654382D01*
X192308644Y-109654382D02*
X192346740Y-109730573D01*
X192346740Y-109730573D02*
X192346740Y-109844858D01*
X192346740Y-109844858D02*
X192308644Y-109921049D01*
X192308644Y-109921049D02*
X192270549Y-109959144D01*
X192270549Y-109959144D02*
X192194359Y-109997239D01*
X192194359Y-109997239D02*
X191889597Y-109997239D01*
X192841978Y-109578192D02*
X192918168Y-109578192D01*
X192918168Y-109578192D02*
X192994359Y-109616287D01*
X192994359Y-109616287D02*
X193032454Y-109654382D01*
X193032454Y-109654382D02*
X193070549Y-109730573D01*
X193070549Y-109730573D02*
X193108644Y-109882954D01*
X193108644Y-109882954D02*
X193108644Y-110073430D01*
X193108644Y-110073430D02*
X193070549Y-110225811D01*
X193070549Y-110225811D02*
X193032454Y-110302001D01*
X193032454Y-110302001D02*
X192994359Y-110340097D01*
X192994359Y-110340097D02*
X192918168Y-110378192D01*
X192918168Y-110378192D02*
X192841978Y-110378192D01*
X192841978Y-110378192D02*
X192765787Y-110340097D01*
X192765787Y-110340097D02*
X192727692Y-110302001D01*
X192727692Y-110302001D02*
X192689597Y-110225811D01*
X192689597Y-110225811D02*
X192651501Y-110073430D01*
X192651501Y-110073430D02*
X192651501Y-109882954D01*
X192651501Y-109882954D02*
X192689597Y-109730573D01*
X192689597Y-109730573D02*
X192727692Y-109654382D01*
X192727692Y-109654382D02*
X192765787Y-109616287D01*
X192765787Y-109616287D02*
X192841978Y-109578192D01*
X193603883Y-109578192D02*
X193680073Y-109578192D01*
X193680073Y-109578192D02*
X193756264Y-109616287D01*
X193756264Y-109616287D02*
X193794359Y-109654382D01*
X193794359Y-109654382D02*
X193832454Y-109730573D01*
X193832454Y-109730573D02*
X193870549Y-109882954D01*
X193870549Y-109882954D02*
X193870549Y-110073430D01*
X193870549Y-110073430D02*
X193832454Y-110225811D01*
X193832454Y-110225811D02*
X193794359Y-110302001D01*
X193794359Y-110302001D02*
X193756264Y-110340097D01*
X193756264Y-110340097D02*
X193680073Y-110378192D01*
X193680073Y-110378192D02*
X193603883Y-110378192D01*
X193603883Y-110378192D02*
X193527692Y-110340097D01*
X193527692Y-110340097D02*
X193489597Y-110302001D01*
X193489597Y-110302001D02*
X193451502Y-110225811D01*
X193451502Y-110225811D02*
X193413406Y-110073430D01*
X193413406Y-110073430D02*
X193413406Y-109882954D01*
X193413406Y-109882954D02*
X193451502Y-109730573D01*
X193451502Y-109730573D02*
X193489597Y-109654382D01*
X193489597Y-109654382D02*
X193527692Y-109616287D01*
X193527692Y-109616287D02*
X193603883Y-109578192D01*
X191889597Y-107838191D02*
X191889597Y-107038191D01*
X191889597Y-107038191D02*
X192194359Y-107038191D01*
X192194359Y-107038191D02*
X192270549Y-107076286D01*
X192270549Y-107076286D02*
X192308644Y-107114381D01*
X192308644Y-107114381D02*
X192346740Y-107190572D01*
X192346740Y-107190572D02*
X192346740Y-107304857D01*
X192346740Y-107304857D02*
X192308644Y-107381048D01*
X192308644Y-107381048D02*
X192270549Y-107419143D01*
X192270549Y-107419143D02*
X192194359Y-107457238D01*
X192194359Y-107457238D02*
X191889597Y-107457238D01*
X192841978Y-107038191D02*
X192918168Y-107038191D01*
X192918168Y-107038191D02*
X192994359Y-107076286D01*
X192994359Y-107076286D02*
X193032454Y-107114381D01*
X193032454Y-107114381D02*
X193070549Y-107190572D01*
X193070549Y-107190572D02*
X193108644Y-107342953D01*
X193108644Y-107342953D02*
X193108644Y-107533429D01*
X193108644Y-107533429D02*
X193070549Y-107685810D01*
X193070549Y-107685810D02*
X193032454Y-107762000D01*
X193032454Y-107762000D02*
X192994359Y-107800096D01*
X192994359Y-107800096D02*
X192918168Y-107838191D01*
X192918168Y-107838191D02*
X192841978Y-107838191D01*
X192841978Y-107838191D02*
X192765787Y-107800096D01*
X192765787Y-107800096D02*
X192727692Y-107762000D01*
X192727692Y-107762000D02*
X192689597Y-107685810D01*
X192689597Y-107685810D02*
X192651501Y-107533429D01*
X192651501Y-107533429D02*
X192651501Y-107342953D01*
X192651501Y-107342953D02*
X192689597Y-107190572D01*
X192689597Y-107190572D02*
X192727692Y-107114381D01*
X192727692Y-107114381D02*
X192765787Y-107076286D01*
X192765787Y-107076286D02*
X192841978Y-107038191D01*
X193870549Y-107838191D02*
X193413406Y-107838191D01*
X193641978Y-107838191D02*
X193641978Y-107038191D01*
X193641978Y-107038191D02*
X193565787Y-107152476D01*
X193565787Y-107152476D02*
X193489597Y-107228667D01*
X193489597Y-107228667D02*
X193413406Y-107266762D01*
%TO.C,D45*%
D11*
X250813880Y-109389682D02*
X251189757Y-109252875D01*
X251189757Y-109252875D02*
X251001646Y-108736043D01*
X251189757Y-109252875D02*
X251377869Y-109769705D01*
X251189757Y-109252875D02*
X251616764Y-108671786D01*
X251616764Y-108671786D02*
X251890380Y-109423538D01*
X251753572Y-109047662D02*
X252223418Y-108876652D01*
X251890380Y-109423538D02*
X251189757Y-109252875D01*
%TO.C,D41*%
X262769053Y-89607776D02*
X263144930Y-89470969D01*
X263144930Y-89470969D02*
X262956819Y-88954137D01*
X263144930Y-89470969D02*
X263333042Y-89987799D01*
X263144930Y-89470969D02*
X263571937Y-88889880D01*
X263571937Y-88889880D02*
X263845553Y-89641632D01*
X263708745Y-89265756D02*
X264178591Y-89094746D01*
X263845553Y-89641632D02*
X263144930Y-89470969D01*
%TO.C,D40*%
X268583397Y-105582550D02*
X268959274Y-105445743D01*
X268959274Y-105445743D02*
X268771163Y-104928911D01*
X268959274Y-105445743D02*
X269147386Y-105962573D01*
X268959274Y-105445743D02*
X269386281Y-104864654D01*
X269386281Y-104864654D02*
X269659897Y-105616406D01*
X269523089Y-105240530D02*
X269992935Y-105069520D01*
X269659897Y-105616406D02*
X268959274Y-105445743D01*
%TO.C,D53*%
X224509385Y-142375646D02*
X224885262Y-142238839D01*
X224885262Y-142238839D02*
X224697151Y-141722007D01*
X224885262Y-142238839D02*
X225073374Y-142755669D01*
X224885262Y-142238839D02*
X225312269Y-141657750D01*
X225312269Y-141657750D02*
X225585885Y-142409502D01*
X225449077Y-142033626D02*
X225918923Y-141862616D01*
X225585885Y-142409502D02*
X224885262Y-142238839D01*
%TO.C,D24*%
X150203128Y-141862610D02*
X150579005Y-141999420D01*
X150579005Y-141999420D02*
X150390894Y-142516249D01*
X150579005Y-141999420D02*
X150767117Y-141482587D01*
X150579005Y-141999420D02*
X151279628Y-141828754D01*
X151006012Y-142580507D02*
X150579005Y-141999420D01*
X151142820Y-142204630D02*
X151612666Y-142375640D01*
X151279628Y-141828754D02*
X151006012Y-142580507D01*
%TO.C,MCU1*%
D10*
X179171028Y-136685895D02*
X196951028Y-136685892D01*
X179171026Y-103665895D02*
X179171028Y-136685895D01*
X181711027Y-108745893D02*
X179171026Y-108745896D01*
X181711027Y-106205894D02*
X179171026Y-106205896D01*
X181711027Y-106205894D02*
X181711027Y-108745893D01*
X196951028Y-136685892D02*
X196951028Y-103665895D01*
X196951028Y-103665895D02*
X179171026Y-103665895D01*
%TO.C,D25*%
D11*
X156017469Y-125887844D02*
X156393346Y-126024654D01*
X156393346Y-126024654D02*
X156205235Y-126541483D01*
X156393346Y-126024654D02*
X156581458Y-125507821D01*
X156393346Y-126024654D02*
X157093969Y-125853988D01*
X156820353Y-126605741D02*
X156393346Y-126024654D01*
X156957161Y-126229864D02*
X157427007Y-126400874D01*
X157093969Y-125853988D02*
X156820353Y-126605741D01*
%TO.C,D58*%
X205585669Y-170514049D02*
X205892086Y-170771163D01*
X206094598Y-171463253D02*
X205892086Y-170771163D01*
X205892086Y-170771163D02*
X205538554Y-171192488D01*
X205892086Y-170771163D02*
X206245620Y-170349840D01*
X205892086Y-170771163D02*
X206608828Y-170850418D01*
X206351713Y-171156836D02*
X206734735Y-171478229D01*
X206608828Y-170850418D02*
X206094598Y-171463253D01*
%TO.C,D16*%
X123898641Y-108876656D02*
X124274518Y-109013466D01*
X124274518Y-109013466D02*
X124086407Y-109530295D01*
X124274518Y-109013466D02*
X124462630Y-108496633D01*
X124274518Y-109013466D02*
X124975141Y-108842800D01*
X124701525Y-109594553D02*
X124274518Y-109013466D01*
X124838333Y-109218676D02*
X125308179Y-109389686D01*
X124975141Y-108842800D02*
X124701525Y-109594553D01*
%TO.C,D33*%
X292493745Y-66018741D02*
X292869622Y-65881934D01*
X292869622Y-65881934D02*
X292681511Y-65365102D01*
X292869622Y-65881934D02*
X293057734Y-66398764D01*
X292869622Y-65881934D02*
X293296629Y-65300845D01*
X293296629Y-65300845D02*
X293570245Y-66052597D01*
X293433437Y-65676721D02*
X293903283Y-65505711D01*
X293570245Y-66052597D02*
X292869622Y-65881934D01*
%TO.C,D37*%
X275579279Y-72175104D02*
X275955156Y-72038297D01*
X275955156Y-72038297D02*
X275767045Y-71521465D01*
X275955156Y-72038297D02*
X276143268Y-72555127D01*
X275955156Y-72038297D02*
X276382163Y-71457208D01*
X276382163Y-71457208D02*
X276655779Y-72208960D01*
X276518971Y-71833084D02*
X276988817Y-71662074D01*
X276655779Y-72208960D02*
X275955156Y-72038297D01*
%TO.C,D38*%
X280212077Y-137532096D02*
X280587954Y-137395289D01*
X280587954Y-137395289D02*
X280399843Y-136878457D01*
X280587954Y-137395289D02*
X280776066Y-137912119D01*
X280587954Y-137395289D02*
X281014961Y-136814200D01*
X281014961Y-136814200D02*
X281288577Y-137565952D01*
X281151769Y-137190076D02*
X281621615Y-137019066D01*
X281288577Y-137565952D02*
X280587954Y-137395289D01*
%TO.C,D27*%
X167646157Y-93938289D02*
X168022034Y-94075099D01*
X168022034Y-94075099D02*
X167833923Y-94591928D01*
X168022034Y-94075099D02*
X168210146Y-93558266D01*
X168022034Y-94075099D02*
X168722657Y-93904433D01*
X168449041Y-94656186D02*
X168022034Y-94075099D01*
X168585849Y-94280309D02*
X169055695Y-94451319D01*
X168722657Y-93904433D02*
X168449041Y-94656186D01*
%TO.C,D19*%
X128329371Y-149331795D02*
X128705248Y-149468605D01*
X128705248Y-149468605D02*
X128517137Y-149985434D01*
X128705248Y-149468605D02*
X128893360Y-148951772D01*
X128705248Y-149468605D02*
X129405871Y-149297939D01*
X129132255Y-150049692D02*
X128705248Y-149468605D01*
X129269063Y-149673815D02*
X129738909Y-149844825D01*
X129405871Y-149297939D02*
X129132255Y-150049692D01*
%TO.C,D57*%
X230376570Y-160484804D02*
X230704232Y-160255371D01*
X230704232Y-160255371D02*
X230388765Y-159804839D01*
X230704232Y-160255371D02*
X231019700Y-160705908D01*
X230704232Y-160255371D02*
X230966292Y-159583564D01*
X230966292Y-159583564D02*
X231425153Y-160238889D01*
X231195721Y-159911228D02*
X231605298Y-159624440D01*
X231425153Y-160238889D02*
X230704232Y-160255371D01*
%TO.C,D4*%
X82218773Y-65505713D02*
X82594650Y-65642523D01*
X82594650Y-65642523D02*
X82406539Y-66159352D01*
X82594650Y-65642523D02*
X82782762Y-65125690D01*
X82594650Y-65642523D02*
X83295273Y-65471857D01*
X83021657Y-66223610D02*
X82594650Y-65642523D01*
X83158465Y-65847733D02*
X83628311Y-66018743D01*
X83295273Y-65471857D02*
X83021657Y-66223610D01*
%TO.C,D10*%
X100314775Y-121044298D02*
X100690652Y-121181108D01*
X100690652Y-121181108D02*
X100502541Y-121697937D01*
X100690652Y-121181108D02*
X100878764Y-120664275D01*
X100690652Y-121181108D02*
X101391275Y-121010442D01*
X101117659Y-121762195D02*
X100690652Y-121181108D01*
X101254467Y-121386318D02*
X101724313Y-121557328D01*
X101391275Y-121010442D02*
X101117659Y-121762195D01*
%TO.C,D22*%
X145772396Y-101407470D02*
X146148273Y-101544280D01*
X146148273Y-101544280D02*
X145960162Y-102061109D01*
X146148273Y-101544280D02*
X146336385Y-101027447D01*
X146148273Y-101544280D02*
X146848896Y-101373614D01*
X146575280Y-102125367D02*
X146148273Y-101544280D01*
X146712088Y-101749490D02*
X147181934Y-101920500D01*
X146848896Y-101373614D02*
X146575280Y-102125367D01*
%TO.C,D9*%
X94500434Y-137019070D02*
X94876311Y-137155880D01*
X94876311Y-137155880D02*
X94688200Y-137672709D01*
X94876311Y-137155880D02*
X95064423Y-136639047D01*
X94876311Y-137155880D02*
X95576934Y-136985214D01*
X95303318Y-137736967D02*
X94876311Y-137155880D01*
X95440126Y-137361090D02*
X95909972Y-137532100D01*
X95576934Y-136985214D02*
X95303318Y-137736967D01*
%TO.C,D50*%
X234754456Y-117895276D02*
X235130333Y-117758469D01*
X235130333Y-117758469D02*
X234942222Y-117241637D01*
X235130333Y-117758469D02*
X235318445Y-118275299D01*
X235130333Y-117758469D02*
X235557340Y-117177380D01*
X235557340Y-117177380D02*
X235830956Y-117929132D01*
X235694148Y-117553256D02*
X236163994Y-117382246D01*
X235830956Y-117929132D02*
X235130333Y-117758469D01*
%TO.C,D32*%
X298308083Y-81993513D02*
X298683960Y-81856706D01*
X298683960Y-81856706D02*
X298495849Y-81339874D01*
X298683960Y-81856706D02*
X298872072Y-82373536D01*
X298683960Y-81856706D02*
X299110967Y-81275617D01*
X299110967Y-81275617D02*
X299384583Y-82027369D01*
X299247775Y-81651493D02*
X299717621Y-81480483D01*
X299384583Y-82027369D02*
X298683960Y-81856706D01*
%TO.C,D56*%
X207066359Y-94451317D02*
X207442236Y-94314510D01*
X207442236Y-94314510D02*
X207254125Y-93797678D01*
X207442236Y-94314510D02*
X207630348Y-94831340D01*
X207442236Y-94314510D02*
X207869243Y-93733421D01*
X207869243Y-93733421D02*
X208142859Y-94485173D01*
X208006051Y-94109297D02*
X208475897Y-93938287D01*
X208142859Y-94485173D02*
X207442236Y-94314510D01*
%TO.C,D18*%
X135527321Y-76927105D02*
X135903198Y-77063915D01*
X135903198Y-77063915D02*
X135715087Y-77580744D01*
X135903198Y-77063915D02*
X136091310Y-76547082D01*
X135903198Y-77063915D02*
X136603821Y-76893249D01*
X136330205Y-77645002D02*
X135903198Y-77063915D01*
X136467013Y-77269125D02*
X136936859Y-77440135D01*
X136603821Y-76893249D02*
X136330205Y-77645002D01*
%TO.C,D17*%
X129712979Y-92901880D02*
X130088856Y-93038690D01*
X130088856Y-93038690D02*
X129900745Y-93555519D01*
X130088856Y-93038690D02*
X130276968Y-92521857D01*
X130088856Y-93038690D02*
X130789479Y-92868024D01*
X130515863Y-93619777D02*
X130088856Y-93038690D01*
X130652671Y-93243900D02*
X131122517Y-93414910D01*
X130789479Y-92868024D02*
X130515863Y-93619777D01*
%TO.C,D14*%
X112269960Y-140826204D02*
X112645837Y-140963014D01*
X112645837Y-140963014D02*
X112457726Y-141479843D01*
X112645837Y-140963014D02*
X112833949Y-140446181D01*
X112645837Y-140963014D02*
X113346460Y-140792348D01*
X113072844Y-141544101D02*
X112645837Y-140963014D01*
X113209652Y-141168224D02*
X113679498Y-141339234D01*
X113346460Y-140792348D02*
X113072844Y-141544101D01*
%TO.C,D13*%
X117757807Y-73119968D02*
X118133684Y-73256778D01*
X118133684Y-73256778D02*
X117945573Y-73773607D01*
X118133684Y-73256778D02*
X118321796Y-72739945D01*
X118133684Y-73256778D02*
X118834307Y-73086112D01*
X118560691Y-73837865D02*
X118133684Y-73256778D01*
X118697499Y-73461988D02*
X119167345Y-73632998D01*
X118834307Y-73086112D02*
X118560691Y-73837865D01*
%TO.C,D51*%
X228940116Y-101920497D02*
X229315993Y-101783690D01*
X229315993Y-101783690D02*
X229127882Y-101266858D01*
X229315993Y-101783690D02*
X229504105Y-102300520D01*
X229315993Y-101783690D02*
X229743000Y-101202601D01*
X229743000Y-101202601D02*
X230016616Y-101954353D01*
X229879808Y-101578477D02*
X230349654Y-101407467D01*
X230016616Y-101954353D02*
X229315993Y-101783690D01*
%TO.C,D39*%
X274397738Y-121557322D02*
X274773615Y-121420515D01*
X274773615Y-121420515D02*
X274585504Y-120903683D01*
X274773615Y-121420515D02*
X274961727Y-121937345D01*
X274773615Y-121420515D02*
X275200622Y-120839426D01*
X275200622Y-120839426D02*
X275474238Y-121591178D01*
X275337430Y-121215302D02*
X275807276Y-121044292D01*
X275474238Y-121591178D02*
X274773615Y-121420515D01*
%TO.C,D3*%
X76404428Y-81480488D02*
X76780305Y-81617298D01*
X76780305Y-81617298D02*
X76592194Y-82134127D01*
X76780305Y-81617298D02*
X76968417Y-81100465D01*
X76780305Y-81617298D02*
X77480928Y-81446632D01*
X77207312Y-82198385D02*
X76780305Y-81617298D01*
X77344120Y-81822508D02*
X77813966Y-81993518D01*
X77480928Y-81446632D02*
X77207312Y-82198385D01*
%TO.C,D2*%
X70590083Y-97455258D02*
X70965960Y-97592068D01*
X70965960Y-97592068D02*
X70777849Y-98108897D01*
X70965960Y-97592068D02*
X71154072Y-97075235D01*
X70965960Y-97592068D02*
X71666583Y-97421402D01*
X71392967Y-98173155D02*
X70965960Y-97592068D01*
X71529775Y-97797278D02*
X71999621Y-97968288D01*
X71666583Y-97421402D02*
X71392967Y-98173155D01*
%TO.C,D43*%
X262442559Y-141339232D02*
X262818436Y-141202425D01*
X262818436Y-141202425D02*
X262630325Y-140685593D01*
X262818436Y-141202425D02*
X263006548Y-141719255D01*
X262818436Y-141202425D02*
X263245443Y-140621336D01*
X263245443Y-140621336D02*
X263519059Y-141373088D01*
X263382251Y-140997212D02*
X263852097Y-140826202D01*
X263519059Y-141373088D02*
X262818436Y-141202425D01*
%TO.C,D48*%
X246383144Y-149844827D02*
X246759021Y-149708020D01*
X246759021Y-149708020D02*
X246570910Y-149191188D01*
X246759021Y-149708020D02*
X246947133Y-150224850D01*
X246759021Y-149708020D02*
X247186028Y-149126931D01*
X247186028Y-149126931D02*
X247459644Y-149878683D01*
X247322836Y-149502807D02*
X247792682Y-149331797D01*
X247459644Y-149878683D02*
X246759021Y-149708020D01*
%TO.C,D52*%
X223125771Y-85945726D02*
X223501648Y-85808919D01*
X223501648Y-85808919D02*
X223313537Y-85292087D01*
X223501648Y-85808919D02*
X223689760Y-86325749D01*
X223501648Y-85808919D02*
X223928655Y-85227830D01*
X223928655Y-85227830D02*
X224202271Y-85979582D01*
X224065463Y-85603706D02*
X224535309Y-85432696D01*
X224202271Y-85979582D02*
X223501648Y-85808919D01*
%TO.C,D23*%
X151586737Y-85432696D02*
X151962614Y-85569506D01*
X151962614Y-85569506D02*
X151774503Y-86086335D01*
X151962614Y-85569506D02*
X152150726Y-85052673D01*
X151962614Y-85569506D02*
X152663237Y-85398840D01*
X152389621Y-86150593D02*
X151962614Y-85569506D01*
X152526429Y-85774716D02*
X152996275Y-85945726D01*
X152663237Y-85398840D02*
X152389621Y-86150593D01*
%TO.C,D30*%
X309936769Y-113943063D02*
X310312646Y-113806256D01*
X310312646Y-113806256D02*
X310124535Y-113289424D01*
X310312646Y-113806256D02*
X310500758Y-114323086D01*
X310312646Y-113806256D02*
X310739653Y-113225167D01*
X310739653Y-113225167D02*
X311013269Y-113976919D01*
X310876461Y-113601043D02*
X311346307Y-113430033D01*
X311013269Y-113976919D02*
X310312646Y-113806256D01*
%TO.C,D35*%
X287207962Y-104124654D02*
X287583839Y-103987847D01*
X287583839Y-103987847D02*
X287395728Y-103471015D01*
X287583839Y-103987847D02*
X287771951Y-104504677D01*
X287583839Y-103987847D02*
X288010846Y-103406758D01*
X288010846Y-103406758D02*
X288284462Y-104158510D01*
X288147654Y-103782634D02*
X288617500Y-103611624D01*
X288284462Y-104158510D02*
X287583839Y-103987847D01*
%TO.C,D54*%
X218695039Y-126400869D02*
X219070916Y-126264062D01*
X219070916Y-126264062D02*
X218882805Y-125747230D01*
X219070916Y-126264062D02*
X219259028Y-126780892D01*
X219070916Y-126264062D02*
X219497923Y-125682973D01*
X219497923Y-125682973D02*
X219771539Y-126434725D01*
X219634731Y-126058849D02*
X220104577Y-125887839D01*
X219771539Y-126434725D02*
X219070916Y-126264062D01*
%TO.C,D12*%
X111943468Y-89094747D02*
X112319345Y-89231557D01*
X112319345Y-89231557D02*
X112131234Y-89748386D01*
X112319345Y-89231557D02*
X112507457Y-88714724D01*
X112319345Y-89231557D02*
X113019968Y-89060891D01*
X112746352Y-89812644D02*
X112319345Y-89231557D01*
X112883160Y-89436767D02*
X113353006Y-89607777D01*
X113019968Y-89060891D02*
X112746352Y-89812644D01*
%TO.C,D29*%
X169387313Y-171478229D02*
X169693730Y-171221115D01*
X169693730Y-171221115D02*
X169340198Y-170799790D01*
X169693730Y-171221115D02*
X170047265Y-171642439D01*
X169693730Y-171221115D02*
X169896242Y-170529025D01*
X169896242Y-170529025D02*
X170410472Y-171141859D01*
X170153357Y-170835442D02*
X170536379Y-170514049D01*
X170410472Y-171141859D02*
X169693730Y-171221115D01*
%TO.C,D15*%
X118084290Y-124851426D02*
X118460167Y-124988236D01*
X118460167Y-124988236D02*
X118272056Y-125505065D01*
X118460167Y-124988236D02*
X118648279Y-124471403D01*
X118460167Y-124988236D02*
X119160790Y-124817570D01*
X118887174Y-125569323D02*
X118460167Y-124988236D01*
X119023982Y-125193446D02*
X119493828Y-125364456D01*
X119160790Y-124817570D02*
X118887174Y-125569323D01*
%TO.C,D34*%
X293022301Y-120099424D02*
X293398178Y-119962617D01*
X293398178Y-119962617D02*
X293210067Y-119445785D01*
X293398178Y-119962617D02*
X293586290Y-120479447D01*
X293398178Y-119962617D02*
X293825185Y-119381528D01*
X293825185Y-119381528D02*
X294098801Y-120133280D01*
X293961993Y-119757404D02*
X294431839Y-119586394D01*
X294098801Y-120133280D02*
X293398178Y-119962617D01*
%TO.C,D26*%
X161831814Y-109913066D02*
X162207691Y-110049876D01*
X162207691Y-110049876D02*
X162019580Y-110566705D01*
X162207691Y-110049876D02*
X162395803Y-109533043D01*
X162207691Y-110049876D02*
X162908314Y-109879210D01*
X162634698Y-110630963D02*
X162207691Y-110049876D01*
X162771506Y-110255086D02*
X163241352Y-110426096D01*
X162908314Y-109879210D02*
X162634698Y-110630963D01*
%TO.C,D31*%
X304122422Y-97968287D02*
X304498299Y-97831480D01*
X304498299Y-97831480D02*
X304310188Y-97314648D01*
X304498299Y-97831480D02*
X304686411Y-98348310D01*
X304498299Y-97831480D02*
X304925306Y-97250391D01*
X304925306Y-97250391D02*
X305198922Y-98002143D01*
X305062114Y-97626267D02*
X305531960Y-97455257D01*
X305198922Y-98002143D02*
X304498299Y-97831480D01*
%TO.C,D55*%
X212880698Y-110426095D02*
X213256575Y-110289288D01*
X213256575Y-110289288D02*
X213068464Y-109772456D01*
X213256575Y-110289288D02*
X213444687Y-110806118D01*
X213256575Y-110289288D02*
X213683582Y-109708199D01*
X213683582Y-109708199D02*
X213957198Y-110459951D01*
X213820390Y-110084075D02*
X214290236Y-109913065D01*
X213957198Y-110459951D02*
X213256575Y-110289288D01*
%TO.C,D47*%
X239185193Y-77440137D02*
X239561070Y-77303330D01*
X239561070Y-77303330D02*
X239372959Y-76786498D01*
X239561070Y-77303330D02*
X239749182Y-77820160D01*
X239561070Y-77303330D02*
X239988077Y-76722241D01*
X239988077Y-76722241D02*
X240261693Y-77473993D01*
X240124885Y-77098117D02*
X240594731Y-76927107D01*
X240261693Y-77473993D02*
X239561070Y-77303330D01*
%TO.C,D21*%
X139958052Y-117382243D02*
X140333929Y-117519053D01*
X140333929Y-117519053D02*
X140145818Y-118035882D01*
X140333929Y-117519053D02*
X140522041Y-117002220D01*
X140333929Y-117519053D02*
X141034552Y-117348387D01*
X140760936Y-118100140D02*
X140333929Y-117519053D01*
X140897744Y-117724263D02*
X141367590Y-117895273D01*
X141034552Y-117348387D02*
X140760936Y-118100140D01*
%TO.C,D5*%
X81690208Y-119586399D02*
X82066085Y-119723209D01*
X82066085Y-119723209D02*
X81877974Y-120240038D01*
X82066085Y-119723209D02*
X82254197Y-119206376D01*
X82066085Y-119723209D02*
X82766708Y-119552543D01*
X82493092Y-120304296D02*
X82066085Y-119723209D01*
X82629900Y-119928419D02*
X83099746Y-120099429D01*
X82766708Y-119552543D02*
X82493092Y-120304296D01*
%TO.C,D36*%
X281393613Y-88149876D02*
X281769490Y-88013069D01*
X281769490Y-88013069D02*
X281581379Y-87496237D01*
X281769490Y-88013069D02*
X281957602Y-88529899D01*
X281769490Y-88013069D02*
X282196497Y-87431980D01*
X282196497Y-87431980D02*
X282470113Y-88183732D01*
X282333305Y-87807856D02*
X282803151Y-87636846D01*
X282470113Y-88183732D02*
X281769490Y-88013069D01*
%TO.C,D6*%
X87504551Y-103611619D02*
X87880428Y-103748429D01*
X87880428Y-103748429D02*
X87692317Y-104265258D01*
X87880428Y-103748429D02*
X88068540Y-103231596D01*
X87880428Y-103748429D02*
X88581051Y-103577763D01*
X88307435Y-104329516D02*
X87880428Y-103748429D01*
X88444243Y-103953639D02*
X88914089Y-104124649D01*
X88581051Y-103577763D02*
X88307435Y-104329516D01*
%TO.C,D28*%
X144516757Y-159624444D02*
X144844418Y-159853873D01*
X144844418Y-159853873D02*
X144528952Y-160304409D01*
X144844418Y-159853873D02*
X145159886Y-159403341D01*
X144844418Y-159853873D02*
X145565342Y-159870360D01*
X145106478Y-160525681D02*
X144844418Y-159853873D01*
X145335909Y-160198019D02*
X145745485Y-160484808D01*
X145565342Y-159870360D02*
X145106478Y-160525681D01*
%TO.C,D8*%
X100209739Y-71628219D02*
X99936123Y-72379972D01*
X100072931Y-72004095D02*
X100542777Y-72175105D01*
X99936123Y-72379972D02*
X99509116Y-71798885D01*
X99509116Y-71798885D02*
X100209739Y-71628219D01*
X99509116Y-71798885D02*
X99697228Y-71282052D01*
X99509116Y-71798885D02*
X99321005Y-72315714D01*
X99133239Y-71662075D02*
X99509116Y-71798885D01*
%TO.C,D1*%
X64775739Y-113430040D02*
X65151616Y-113566850D01*
X65151616Y-113566850D02*
X64963505Y-114083679D01*
X65151616Y-113566850D02*
X65339728Y-113050017D01*
X65151616Y-113566850D02*
X65852239Y-113396184D01*
X65578623Y-114147937D02*
X65151616Y-113566850D01*
X65715431Y-113772060D02*
X66185277Y-113943070D01*
X65852239Y-113396184D02*
X65578623Y-114147937D01*
%TO.C,D7*%
X93318892Y-87636849D02*
X93694769Y-87773659D01*
X93694769Y-87773659D02*
X93506658Y-88290488D01*
X93694769Y-87773659D02*
X93882881Y-87256826D01*
X93694769Y-87773659D02*
X94395392Y-87602993D01*
X94121776Y-88354746D02*
X93694769Y-87773659D01*
X94258584Y-87978869D02*
X94728430Y-88149879D01*
X94395392Y-87602993D02*
X94121776Y-88354746D01*
%TO.C,D46*%
X244999532Y-93414908D02*
X245375409Y-93278101D01*
X245375409Y-93278101D02*
X245187298Y-92761269D01*
X245375409Y-93278101D02*
X245563521Y-93794931D01*
X245375409Y-93278101D02*
X245802416Y-92697012D01*
X245802416Y-92697012D02*
X246076032Y-93448764D01*
X245939224Y-93072888D02*
X246409070Y-92901878D01*
X246076032Y-93448764D02*
X245375409Y-93278101D01*
%TO.C,D11*%
X106129123Y-105069522D02*
X106505000Y-105206332D01*
X106505000Y-105206332D02*
X106316889Y-105723161D01*
X106505000Y-105206332D02*
X106693112Y-104689499D01*
X106505000Y-105206332D02*
X107205623Y-105035666D01*
X106932007Y-105787419D02*
X106505000Y-105206332D01*
X107068815Y-105411542D02*
X107538661Y-105582552D01*
X107205623Y-105035666D02*
X106932007Y-105787419D01*
%TO.C,D44*%
X256628212Y-125364455D02*
X257004089Y-125227648D01*
X257004089Y-125227648D02*
X256815978Y-124710816D01*
X257004089Y-125227648D02*
X257192201Y-125744478D01*
X257004089Y-125227648D02*
X257431096Y-124646559D01*
X257431096Y-124646559D02*
X257704712Y-125398311D01*
X257567904Y-125022435D02*
X258037750Y-124851425D01*
X257704712Y-125398311D02*
X257004089Y-125227648D01*
%TO.C,D20*%
X134143714Y-133357018D02*
X134519591Y-133493828D01*
X134519591Y-133493828D02*
X134331480Y-134010657D01*
X134519591Y-133493828D02*
X134707703Y-132976995D01*
X134519591Y-133493828D02*
X135220214Y-133323162D01*
X134946598Y-134074915D02*
X134519591Y-133493828D01*
X135083406Y-133699038D02*
X135553252Y-133870048D01*
X135220214Y-133323162D02*
X134946598Y-134074915D01*
%TO.C,D49*%
X240568800Y-133870050D02*
X240944677Y-133733243D01*
X240944677Y-133733243D02*
X240756566Y-133216411D01*
X240944677Y-133733243D02*
X241132789Y-134250073D01*
X240944677Y-133733243D02*
X241371684Y-133152154D01*
X241371684Y-133152154D02*
X241645300Y-133903906D01*
X241508492Y-133528030D02*
X241978338Y-133357020D01*
X241645300Y-133903906D02*
X240944677Y-133733243D01*
%TO.C,B1*%
D10*
X185311021Y-144639846D02*
X185311021Y-147139846D01*
X186811021Y-148639846D02*
X185311021Y-147139846D01*
X186811021Y-143139846D02*
X185311021Y-144639846D01*
X189311021Y-148639846D02*
X186811021Y-148639846D01*
X189311021Y-148639846D02*
X190811021Y-147139846D01*
X189311021Y-143139846D02*
X186811021Y-143139846D01*
X189311021Y-143139846D02*
X190811021Y-144639846D01*
X190811021Y-144639846D02*
X190811021Y-147139846D01*
%TO.C,D42*%
D11*
X256954707Y-73633000D02*
X257330584Y-73496193D01*
X257330584Y-73496193D02*
X257142473Y-72979361D01*
X257330584Y-73496193D02*
X257518696Y-74013023D01*
X257330584Y-73496193D02*
X257757591Y-72915104D01*
X257757591Y-72915104D02*
X258031207Y-73666856D01*
X257894399Y-73290980D02*
X258364245Y-73119970D01*
X258031207Y-73666856D02*
X257330584Y-73496193D01*
%TD*%
D12*
%TO.C,MCU1*%
X180441027Y-107475894D03*
D13*
X180441027Y-110015894D03*
X180441028Y-112555894D03*
X180441025Y-115095893D03*
X180441025Y-117635895D03*
X180441029Y-120175896D03*
X180441029Y-122715892D03*
X180441026Y-125255894D03*
X180441025Y-127795895D03*
X180441028Y-130335894D03*
X180441027Y-132875894D03*
X180441027Y-135415894D03*
X195681027Y-107475894D03*
X195681027Y-110015894D03*
X195681026Y-112555894D03*
X195681029Y-115095893D03*
X195681028Y-117635894D03*
X195681025Y-120175896D03*
X195681025Y-122715892D03*
X195681029Y-125255893D03*
X195681029Y-127795895D03*
X195681026Y-130335894D03*
X195681027Y-132875894D03*
X195681027Y-135415894D03*
%TD*%
M02*
