%TF.GenerationSoftware,KiCad,Pcbnew,10.0.5*%
%TF.CreationDate,2026-09-22T23:11:33-07:00*%
%TF.ProjectId,Keyboard Final,4b657962-6f61-4726-9420-46696e616c2e,v1.0.0*%
%TF.SameCoordinates,Original*%
%TF.FileFunction,Copper,L2,Bot*%
%TF.FilePolarity,Positive*%
%FSLAX46Y46*%
G04 Gerber Fmt 4.6, Leading zero omitted, Abs format (unit mm)*
G04 Created by KiCad (PCBNEW 10.0.5) date 2026-09-22 23:11:33*
%MOMM*%
%LPD*%
G01*
G04 APERTURE LIST*
G04 Aperture macros list*
%AMRotRect*
0 Rectangle, with rotation*
0 The origin of the aperture is its center*
0 $1 length*
0 $2 width*
0 $3 Rotation angle, in degrees counterclockwise*
0 Add horizontal line*
21,1,$1,$2,0,0,$3*%
G04 Aperture macros list end*
%TA.AperFunction,SMDPad,CuDef*%
%ADD10RotRect,2.600000X2.600000X20.000000*%
%TD*%
%TA.AperFunction,ComponentPad*%
%ADD11RotRect,1.778000X1.778000X20.000000*%
%TD*%
%TA.AperFunction,SMDPad,CuDef*%
%ADD12RotRect,0.900000X1.200000X20.000000*%
%TD*%
%TA.AperFunction,ComponentPad*%
%ADD13C,1.905000*%
%TD*%
%TA.AperFunction,SMDPad,CuDef*%
%ADD14RotRect,2.600000X2.600000X340.000000*%
%TD*%
%TA.AperFunction,ComponentPad*%
%ADD15RotRect,1.778000X1.778000X340.000000*%
%TD*%
%TA.AperFunction,SMDPad,CuDef*%
%ADD16RotRect,0.900000X1.200000X340.000000*%
%TD*%
%TA.AperFunction,SMDPad,CuDef*%
%ADD17RotRect,2.600000X2.600000X40.000000*%
%TD*%
%TA.AperFunction,SMDPad,CuDef*%
%ADD18RotRect,2.600000X2.600000X35.000000*%
%TD*%
%TA.AperFunction,ComponentPad*%
%ADD19R,1.752600X1.752600*%
%TD*%
%TA.AperFunction,ComponentPad*%
%ADD20C,1.752600*%
%TD*%
%TA.AperFunction,ComponentPad*%
%ADD21RotRect,1.778000X1.778000X320.000000*%
%TD*%
%TA.AperFunction,SMDPad,CuDef*%
%ADD22RotRect,0.900000X1.200000X320.000000*%
%TD*%
%TA.AperFunction,ComponentPad*%
%ADD23RotRect,1.778000X1.778000X35.000000*%
%TD*%
%TA.AperFunction,SMDPad,CuDef*%
%ADD24RotRect,0.900000X1.200000X35.000000*%
%TD*%
%TA.AperFunction,ComponentPad*%
%ADD25R,1.700000X1.700000*%
%TD*%
%TA.AperFunction,ComponentPad*%
%ADD26O,1.700000X1.700000*%
%TD*%
%TA.AperFunction,ComponentPad*%
%ADD27RotRect,1.778000X1.778000X40.000000*%
%TD*%
%TA.AperFunction,SMDPad,CuDef*%
%ADD28RotRect,0.900000X1.200000X40.000000*%
%TD*%
%TA.AperFunction,SMDPad,CuDef*%
%ADD29RotRect,2.600000X2.600000X320.000000*%
%TD*%
%TA.AperFunction,SMDPad,CuDef*%
%ADD30RotRect,2.600000X2.600000X325.000000*%
%TD*%
%TA.AperFunction,ComponentPad*%
%ADD31RotRect,1.778000X1.778000X325.000000*%
%TD*%
%TA.AperFunction,SMDPad,CuDef*%
%ADD32RotRect,0.900000X1.200000X325.000000*%
%TD*%
%TA.AperFunction,ViaPad*%
%ADD33C,0.800000*%
%TD*%
%TA.AperFunction,Conductor*%
%ADD34C,0.250000*%
%TD*%
G04 APERTURE END LIST*
D10*
%TO.P,S54,1*%
%TO.N,P9*%
X212577196Y-116974840D03*
%TO.P,S54,2*%
%TO.N,mirror_inner_home*%
X224183093Y-115091834D03*
%TD*%
D11*
%TO.P,D45,1*%
%TO.N,P4*%
X247938420Y-110436264D03*
D12*
X249968157Y-109697499D03*
%TO.P,D45,2*%
%TO.N,mirror_middle_home*%
X253069141Y-108568835D03*
D13*
X255098878Y-107830070D03*
%TD*%
D11*
%TO.P,D41,1*%
%TO.N,P0*%
X259893593Y-90654358D03*
D12*
X261923330Y-89915593D03*
%TO.P,D41,2*%
%TO.N,mirror_ring_top*%
X265024314Y-88786929D03*
D13*
X267054051Y-88048164D03*
%TD*%
D11*
%TO.P,D40,1*%
%TO.N,P4*%
X265707937Y-106629132D03*
D12*
X267737674Y-105890367D03*
%TO.P,D40,2*%
%TO.N,mirror_ring_home*%
X270838658Y-104761703D03*
D13*
X272868395Y-104022938D03*
%TD*%
D14*
%TO.P,S14,1*%
%TO.N,P10*%
X113642347Y-129672963D03*
%TO.P,S14,2*%
%TO.N,middle_mod*%
X123743353Y-135690623D03*
%TD*%
D11*
%TO.P,D53,1*%
%TO.N,P5*%
X221633925Y-143422228D03*
D12*
X223663662Y-142683463D03*
%TO.P,D53,2*%
%TO.N,mirror_inner_bottom*%
X226764646Y-141554799D03*
D13*
X228794383Y-140816034D03*
%TD*%
D14*
%TO.P,S20,1*%
%TO.N,P8*%
X135516112Y-122203790D03*
%TO.P,S20,2*%
%TO.N,index_bottom*%
X145617118Y-128221450D03*
%TD*%
D10*
%TO.P,S30,1*%
%TO.N,P14*%
X303818924Y-104517029D03*
%TO.P,S30,2*%
%TO.N,mirror_outer_bottom*%
X315424821Y-102634023D03*
%TD*%
D15*
%TO.P,D24,1*%
%TO.N,P18*%
X147327668Y-140816028D03*
D16*
X149357405Y-141554791D03*
%TO.P,D24,2*%
%TO.N,inner_bottom*%
X152458389Y-142683459D03*
D13*
X154488126Y-143422222D03*
%TD*%
D17*
%TO.P,S29,1*%
%TO.N,P9*%
X160414526Y-164713084D03*
%TO.P,S29,2*%
%TO.N,space_cluster*%
X170676476Y-158974186D03*
%TD*%
D10*
%TO.P,S49,1*%
%TO.N,P8*%
X234450961Y-124444016D03*
%TO.P,S49,2*%
%TO.N,mirror_index_bottom*%
X246056858Y-122561010D03*
%TD*%
D18*
%TO.P,S57,1*%
%TO.N,P8*%
X222027550Y-152963372D03*
%TO.P,S57,2*%
%TO.N,mirror_layer_cluster*%
X232750626Y-148140695D03*
%TD*%
D19*
%TO.P,MCU1,1*%
%TO.N,RAW*%
X180441027Y-107475894D03*
D20*
%TO.P,MCU1,2*%
%TO.N,GND*%
X180441027Y-110015894D03*
%TO.P,MCU1,3*%
%TO.N,RST*%
X180441028Y-112555894D03*
%TO.P,MCU1,4*%
%TO.N,VCC*%
X180441025Y-115095893D03*
%TO.P,MCU1,5*%
%TO.N,P21*%
X180441025Y-117635895D03*
%TO.P,MCU1,6*%
%TO.N,P20*%
X180441029Y-120175896D03*
%TO.P,MCU1,7*%
%TO.N,P19*%
X180441029Y-122715892D03*
%TO.P,MCU1,8*%
%TO.N,P18*%
X180441026Y-125255894D03*
%TO.P,MCU1,9*%
%TO.N,P15*%
X180441025Y-127795895D03*
%TO.P,MCU1,10*%
%TO.N,P14*%
X180441028Y-130335894D03*
%TO.P,MCU1,11*%
%TO.N,P16*%
X180441027Y-132875894D03*
%TO.P,MCU1,12*%
%TO.N,P10*%
X180441027Y-135415894D03*
%TO.P,MCU1,13*%
%TO.N,P1*%
X195681027Y-107475894D03*
%TO.P,MCU1,14*%
%TO.N,P0*%
X195681027Y-110015894D03*
%TO.P,MCU1,15*%
%TO.N,GND*%
X195681026Y-112555894D03*
%TO.P,MCU1,16*%
X195681029Y-115095893D03*
%TO.P,MCU1,17*%
%TO.N,P2*%
X195681028Y-117635894D03*
%TO.P,MCU1,18*%
%TO.N,P3*%
X195681025Y-120175896D03*
%TO.P,MCU1,19*%
%TO.N,P4*%
X195681025Y-122715892D03*
%TO.P,MCU1,20*%
%TO.N,P5*%
X195681029Y-125255893D03*
%TO.P,MCU1,21*%
%TO.N,P6*%
X195681029Y-127795895D03*
%TO.P,MCU1,22*%
%TO.N,P7*%
X195681026Y-130335894D03*
%TO.P,MCU1,23*%
%TO.N,P8*%
X195681027Y-132875894D03*
%TO.P,MCU1,24*%
%TO.N,P9*%
X195681027Y-135415894D03*
%TD*%
D15*
%TO.P,D25,1*%
%TO.N,P19*%
X153142009Y-124841262D03*
D16*
X155171746Y-125580025D03*
%TO.P,D25,2*%
%TO.N,inner_home*%
X158272730Y-126708693D03*
D13*
X160302467Y-127447456D03*
%TD*%
D14*
%TO.P,S10,1*%
%TO.N,P10*%
X101687173Y-109891065D03*
%TO.P,S10,2*%
%TO.N,ring_bottom*%
X111788179Y-115908725D03*
%TD*%
%TO.P,S25,1*%
%TO.N,P9*%
X157389868Y-114734606D03*
%TO.P,S25,2*%
%TO.N,inner_home*%
X167490874Y-120752266D03*
%TD*%
D10*
%TO.P,S46,1*%
%TO.N,P7*%
X238881685Y-83988880D03*
%TO.P,S46,2*%
%TO.N,mirror_middle_top*%
X250487582Y-82105874D03*
%TD*%
D21*
%TO.P,D58,1*%
%TO.N,P6*%
X203241573Y-168547118D03*
D22*
X204896229Y-169935540D03*
%TO.P,D58,2*%
%TO.N,mirror_space_cluster*%
X207424175Y-172056738D03*
D13*
X209078831Y-173445160D03*
%TD*%
D10*
%TO.P,S56,1*%
%TO.N,P9*%
X200948512Y-85025286D03*
%TO.P,S56,2*%
%TO.N,mirror_inner_num*%
X212554409Y-83142280D03*
%TD*%
D15*
%TO.P,D16,1*%
%TO.N,P19*%
X121023181Y-107830074D03*
D16*
X123052918Y-108568837D03*
%TO.P,D16,2*%
%TO.N,middle_home*%
X126153902Y-109697505D03*
D13*
X128183639Y-110436268D03*
%TD*%
D10*
%TO.P,S33,1*%
%TO.N,P14*%
X286375898Y-56592707D03*
%TO.P,S33,2*%
%TO.N,mirror_outer_num*%
X297981795Y-54709701D03*
%TD*%
D11*
%TO.P,D33,1*%
%TO.N,P1*%
X289618285Y-67065323D03*
D12*
X291648022Y-66326558D03*
%TO.P,D33,2*%
%TO.N,mirror_outer_num*%
X294749006Y-65197894D03*
D13*
X296778743Y-64459129D03*
%TD*%
D11*
%TO.P,D37,1*%
%TO.N,P1*%
X272703819Y-73221686D03*
D12*
X274733556Y-72482921D03*
%TO.P,D37,2*%
%TO.N,mirror_pinky_num*%
X277834540Y-71354257D03*
D13*
X279864277Y-70615492D03*
%TD*%
D10*
%TO.P,S47,1*%
%TO.N,P7*%
X233067349Y-68014099D03*
%TO.P,S47,2*%
%TO.N,mirror_middle_num*%
X244673246Y-66131093D03*
%TD*%
D11*
%TO.P,D38,1*%
%TO.N,P6*%
X277336617Y-138578678D03*
D12*
X279366354Y-137839913D03*
%TO.P,D38,2*%
%TO.N,mirror_ring_mod*%
X282467338Y-136711249D03*
D13*
X284497075Y-135972484D03*
%TD*%
D10*
%TO.P,S42,1*%
%TO.N,P10*%
X250836864Y-64206967D03*
%TO.P,S42,2*%
%TO.N,mirror_ring_num*%
X262442761Y-62323961D03*
%TD*%
D15*
%TO.P,D27,1*%
%TO.N,P21*%
X164770697Y-92891707D03*
D16*
X166800434Y-93630470D03*
%TO.P,D27,2*%
%TO.N,inner_num*%
X169901418Y-94759138D03*
D13*
X171931155Y-95497901D03*
%TD*%
D15*
%TO.P,D19,1*%
%TO.N,P15*%
X125453911Y-148285213D03*
D16*
X127483648Y-149023976D03*
%TO.P,D19,2*%
%TO.N,index_mod*%
X130584632Y-150152644D03*
D13*
X132614369Y-150891407D03*
%TD*%
D10*
%TO.P,S53,1*%
%TO.N,P9*%
X218391541Y-132949611D03*
%TO.P,S53,2*%
%TO.N,mirror_inner_bottom*%
X229997438Y-131066605D03*
%TD*%
%TO.P,S51,1*%
%TO.N,P8*%
X222822272Y-92494470D03*
%TO.P,S51,2*%
%TO.N,mirror_index_top*%
X234428169Y-90611464D03*
%TD*%
D23*
%TO.P,D57,1*%
%TO.N,P6*%
X227869966Y-162239947D03*
D24*
X229639334Y-161001024D03*
%TO.P,D57,2*%
%TO.N,mirror_layer_cluster*%
X232342534Y-159108220D03*
D13*
X234111902Y-157869297D03*
%TD*%
D15*
%TO.P,D4,1*%
%TO.N,P21*%
X79343313Y-64459131D03*
D16*
X81373050Y-65197894D03*
%TO.P,D4,2*%
%TO.N,outer_num*%
X84474034Y-66326562D03*
D13*
X86503771Y-67065325D03*
%TD*%
D15*
%TO.P,D10,1*%
%TO.N,P18*%
X97439315Y-119997716D03*
D16*
X99469052Y-120736479D03*
%TO.P,D10,2*%
%TO.N,ring_bottom*%
X102570036Y-121865147D03*
D13*
X104599773Y-122603910D03*
%TD*%
D14*
%TO.P,S27,1*%
%TO.N,P9*%
X169018550Y-82785059D03*
%TO.P,S27,2*%
%TO.N,inner_num*%
X179119556Y-88802719D03*
%TD*%
D10*
%TO.P,S43,1*%
%TO.N,P10*%
X256324719Y-131913198D03*
%TO.P,S43,2*%
%TO.N,mirror_middle_mod*%
X267930616Y-130030192D03*
%TD*%
D14*
%TO.P,S24,1*%
%TO.N,P9*%
X151575530Y-130709380D03*
%TO.P,S24,2*%
%TO.N,inner_bottom*%
X161676536Y-136727040D03*
%TD*%
D15*
%TO.P,D22,1*%
%TO.N,P20*%
X142896936Y-100360888D03*
D16*
X144926673Y-101099651D03*
%TO.P,D22,2*%
%TO.N,index_top*%
X148027657Y-102228319D03*
D13*
X150057394Y-102967082D03*
%TD*%
D14*
%TO.P,S17,1*%
%TO.N,P7*%
X131085381Y-81748643D03*
%TO.P,S17,2*%
%TO.N,middle_top*%
X141186387Y-87766303D03*
%TD*%
%TO.P,S1,1*%
%TO.N,P14*%
X66148136Y-102276802D03*
%TO.P,S1,2*%
%TO.N,outer_bottom*%
X76249142Y-108294462D03*
%TD*%
D15*
%TO.P,D9,1*%
%TO.N,P15*%
X91624974Y-135972488D03*
D16*
X93654711Y-136711251D03*
%TO.P,D9,2*%
%TO.N,ring_mod*%
X96755695Y-137839919D03*
D13*
X98785432Y-138578682D03*
%TD*%
D10*
%TO.P,S41,1*%
%TO.N,P10*%
X256651208Y-80181742D03*
%TO.P,S41,2*%
%TO.N,mirror_ring_top*%
X268257105Y-78298736D03*
%TD*%
%TO.P,S32,1*%
%TO.N,P14*%
X292190236Y-72567480D03*
%TO.P,S32,2*%
%TO.N,mirror_outer_top*%
X303796133Y-70684474D03*
%TD*%
D11*
%TO.P,D50,1*%
%TO.N,P4*%
X231878996Y-118941858D03*
D12*
X233908733Y-118203093D03*
%TO.P,D50,2*%
%TO.N,mirror_index_home*%
X237009717Y-117074429D03*
D13*
X239039454Y-116335664D03*
%TD*%
D11*
%TO.P,D32,1*%
%TO.N,P0*%
X295432623Y-83040095D03*
D12*
X297462360Y-82301330D03*
%TO.P,D32,2*%
%TO.N,mirror_outer_top*%
X300563344Y-81172666D03*
D13*
X302593081Y-80433901D03*
%TD*%
D10*
%TO.P,S44,1*%
%TO.N,P7*%
X250510374Y-115938428D03*
%TO.P,S44,2*%
%TO.N,mirror_middle_bottom*%
X262116271Y-114055422D03*
%TD*%
D11*
%TO.P,D56,1*%
%TO.N,P1*%
X204190899Y-95497899D03*
D12*
X206220636Y-94759134D03*
%TO.P,D56,2*%
%TO.N,mirror_inner_num*%
X209321620Y-93630470D03*
D13*
X211351357Y-92891705D03*
%TD*%
D15*
%TO.P,D18,1*%
%TO.N,P21*%
X132651861Y-75880523D03*
D16*
X134681598Y-76619286D03*
%TO.P,D18,2*%
%TO.N,middle_num*%
X137782582Y-77747954D03*
D13*
X139812319Y-78486717D03*
%TD*%
D15*
%TO.P,D17,1*%
%TO.N,P20*%
X126837519Y-91855298D03*
D16*
X128867256Y-92594061D03*
%TO.P,D17,2*%
%TO.N,middle_top*%
X131968240Y-93722729D03*
D13*
X133997977Y-94461492D03*
%TD*%
D10*
%TO.P,S45,1*%
%TO.N,P7*%
X244696030Y-99963646D03*
%TO.P,S45,2*%
%TO.N,mirror_middle_home*%
X256301927Y-98080640D03*
%TD*%
D14*
%TO.P,S23,1*%
%TO.N,P8*%
X152959135Y-74279459D03*
%TO.P,S23,2*%
%TO.N,index_num*%
X163060141Y-80297119D03*
%TD*%
D15*
%TO.P,D14,1*%
%TO.N,P15*%
X109394500Y-139779622D03*
D16*
X111424237Y-140518385D03*
%TO.P,D14,2*%
%TO.N,middle_mod*%
X114525221Y-141647053D03*
D13*
X116554958Y-142385816D03*
%TD*%
D14*
%TO.P,S5,1*%
%TO.N,P16*%
X83062605Y-108433160D03*
%TO.P,S5,2*%
%TO.N,pinky_bottom*%
X93163611Y-114450820D03*
%TD*%
D15*
%TO.P,D13,1*%
%TO.N,P21*%
X114882347Y-72073386D03*
D16*
X116912084Y-72812149D03*
%TO.P,D13,2*%
%TO.N,ring_num*%
X120013068Y-73940817D03*
D13*
X122042805Y-74679580D03*
%TD*%
D11*
%TO.P,D51,1*%
%TO.N,P0*%
X226064656Y-102967079D03*
D12*
X228094393Y-102228314D03*
%TO.P,D51,2*%
%TO.N,mirror_index_top*%
X231195377Y-101099650D03*
D13*
X233225114Y-100360885D03*
%TD*%
D14*
%TO.P,S13,1*%
%TO.N,P10*%
X119130199Y-61966740D03*
%TO.P,S13,2*%
%TO.N,ring_num*%
X129231205Y-67984400D03*
%TD*%
%TO.P,S8,1*%
%TO.N,P16*%
X100505633Y-60508836D03*
%TO.P,S8,2*%
%TO.N,pinky_num*%
X110606639Y-66526496D03*
%TD*%
D11*
%TO.P,D39,1*%
%TO.N,P5*%
X271522278Y-122603904D03*
D12*
X273552015Y-121865139D03*
%TO.P,D39,2*%
%TO.N,mirror_ring_bottom*%
X276652999Y-120736475D03*
D13*
X278682736Y-119997710D03*
%TD*%
D15*
%TO.P,D3,1*%
%TO.N,P20*%
X73528968Y-80433906D03*
D16*
X75558705Y-81172669D03*
%TO.P,D3,2*%
%TO.N,outer_top*%
X78659689Y-82301337D03*
D13*
X80689426Y-83040100D03*
%TD*%
D25*
%TO.P,OLED1,1*%
%TO.N,GND*%
X191861029Y-138845894D03*
D26*
%TO.P,OLED1,2*%
%TO.N,VCC*%
X189321028Y-138845899D03*
%TO.P,OLED1,3*%
%TO.N,P3*%
X186781028Y-138845896D03*
%TO.P,OLED1,4*%
%TO.N,P2*%
X184241028Y-138845895D03*
%TD*%
D14*
%TO.P,S11,1*%
%TO.N,P10*%
X107501519Y-93916289D03*
%TO.P,S11,2*%
%TO.N,ring_home*%
X117602525Y-99933949D03*
%TD*%
D15*
%TO.P,D2,1*%
%TO.N,P19*%
X67714623Y-96408676D03*
D16*
X69744360Y-97147439D03*
%TO.P,D2,2*%
%TO.N,outer_home*%
X72845344Y-98276107D03*
D13*
X74875081Y-99014870D03*
%TD*%
D11*
%TO.P,D43,1*%
%TO.N,P6*%
X259567099Y-142385814D03*
D12*
X261596836Y-141647049D03*
%TO.P,D43,2*%
%TO.N,mirror_middle_mod*%
X264697820Y-140518385D03*
D13*
X266727557Y-139779620D03*
%TD*%
D11*
%TO.P,D48,1*%
%TO.N,P6*%
X243507684Y-150891409D03*
D12*
X245537421Y-150152644D03*
%TO.P,D48,2*%
%TO.N,mirror_index_mod*%
X248638405Y-149023980D03*
D13*
X250668142Y-148285215D03*
%TD*%
D11*
%TO.P,D52,1*%
%TO.N,P1*%
X220250311Y-86992308D03*
D12*
X222280048Y-86253543D03*
%TO.P,D52,2*%
%TO.N,mirror_index_num*%
X225381032Y-85124879D03*
D13*
X227410769Y-84386114D03*
%TD*%
D15*
%TO.P,D23,1*%
%TO.N,P21*%
X148711277Y-84386114D03*
D16*
X150741014Y-85124877D03*
%TO.P,D23,2*%
%TO.N,index_num*%
X153841998Y-86253545D03*
D13*
X155871735Y-86992308D03*
%TD*%
D10*
%TO.P,S39,1*%
%TO.N,P10*%
X268279892Y-112131293D03*
%TO.P,S39,2*%
%TO.N,mirror_ring_bottom*%
X279885789Y-110248287D03*
%TD*%
D14*
%TO.P,S7,1*%
%TO.N,P16*%
X94691291Y-76483610D03*
%TO.P,S7,2*%
%TO.N,pinky_top*%
X104792297Y-82501270D03*
%TD*%
D11*
%TO.P,D30,1*%
%TO.N,P5*%
X307061309Y-114989645D03*
D12*
X309091046Y-114250880D03*
%TO.P,D30,2*%
%TO.N,mirror_outer_bottom*%
X312192030Y-113122216D03*
D13*
X314221767Y-112383451D03*
%TD*%
D10*
%TO.P,S36,1*%
%TO.N,P16*%
X275275769Y-78723839D03*
%TO.P,S36,2*%
%TO.N,mirror_pinky_top*%
X286881666Y-76840833D03*
%TD*%
%TO.P,S55,1*%
%TO.N,P9*%
X206762856Y-101000060D03*
%TO.P,S55,2*%
%TO.N,mirror_inner_top*%
X218368753Y-99117054D03*
%TD*%
D14*
%TO.P,S6,1*%
%TO.N,P16*%
X88876951Y-92458382D03*
%TO.P,S6,2*%
%TO.N,pinky_home*%
X98977957Y-98476042D03*
%TD*%
D10*
%TO.P,S48,1*%
%TO.N,P7*%
X240265294Y-140418793D03*
%TO.P,S48,2*%
%TO.N,mirror_index_mod*%
X251871191Y-138535787D03*
%TD*%
D11*
%TO.P,D35,1*%
%TO.N,P4*%
X284332502Y-105171236D03*
D12*
X286362239Y-104432471D03*
%TO.P,D35,2*%
%TO.N,mirror_pinky_home*%
X289463223Y-103303807D03*
D13*
X291492960Y-102565042D03*
%TD*%
D11*
%TO.P,D54,1*%
%TO.N,P4*%
X215819579Y-127447451D03*
D12*
X217849316Y-126708686D03*
%TO.P,D54,2*%
%TO.N,mirror_inner_home*%
X220950300Y-125580022D03*
D13*
X222980037Y-124841257D03*
%TD*%
D14*
%TO.P,S18,1*%
%TO.N,P7*%
X136899720Y-65773869D03*
%TO.P,S18,2*%
%TO.N,middle_num*%
X147000726Y-71791529D03*
%TD*%
D15*
%TO.P,D12,1*%
%TO.N,P20*%
X109068008Y-88048165D03*
D16*
X111097745Y-88786928D03*
%TO.P,D12,2*%
%TO.N,ring_top*%
X114198729Y-89915596D03*
D13*
X116228466Y-90654359D03*
%TD*%
D10*
%TO.P,S37,1*%
%TO.N,P16*%
X269461438Y-62749067D03*
%TO.P,S37,2*%
%TO.N,mirror_pinky_num*%
X281067335Y-60866061D03*
%TD*%
D27*
%TO.P,D29,1*%
%TO.N,P15*%
X167043217Y-173445160D03*
D28*
X168697875Y-172056742D03*
%TO.P,D29,2*%
%TO.N,space_cluster*%
X171225817Y-169935536D03*
D13*
X172880475Y-168547118D03*
%TD*%
D14*
%TO.P,S15,1*%
%TO.N,P7*%
X119456689Y-113698194D03*
%TO.P,S15,2*%
%TO.N,middle_bottom*%
X129557695Y-119715854D03*
%TD*%
D15*
%TO.P,D15,1*%
%TO.N,P18*%
X115208830Y-123804844D03*
D16*
X117238567Y-124543607D03*
%TO.P,D15,2*%
%TO.N,middle_bottom*%
X120339551Y-125672275D03*
D13*
X122369288Y-126411038D03*
%TD*%
D11*
%TO.P,D34,1*%
%TO.N,P5*%
X290146841Y-121146006D03*
D12*
X292176578Y-120407241D03*
%TO.P,D34,2*%
%TO.N,mirror_pinky_bottom*%
X295277562Y-119278577D03*
D13*
X297307299Y-118539812D03*
%TD*%
D14*
%TO.P,S16,1*%
%TO.N,P7*%
X125271034Y-97723420D03*
%TO.P,S16,2*%
%TO.N,middle_home*%
X135372040Y-103741080D03*
%TD*%
D10*
%TO.P,S38,1*%
%TO.N,P16*%
X274094237Y-128106067D03*
%TO.P,S38,2*%
%TO.N,mirror_ring_mod*%
X285700134Y-126223061D03*
%TD*%
%TO.P,S40,1*%
%TO.N,P10*%
X262465546Y-96156521D03*
%TO.P,S40,2*%
%TO.N,mirror_ring_home*%
X274071443Y-94273515D03*
%TD*%
D15*
%TO.P,D26,1*%
%TO.N,P20*%
X158956354Y-108866484D03*
D16*
X160986091Y-109605247D03*
%TO.P,D26,2*%
%TO.N,inner_top*%
X164087075Y-110733915D03*
D13*
X166116812Y-111472678D03*
%TD*%
D14*
%TO.P,S12,1*%
%TO.N,P10*%
X113315861Y-77941506D03*
%TO.P,S12,2*%
%TO.N,ring_top*%
X123416867Y-83959166D03*
%TD*%
%TO.P,S22,1*%
%TO.N,P8*%
X147144797Y-90254231D03*
%TO.P,S22,2*%
%TO.N,index_top*%
X157245803Y-96271891D03*
%TD*%
D11*
%TO.P,D31,1*%
%TO.N,P4*%
X301246962Y-99014869D03*
D12*
X303276699Y-98276104D03*
%TO.P,D31,2*%
%TO.N,mirror_outer_home*%
X306377683Y-97147440D03*
D13*
X308407420Y-96408675D03*
%TD*%
D11*
%TO.P,D55,1*%
%TO.N,P0*%
X210005238Y-111472677D03*
D12*
X212034975Y-110733912D03*
%TO.P,D55,2*%
%TO.N,mirror_inner_top*%
X215135959Y-109605248D03*
D13*
X217165696Y-108866483D03*
%TD*%
D11*
%TO.P,D47,1*%
%TO.N,P1*%
X236309733Y-78486719D03*
D12*
X238339470Y-77747954D03*
%TO.P,D47,2*%
%TO.N,mirror_middle_num*%
X241440454Y-76619290D03*
D13*
X243470191Y-75880525D03*
%TD*%
D15*
%TO.P,D21,1*%
%TO.N,P19*%
X137082592Y-116335661D03*
D16*
X139112329Y-117074424D03*
%TO.P,D21,2*%
%TO.N,index_home*%
X142213313Y-118203092D03*
D13*
X144243050Y-118941855D03*
%TD*%
D29*
%TO.P,S58,1*%
%TO.N,P9*%
X210689933Y-160502828D03*
%TO.P,S58,2*%
%TO.N,mirror_space_cluster*%
X218123612Y-169612319D03*
%TD*%
D10*
%TO.P,S52,1*%
%TO.N,P8*%
X217007931Y-76519692D03*
%TO.P,S52,2*%
%TO.N,mirror_index_num*%
X228613828Y-74636686D03*
%TD*%
D30*
%TO.P,S28,1*%
%TO.N,P8*%
X148729059Y-149206443D03*
%TO.P,S28,2*%
%TO.N,layer_cluster*%
X156928401Y-157633386D03*
%TD*%
D15*
%TO.P,D5,1*%
%TO.N,P18*%
X78814748Y-118539817D03*
D16*
X80844485Y-119278580D03*
%TO.P,D5,2*%
%TO.N,pinky_bottom*%
X83945469Y-120407248D03*
D13*
X85975206Y-121146011D03*
%TD*%
D10*
%TO.P,S35,1*%
%TO.N,P16*%
X281090122Y-94698615D03*
%TO.P,S35,2*%
%TO.N,mirror_pinky_home*%
X292696019Y-92815609D03*
%TD*%
D11*
%TO.P,D36,1*%
%TO.N,P0*%
X278518153Y-89196458D03*
D12*
X280547890Y-88457693D03*
%TO.P,D36,2*%
%TO.N,mirror_pinky_top*%
X283648874Y-87329029D03*
D13*
X285678611Y-86590264D03*
%TD*%
D10*
%TO.P,S34,1*%
%TO.N,P16*%
X286904463Y-110673394D03*
%TO.P,S34,2*%
%TO.N,mirror_pinky_bottom*%
X298510360Y-108790388D03*
%TD*%
D15*
%TO.P,D6,1*%
%TO.N,P19*%
X84629091Y-102565037D03*
D16*
X86658828Y-103303800D03*
%TO.P,D6,2*%
%TO.N,pinky_home*%
X89759812Y-104432468D03*
D13*
X91789549Y-105171231D03*
%TD*%
D31*
%TO.P,D28,1*%
%TO.N,P15*%
X142010154Y-157869302D03*
D32*
X143779520Y-159108226D03*
%TO.P,D28,2*%
%TO.N,layer_cluster*%
X146482722Y-161001026D03*
D13*
X148252088Y-162239950D03*
%TD*%
%TO.P,D8,2*%
%TO.N,pinky_num*%
X103418237Y-73221687D03*
D16*
X101388500Y-72482924D03*
%TO.P,D8,1*%
%TO.N,P21*%
X98287516Y-71354256D03*
D15*
X96257779Y-70615493D03*
%TD*%
%TO.P,D1,1*%
%TO.N,P18*%
X61900279Y-112383458D03*
D16*
X63930016Y-113122221D03*
%TO.P,D1,2*%
%TO.N,outer_bottom*%
X67031000Y-114250889D03*
D13*
X69060737Y-114989652D03*
%TD*%
D15*
%TO.P,D7,1*%
%TO.N,P20*%
X90443432Y-86590267D03*
D16*
X92473169Y-87329030D03*
%TO.P,D7,2*%
%TO.N,pinky_top*%
X95574153Y-88457698D03*
D13*
X97603890Y-89196461D03*
%TD*%
D14*
%TO.P,S26,1*%
%TO.N,P9*%
X163204208Y-98759828D03*
%TO.P,S26,2*%
%TO.N,inner_top*%
X173305214Y-104777488D03*
%TD*%
D11*
%TO.P,D46,1*%
%TO.N,P0*%
X242124072Y-94461490D03*
D12*
X244153809Y-93722725D03*
%TO.P,D46,2*%
%TO.N,mirror_middle_top*%
X247254793Y-92594061D03*
D13*
X249284530Y-91855296D03*
%TD*%
D10*
%TO.P,S31,1*%
%TO.N,P14*%
X298004584Y-88542255D03*
%TO.P,S31,2*%
%TO.N,mirror_outer_home*%
X309610481Y-86659249D03*
%TD*%
D14*
%TO.P,S9,1*%
%TO.N,P16*%
X95872835Y-125865839D03*
%TO.P,S9,2*%
%TO.N,ring_mod*%
X105973841Y-131883499D03*
%TD*%
D10*
%TO.P,S50,1*%
%TO.N,P8*%
X228636616Y-108469241D03*
%TO.P,S50,2*%
%TO.N,mirror_index_home*%
X240242513Y-106586235D03*
%TD*%
D15*
%TO.P,D11,1*%
%TO.N,P19*%
X103253663Y-104022940D03*
D16*
X105283400Y-104761703D03*
%TO.P,D11,2*%
%TO.N,ring_home*%
X108384384Y-105890371D03*
D13*
X110414121Y-106629134D03*
%TD*%
D14*
%TO.P,S19,1*%
%TO.N,P7*%
X129701765Y-138178558D03*
%TO.P,S19,2*%
%TO.N,index_mod*%
X139802771Y-144196218D03*
%TD*%
D11*
%TO.P,D44,1*%
%TO.N,P5*%
X253752752Y-126411037D03*
D12*
X255782489Y-125672272D03*
%TO.P,D44,2*%
%TO.N,mirror_middle_bottom*%
X258883473Y-124543608D03*
D13*
X260913210Y-123804843D03*
%TD*%
D15*
%TO.P,D20,1*%
%TO.N,P18*%
X131268254Y-132310436D03*
D16*
X133297991Y-133049199D03*
%TO.P,D20,2*%
%TO.N,index_bottom*%
X136398975Y-134177867D03*
D13*
X138428712Y-134916630D03*
%TD*%
D14*
%TO.P,S21,1*%
%TO.N,P8*%
X141330454Y-106229015D03*
%TO.P,S21,2*%
%TO.N,index_home*%
X151431460Y-112246675D03*
%TD*%
%TO.P,S3,1*%
%TO.N,P14*%
X77776821Y-70327250D03*
%TO.P,S3,2*%
%TO.N,outer_top*%
X87877827Y-76344910D03*
%TD*%
%TO.P,S2,1*%
%TO.N,P14*%
X71962483Y-86302023D03*
%TO.P,S2,2*%
%TO.N,outer_home*%
X82063489Y-92319683D03*
%TD*%
%TO.P,S4,1*%
%TO.N,P14*%
X83591167Y-54352476D03*
%TO.P,S4,2*%
%TO.N,outer_num*%
X93692173Y-60370136D03*
%TD*%
D11*
%TO.P,D49,1*%
%TO.N,P5*%
X237693340Y-134916632D03*
D12*
X239723077Y-134177867D03*
%TO.P,D49,2*%
%TO.N,mirror_index_bottom*%
X242824061Y-133049203D03*
D13*
X244853798Y-132310438D03*
%TD*%
D11*
%TO.P,D42,1*%
%TO.N,P1*%
X254079247Y-74679582D03*
D12*
X256108984Y-73940817D03*
%TO.P,D42,2*%
%TO.N,mirror_ring_num*%
X259209968Y-72812153D03*
D13*
X261239705Y-72073388D03*
%TD*%
D33*
%TO.N,P18*%
X152300530Y-127354549D03*
X149731596Y-132154550D03*
%TO.N,P10*%
X111564933Y-76365307D03*
%TO.N,P9*%
X204335066Y-98811349D03*
%TO.N,P16*%
X93662176Y-72337788D03*
%TO.N,P14*%
X77685254Y-65616913D03*
%TO.N,P6*%
X204896229Y-169935541D03*
%TO.N,P7*%
X233986256Y-86130482D03*
%TO.N,P8*%
X218660976Y-92559772D03*
%TD*%
%TO.N,pinky_num*%
D34*
X103418237Y-73221687D02*
X101388500Y-72482924D01*
%TO.N,GND*%
X195681025Y-114905126D02*
X195681024Y-114905125D01*
X195681026Y-115095891D02*
X195681025Y-114905126D01*
X195681022Y-112555890D02*
X193141023Y-110015894D01*
X193141023Y-110015894D02*
X180441027Y-110015897D01*
X191861030Y-118915890D02*
X195681026Y-115095891D01*
X195681024Y-114905125D02*
X195681022Y-112555890D01*
%TO.N,P1*%
X206220630Y-94759143D02*
X206220628Y-94759138D01*
X195681022Y-107475893D02*
X202201306Y-105102707D01*
%TO.N,GND*%
X191861029Y-138845893D02*
X191861030Y-118915890D01*
%TO.N,P1*%
X202201306Y-105102707D02*
X205283484Y-98492956D01*
X238339459Y-77747954D02*
X238339463Y-77747948D01*
X236309729Y-78486717D02*
X238339459Y-77747954D01*
X254079249Y-74679580D02*
X256108982Y-73940819D01*
%TO.N,P14*%
X89012675Y-126332798D02*
X84566417Y-138548804D01*
%TO.N,P1*%
X222280051Y-86253542D02*
X222280052Y-86253543D01*
%TO.N,P14*%
X66148141Y-102276801D02*
X61166469Y-104599794D01*
%TO.N,mirror_ring_num*%
X259209976Y-72812158D02*
X261239707Y-72073397D01*
%TO.N,P14*%
X71962483Y-86302022D02*
X67539420Y-88364525D01*
%TO.N,mirror_ring_num*%
X262442759Y-62323962D02*
X263908315Y-66350539D01*
%TO.N,P14*%
X209053081Y-180994917D02*
X195011908Y-169212970D01*
%TO.N,P1*%
X205280509Y-98491570D02*
X204190901Y-95497898D01*
%TO.N,P14*%
X75620474Y-65702933D02*
X77776820Y-70327248D01*
X57439003Y-114840920D02*
X89012675Y-126332798D01*
X166887356Y-181147304D02*
X181088272Y-169231318D01*
X81724188Y-59481960D02*
X79482473Y-60527288D01*
%TO.N,P1*%
X289618283Y-67065320D02*
X291648014Y-66326556D01*
%TO.N,mirror_ring_num*%
X263908315Y-66350539D02*
X261239703Y-72073389D01*
%TO.N,P1*%
X291648014Y-66326556D02*
X291648016Y-66326557D01*
%TO.N,mirror_ring_num*%
X261239707Y-72073397D02*
X261239703Y-72073389D01*
%TO.N,P14*%
X292190233Y-72567477D02*
X290127732Y-76990547D01*
X79482473Y-60527288D02*
X77654219Y-65550370D01*
%TO.N,P1*%
X272703811Y-73221683D02*
X274733549Y-72482919D01*
%TO.N,P14*%
X193944747Y-168589771D02*
X193803977Y-168641006D01*
X67539420Y-88364525D02*
X64085634Y-97853734D01*
X210508997Y-181580042D02*
X209166024Y-180953802D01*
%TO.N,P1*%
X205283484Y-98492956D02*
X205280509Y-98491570D01*
X274733549Y-72482919D02*
X274733549Y-72482919D01*
X204190895Y-95497895D02*
X206220630Y-94759143D01*
%TO.N,P14*%
X181111620Y-169201177D02*
X181480998Y-168914438D01*
X287767177Y-70504972D02*
X292190233Y-72567477D01*
X83591165Y-54352477D02*
X81724188Y-59481960D01*
X132721375Y-157933340D02*
X132931173Y-158019394D01*
X307681307Y-126882292D02*
X293421376Y-138198746D01*
X250045954Y-155338198D02*
X242841058Y-157960565D01*
X78966850Y-56508827D02*
X75620474Y-65702933D01*
X64085634Y-97853734D02*
X66148138Y-102276793D01*
X84566417Y-138548804D02*
X84872367Y-139204915D01*
X83591167Y-54352477D02*
X78966850Y-56508827D01*
%TO.N,P1*%
X256108982Y-73940819D02*
X256108982Y-73940817D01*
%TO.N,P14*%
X242841058Y-157960565D02*
X242647196Y-158376297D01*
X211566913Y-181194990D02*
X210508997Y-181580042D01*
X284313391Y-61015771D02*
X287767177Y-70504972D01*
X307745852Y-126743882D02*
X307681307Y-126882292D01*
X132931173Y-158019394D02*
X133561854Y-158248939D01*
X182199577Y-168654896D02*
X181740539Y-168654892D01*
X133697464Y-158539758D02*
X163715586Y-180581297D01*
X195011908Y-169212970D02*
X195010424Y-169201166D01*
X132517353Y-157860260D02*
X132719875Y-157933970D01*
X299354487Y-102435230D02*
X303818925Y-104517033D01*
X209166024Y-180953802D02*
X209053081Y-180994917D01*
X133561854Y-158248939D02*
X133697464Y-158539758D01*
X181100428Y-169205252D02*
X181111620Y-169201177D01*
X295922787Y-93006694D02*
X299354487Y-102435230D01*
X293581517Y-86479742D02*
X298004585Y-88542258D01*
X242647196Y-158376297D02*
X213635881Y-179678573D01*
X69806129Y-81677706D02*
X71962483Y-86302022D01*
X303818925Y-104517033D02*
X301361340Y-109787339D01*
X211569924Y-181195548D02*
X211566913Y-181194990D01*
X132719875Y-157933970D02*
X132721375Y-157933340D01*
X291652162Y-138842686D02*
X291535418Y-139093037D01*
X286375902Y-56592709D02*
X284313391Y-61015771D01*
X213635881Y-179678573D02*
X211569924Y-181195548D01*
X77776820Y-70327248D02*
X73152505Y-72483604D01*
X307489508Y-126624348D02*
X307745852Y-126743882D01*
X61166469Y-104599794D02*
X57439003Y-114840920D01*
X77654219Y-65550370D02*
X77685254Y-65616913D01*
X194641038Y-168914456D02*
X193944747Y-168589771D01*
X73152505Y-72483604D02*
X69806129Y-81677706D01*
X181088272Y-169231318D02*
X181100428Y-169205252D01*
X182665932Y-168634679D02*
X182199577Y-168654896D01*
%TO.N,outer_top*%
X80689420Y-83040094D02*
X86412274Y-80371493D01*
%TO.N,P14*%
X291535418Y-139093037D02*
X250045954Y-155338198D01*
X301361340Y-109787339D02*
X307489508Y-126624348D01*
X193797650Y-168634681D02*
X182665932Y-168634679D01*
%TO.N,outer_top*%
X86412274Y-80371493D02*
X87877832Y-76344905D01*
%TO.N,P14*%
X290127732Y-76990547D02*
X293581517Y-86479742D01*
X195010424Y-169201166D02*
X194641038Y-168914456D01*
X181740539Y-168654892D02*
X181480998Y-168914438D01*
X166178643Y-181477782D02*
X166887356Y-181147304D01*
X293421376Y-138198746D02*
X291652162Y-138842686D01*
X193803977Y-168641006D02*
X193797650Y-168634681D01*
%TO.N,outer_top*%
X78659688Y-82301337D02*
X80689420Y-83040094D01*
%TO.N,P14*%
X84872367Y-139204915D02*
X132517353Y-157860260D01*
X298004585Y-88542258D02*
X295922787Y-93006694D01*
X163715586Y-180581297D02*
X166178643Y-181477782D01*
%TO.N,P5*%
X239723075Y-134177870D02*
X239723079Y-134177864D01*
%TO.N,outer_num*%
X92226619Y-64396716D02*
X86503769Y-67065321D01*
%TO.N,P5*%
X307061310Y-114989646D02*
X309091041Y-114250882D01*
X195681027Y-125255895D02*
X196804194Y-125779635D01*
%TO.N,P21*%
X179606872Y-117332287D02*
X180441023Y-117635895D01*
%TO.N,P5*%
X221633921Y-143422228D02*
X223663657Y-142683461D01*
%TO.N,outer_home*%
X80597932Y-96346267D02*
X74875081Y-99014867D01*
%TO.N,P21*%
X79343307Y-64459126D02*
X81373049Y-65197893D01*
X96257778Y-70615493D02*
X98287508Y-71354256D01*
X132651859Y-75880522D02*
X134681598Y-76619284D01*
%TO.N,P5*%
X273552010Y-121865142D02*
X273552006Y-121865140D01*
X292176579Y-120407250D02*
X292176577Y-120407245D01*
%TO.N,outer_num*%
X84474034Y-66326553D02*
X86503769Y-67065321D01*
X93692168Y-60370125D02*
X92226619Y-64396716D01*
%TO.N,P21*%
X114882348Y-72073387D02*
X116912082Y-72812152D01*
X174472498Y-106321590D02*
X179606872Y-117332287D01*
%TO.N,P5*%
X309091041Y-114250882D02*
X309091041Y-114250882D01*
%TO.N,mirror_index_bottom*%
X242824065Y-133049203D02*
X244853799Y-132310437D01*
%TO.N,outer_home*%
X72845343Y-98276100D02*
X74875081Y-99014867D01*
%TO.N,mirror_index_bottom*%
X246056855Y-122561008D02*
X247522406Y-126587592D01*
%TO.N,P5*%
X290146842Y-121146007D02*
X292176579Y-120407250D01*
X196804194Y-125779635D02*
X199799768Y-134009912D01*
%TO.N,P21*%
X164770698Y-92891711D02*
X166800432Y-93630475D01*
%TO.N,P5*%
X223663657Y-142683461D02*
X223663660Y-142683468D01*
%TO.N,mirror_index_bottom*%
X247522406Y-126587592D02*
X244853802Y-132310438D01*
%TO.N,P21*%
X148711284Y-84386114D02*
X150741015Y-85124881D01*
%TO.N,mirror_index_bottom*%
X244853799Y-132310437D02*
X244853802Y-132310438D01*
%TO.N,outer_home*%
X82063488Y-92319676D02*
X80597932Y-96346267D01*
%TO.N,P5*%
X199799768Y-134009912D02*
X220707585Y-143759388D01*
%TO.N,P21*%
X168374414Y-94203351D02*
X172333997Y-102694704D01*
%TO.N,P5*%
X253752752Y-126411034D02*
X255782493Y-125672277D01*
X237693338Y-134916633D02*
X239723075Y-134177870D01*
X255782493Y-125672277D02*
X255782494Y-125672273D01*
%TO.N,P21*%
X172333997Y-102694704D02*
X175387997Y-103806273D01*
X175387997Y-103806273D02*
X174472498Y-106321590D01*
X166800436Y-93630467D02*
X168374414Y-94203351D01*
%TO.N,P5*%
X271522277Y-122603905D02*
X273552010Y-121865142D01*
X220707585Y-143759388D02*
X221633925Y-143422228D01*
%TO.N,P6*%
X227869970Y-162239944D02*
X229305209Y-161717568D01*
%TO.N,mirror_index_mod*%
X248638404Y-149023977D02*
X250668140Y-148285215D01*
X253336753Y-142562367D02*
X250668145Y-148285213D01*
%TO.N,mirror_index_num*%
X225381040Y-85124882D02*
X227410772Y-84386120D01*
X228613826Y-74636686D02*
X230079386Y-78663265D01*
X230079386Y-78663265D02*
X227410771Y-84386115D01*
%TO.N,mirror_outer_bottom*%
X315424824Y-102634020D02*
X316890379Y-106660602D01*
X314221767Y-112383454D02*
X314221767Y-112383454D01*
%TO.N,index_num*%
X161594581Y-84323702D02*
X155871737Y-86992312D01*
%TO.N,P6*%
X207092701Y-156587089D02*
X202484979Y-166468386D01*
%TO.N,mirror_outer_bottom*%
X312192034Y-113122215D02*
X314221767Y-112383454D01*
%TO.N,P6*%
X259567099Y-142385814D02*
X261596835Y-141647051D01*
X203241571Y-168547118D02*
X203511971Y-169290050D01*
%TO.N,index_num*%
X163060137Y-80297115D02*
X161594581Y-84323702D01*
%TO.N,P6*%
X229305209Y-161717568D02*
X229639334Y-161001030D01*
X277336621Y-138578684D02*
X279366356Y-137839918D01*
%TO.N,mirror_index_num*%
X227410772Y-84386120D02*
X227410771Y-84386115D01*
%TO.N,P6*%
X279366356Y-137839918D02*
X279366356Y-137839921D01*
X196804190Y-128319635D02*
X207092701Y-156587089D01*
X203511971Y-169290050D02*
X204896229Y-169935541D01*
X245537416Y-150152641D02*
X245537423Y-150152637D01*
%TO.N,mirror_outer_bottom*%
X316890379Y-106660602D02*
X314221767Y-112383454D01*
%TO.N,index_num*%
X153842002Y-86253551D02*
X155871737Y-86992312D01*
%TO.N,mirror_index_mod*%
X250668140Y-148285215D02*
X250668145Y-148285213D01*
%TO.N,P6*%
X261596835Y-141647051D02*
X261596835Y-141647047D01*
X202484979Y-166468386D02*
X203241574Y-168547116D01*
X243507682Y-150891405D02*
X245537416Y-150152641D01*
X195681026Y-127795897D02*
X196804190Y-128319635D01*
%TO.N,mirror_index_mod*%
X251871195Y-138535783D02*
X253336753Y-142562367D01*
%TO.N,P16*%
X286904461Y-110673394D02*
X281116314Y-123086108D01*
X133360094Y-157696625D02*
X133354485Y-157684607D01*
X274094234Y-128106069D02*
X271753434Y-133125933D01*
X242482223Y-157612344D02*
X242250479Y-158109315D01*
X166182864Y-180979293D02*
X163872925Y-180138547D01*
X100505632Y-60508836D02*
X95881321Y-62665186D01*
X95581237Y-126001808D02*
X95872825Y-125865836D01*
X275275776Y-78723847D02*
X273213263Y-83146911D01*
X273213263Y-83146911D02*
X276667048Y-92636107D01*
X85198635Y-138566079D02*
X88584081Y-129264632D01*
X92534935Y-71859295D02*
X94691292Y-76483607D01*
X275967942Y-144705201D02*
X266920956Y-148247539D01*
X275478167Y-125138231D02*
X274094233Y-128106066D01*
X211363082Y-180789146D02*
X210528852Y-181092779D01*
X97897728Y-67673992D02*
X94840837Y-69099447D01*
X86814445Y-88035325D02*
X88876946Y-92458384D01*
X209143312Y-180483191D02*
X195459169Y-169000834D01*
X80454703Y-115598314D02*
X83205486Y-121497403D01*
X81000099Y-104010101D02*
X83062605Y-108433162D01*
X266287623Y-148478050D02*
X266277653Y-148499426D01*
X134056631Y-158245204D02*
X133890924Y-157889832D01*
X279027615Y-99121683D02*
X282481395Y-108610884D01*
X276667048Y-92636107D02*
X281090118Y-94698618D01*
X90268226Y-78546117D02*
X86814445Y-88035325D01*
X249884930Y-154917980D02*
X242482223Y-157612344D01*
X83062605Y-108433162D02*
X83325720Y-108528929D01*
X267379628Y-67213514D02*
X270811338Y-76642049D01*
X163872925Y-180138547D02*
X134056631Y-158245204D01*
X94840837Y-69099447D02*
X93662176Y-72337788D01*
X210528852Y-181092779D02*
X209187277Y-180467191D01*
X266277653Y-148499426D02*
X252168073Y-154024017D01*
X195459169Y-169000834D02*
X194561495Y-168103156D01*
X102159046Y-145490233D02*
X101737227Y-144585630D01*
X213557444Y-179177883D02*
X211363082Y-180789146D01*
X133890924Y-157889832D02*
X133360094Y-157696625D01*
X209187277Y-180467191D02*
X209143312Y-180483191D01*
X242250479Y-158109315D02*
X213557444Y-179177883D01*
X88584081Y-129264632D02*
X95872834Y-125865834D01*
X84453888Y-94520897D02*
X81000099Y-104010101D01*
X133354485Y-157684607D02*
X132622996Y-157418358D01*
X194561495Y-168103156D02*
X181566126Y-168103154D01*
X250625149Y-154628147D02*
X249884930Y-154917980D01*
X281116314Y-123086108D02*
X275478167Y-125138231D01*
X250649046Y-154576899D02*
X250625149Y-154628147D01*
X83205486Y-121497403D02*
X95581237Y-126001808D01*
X282481395Y-108610884D02*
X286904461Y-110673394D01*
X132622996Y-157418358D02*
X102159046Y-145490233D01*
X269461435Y-62749068D02*
X267379628Y-67213514D01*
X180737438Y-168938268D02*
X166643487Y-180764499D01*
X281090118Y-94698618D02*
X279027615Y-99121683D01*
X166643487Y-180764499D02*
X166182864Y-180979293D01*
X266920956Y-148247539D02*
X266287623Y-148478050D01*
X100505632Y-60508836D02*
X97897728Y-67673992D01*
%TO.N,P10*%
X268279894Y-112131294D02*
X261655003Y-126338411D01*
%TO.N,P16*%
X252168073Y-154024017D02*
X250649046Y-154576899D01*
%TO.N,P10*%
X250836865Y-64206970D02*
X248755062Y-68671406D01*
%TO.N,mirror_pinky_top*%
X285678613Y-86590269D02*
X285678620Y-86590262D01*
%TO.N,P10*%
X258366083Y-127535479D02*
X256324718Y-131913200D01*
X248755062Y-68671406D02*
X252186766Y-78099939D01*
X252186766Y-78099939D02*
X256651208Y-80181744D01*
X119130198Y-61966739D02*
X114601743Y-64078393D01*
%TO.N,P16*%
X83062605Y-108433162D02*
X80454703Y-115598314D01*
X271753434Y-133125933D02*
X275967942Y-144705201D01*
%TO.N,P10*%
X256651208Y-80181744D02*
X254569405Y-84646180D01*
X258001110Y-94074721D02*
X262465547Y-96156527D01*
%TO.N,mirror_ring_bottom*%
X279885786Y-110248292D02*
X281351344Y-114274864D01*
%TO.N,mirror_pinky_top*%
X286881668Y-76840840D02*
X288347224Y-80867421D01*
%TO.N,P10*%
X254569405Y-84646180D02*
X258001110Y-94074721D01*
%TO.N,P16*%
X181566126Y-168103154D02*
X180737438Y-168931841D01*
%TO.N,mirror_pinky_top*%
X283648881Y-87329028D02*
X285678613Y-86590269D01*
%TO.N,P10*%
X263856826Y-110068782D02*
X268279894Y-112131294D01*
X261655003Y-126338411D02*
X258366083Y-127535479D01*
%TO.N,P16*%
X88876946Y-92458384D02*
X84453888Y-94520897D01*
X101737227Y-144585630D02*
X85198635Y-138566079D01*
X94691292Y-76483607D02*
X90268226Y-78546117D01*
%TO.N,mirror_pinky_top*%
X288347224Y-80867421D02*
X285678620Y-86590262D01*
%TO.N,P16*%
X270811338Y-76642049D02*
X275275776Y-78723847D01*
%TO.N,P10*%
X260403039Y-100579587D02*
X263856826Y-110068782D01*
X114601743Y-64078393D02*
X110758848Y-74636659D01*
X262465547Y-96156527D02*
X260403039Y-100579587D01*
%TO.N,P16*%
X180737438Y-168931841D02*
X180737438Y-168938268D01*
%TO.N,P10*%
X110758848Y-74636659D02*
X111564933Y-76365307D01*
%TO.N,P16*%
X95881321Y-62665186D02*
X92534935Y-71859295D01*
%TO.N,VCC*%
X189321030Y-138845897D02*
X189321027Y-123975895D01*
%TO.N,P19*%
X155935275Y-127217414D02*
X164276694Y-130253445D01*
%TO.N,pinky_top*%
X95574154Y-88457696D02*
X97603894Y-89196461D01*
X97603894Y-89196461D02*
X103326737Y-86527853D01*
%TO.N,P19*%
X67714625Y-96408678D02*
X69744366Y-97147439D01*
%TO.N,mirror_ring_bottom*%
X281351344Y-114274864D02*
X278682732Y-119997716D01*
%TO.N,P19*%
X121023181Y-107830072D02*
X123052914Y-108568834D01*
X155171748Y-125580027D02*
X155935275Y-127217414D01*
X84629092Y-102565040D02*
X86658828Y-103303804D01*
%TO.N,VCC*%
X189321027Y-123975895D02*
X180441022Y-115095894D01*
%TO.N,mirror_middle_mod*%
X267930612Y-130030195D02*
X269396171Y-134056767D01*
%TO.N,ring_home*%
X117602518Y-99933941D02*
X116136968Y-103960522D01*
%TO.N,mirror_ring_bottom*%
X278682737Y-119997717D02*
X278682732Y-119997716D01*
%TO.N,mirror_middle_mod*%
X264697824Y-140518387D02*
X266727559Y-139779619D01*
%TO.N,ring_home*%
X116136968Y-103960522D02*
X110414119Y-106629135D01*
%TO.N,mirror_middle_mod*%
X269396171Y-134056767D02*
X266727555Y-139779621D01*
%TO.N,P19*%
X153142008Y-124841258D02*
X155171748Y-125580023D01*
%TO.N,mirror_middle_mod*%
X266727559Y-139779619D02*
X266727555Y-139779621D01*
%TO.N,P19*%
X164276694Y-130253445D02*
X180441026Y-122715893D01*
X137082592Y-116335662D02*
X139112330Y-117074429D01*
%TO.N,P7*%
X131085376Y-81748642D02*
X126461064Y-83904999D01*
X234225325Y-85617798D02*
X233986256Y-86130482D01*
%TO.N,P19*%
X103253661Y-104022941D02*
X105283389Y-104761702D01*
%TO.N,P7*%
X117300336Y-109073872D02*
X119456688Y-113698189D01*
X242485965Y-135656557D02*
X240265294Y-140418792D01*
%TO.N,mirror_ring_bottom*%
X276653002Y-120736479D02*
X278682737Y-119997717D01*
%TO.N,ring_home*%
X108384383Y-105890373D02*
X110414119Y-106629135D01*
%TO.N,pinky_top*%
X103326737Y-86527853D02*
X104792298Y-82501267D01*
%TO.N,mirror_middle_home*%
X257767478Y-102107218D02*
X255098871Y-107830068D01*
X256301932Y-98080639D02*
X257767478Y-102107218D01*
X253069142Y-108568837D02*
X255098871Y-107830068D01*
%TO.N,P7*%
X253050438Y-122917191D02*
X248055193Y-133629527D01*
X232036398Y-79603766D02*
X234225325Y-85617798D01*
X128318516Y-132014923D02*
X130355331Y-136382898D01*
X248055193Y-133629527D02*
X242485965Y-135656557D01*
X119456688Y-113698189D02*
X116861065Y-120829605D01*
X123114679Y-93099103D02*
X125271036Y-97723418D01*
X120800972Y-129278757D02*
X128318516Y-132014923D01*
%TO.N,mirror_middle_home*%
X255098871Y-107830068D02*
X255098871Y-107830068D01*
%TO.N,P7*%
X242633522Y-104386717D02*
X246087307Y-113875919D01*
X126461064Y-83904999D02*
X123114679Y-93099103D01*
X120646722Y-99879769D02*
X117300336Y-109073872D01*
X125271036Y-97723418D02*
X120646722Y-99879769D01*
X116861065Y-120829605D02*
X120800972Y-129278757D01*
X233067346Y-68014100D02*
X234984521Y-73281492D01*
X230985543Y-72478541D02*
X234417248Y-81907073D01*
X129022865Y-77325576D02*
X131085376Y-81748642D01*
X244696035Y-99963647D02*
X242633522Y-104386717D01*
X250510375Y-115938428D02*
X253050438Y-122917191D01*
X233067350Y-68014099D02*
X230985543Y-72478541D01*
X234984521Y-73281492D02*
X232036398Y-79603766D01*
X240231596Y-97881848D02*
X244696035Y-99963647D01*
X136899717Y-65773867D02*
X132476650Y-67836378D01*
X234417248Y-81907073D02*
X238881691Y-83988879D01*
X236799889Y-88453315D02*
X240231596Y-97881848D01*
X238881691Y-83988879D02*
X236799889Y-88453315D01*
X132476650Y-67836378D02*
X129022865Y-77325576D01*
X246087307Y-113875919D02*
X250510375Y-115938428D01*
X130355331Y-136382898D02*
X129701768Y-138178560D01*
%TO.N,P15*%
X167313625Y-172702226D02*
X168697869Y-172056739D01*
X143445392Y-158391686D02*
X143779516Y-159108223D01*
X166140120Y-161167838D02*
X177846102Y-129005927D01*
X125453911Y-148285212D02*
X127483642Y-149023978D01*
X177846102Y-129005927D02*
X180441023Y-127795893D01*
X168697877Y-172056743D02*
X170333756Y-167562199D01*
X166796574Y-162575607D02*
X166140120Y-161167838D01*
X170333756Y-167562199D02*
X168256202Y-163106867D01*
X142010151Y-157869301D02*
X143445392Y-158391686D01*
X109394495Y-139779620D02*
X111424228Y-140518380D01*
%TO.N,middle_mod*%
X114525214Y-141647046D02*
X116554948Y-142385816D01*
%TO.N,ring_num*%
X129231204Y-67984389D02*
X127765648Y-72010971D01*
%TO.N,pinky_bottom*%
X91698055Y-118477401D02*
X85975211Y-121146007D01*
%TO.N,P15*%
X91624975Y-135972493D02*
X93654712Y-136711252D01*
%TO.N,pinky_bottom*%
X83945471Y-120407246D02*
X85975211Y-121146007D01*
%TO.N,P15*%
X167043216Y-173445162D02*
X167313625Y-172702226D01*
X168256202Y-163106867D02*
X166796574Y-162575607D01*
%TO.N,pinky_bottom*%
X93163614Y-114450816D02*
X91698055Y-118477401D01*
%TO.N,middle_mod*%
X122277799Y-139717209D02*
X116554948Y-142385816D01*
%TO.N,ring_num*%
X127765648Y-72010971D02*
X122042806Y-74679587D01*
X120013071Y-73940821D02*
X122042806Y-74679587D01*
%TO.N,middle_mod*%
X123743353Y-135690623D02*
X122277799Y-139717209D01*
%TO.N,P9*%
X152509211Y-116976935D02*
X154751540Y-114734607D01*
X152509211Y-117010496D02*
X152509211Y-116976935D01*
X151575530Y-117944176D02*
X152509211Y-117010496D01*
X154751540Y-114734607D02*
X157389870Y-114734606D01*
X151575529Y-130709380D02*
X151575530Y-117944176D01*
%TO.N,P20*%
X142896940Y-100360887D02*
X144926675Y-101099652D01*
X160986091Y-109605247D02*
X162945966Y-113808212D01*
%TO.N,middle_top*%
X131968245Y-93722724D02*
X133997980Y-94461489D01*
X141186383Y-87766300D02*
X139720828Y-91792880D01*
X139720828Y-91792880D02*
X133997980Y-94461489D01*
%TO.N,P0*%
X226064655Y-102967084D02*
X228094388Y-102228316D01*
X297462358Y-82301327D02*
X297462359Y-82301330D01*
%TO.N,mirror_index_top*%
X234428168Y-90611463D02*
X235893730Y-94638041D01*
%TO.N,P0*%
X210005240Y-111472673D02*
X212034969Y-110733912D01*
X212034969Y-110733912D02*
X212034972Y-110733911D01*
%TO.N,mirror_index_top*%
X235893730Y-94638041D02*
X233225117Y-100360889D01*
%TO.N,P0*%
X242124073Y-94461494D02*
X244153811Y-93722725D01*
X295432626Y-83040096D02*
X297462358Y-82301327D01*
X244153811Y-93722725D02*
X244153812Y-93722724D01*
X195681025Y-110015894D02*
X203714926Y-113762164D01*
X261923319Y-89915599D02*
X261923325Y-89915594D01*
X203714926Y-113762164D02*
X210005238Y-111472678D01*
X280547894Y-88457697D02*
X280547897Y-88457693D01*
%TO.N,P20*%
X162945966Y-113808212D02*
X180441027Y-120175895D01*
%TO.N,mirror_index_top*%
X231195381Y-101099652D02*
X233225112Y-100360891D01*
%TO.N,P20*%
X109068001Y-88048167D02*
X111097743Y-88786926D01*
%TO.N,P0*%
X259893587Y-90654359D02*
X261923319Y-89915599D01*
X228094388Y-102228316D02*
X228094389Y-102228315D01*
%TO.N,mirror_index_top*%
X233225112Y-100360891D02*
X233225117Y-100360889D01*
%TO.N,P0*%
X278518158Y-89196456D02*
X280547894Y-88457697D01*
%TO.N,P20*%
X73528964Y-80433901D02*
X75558703Y-81172663D01*
X126837528Y-91855295D02*
X128867255Y-92594059D01*
X158956350Y-108866481D02*
X160986094Y-109605246D01*
X90443435Y-86590265D02*
X92473173Y-87329026D01*
%TO.N,P8*%
X221567237Y-151698672D02*
X222027552Y-152963371D01*
X217007934Y-76519690D02*
X214945420Y-80942760D01*
X133359754Y-117579469D02*
X135516108Y-122203790D01*
X144988440Y-85629922D02*
X147144794Y-90254238D01*
X234450954Y-124444017D02*
X236503523Y-130083391D01*
X214945420Y-80942760D02*
X218399207Y-90431961D01*
X218399207Y-90431961D02*
X222822274Y-92494469D01*
X226574105Y-112892309D02*
X230027890Y-122381509D01*
X132908205Y-129368942D02*
X137005952Y-138156591D01*
X144919528Y-141036897D02*
X148729058Y-149206452D01*
X147144794Y-90254238D02*
X142721734Y-92316742D01*
X228636616Y-108469249D02*
X226574105Y-112892309D01*
X135516108Y-122203790D02*
X135779227Y-122299553D01*
X230238013Y-143519820D02*
X224388273Y-145648951D01*
X142721734Y-92316742D02*
X139267945Y-101805948D01*
X141330456Y-106229014D02*
X136706130Y-108385361D01*
X222822274Y-92494469D02*
X220759760Y-96917531D01*
X152959136Y-74279463D02*
X148334816Y-76435813D01*
X230027890Y-122381509D02*
X234450954Y-124444017D01*
X214657479Y-81560253D02*
X218660976Y-92559772D01*
X139267945Y-101805948D02*
X141330456Y-106229014D01*
X224213555Y-106406737D02*
X228636616Y-108469249D01*
%TO.N,mirror_outer_num*%
X296778739Y-64459130D02*
X296778737Y-64459130D01*
X297981798Y-54709701D02*
X299447351Y-58736272D01*
%TO.N,P8*%
X135516108Y-122203790D02*
X132908205Y-129368942D01*
X236503523Y-130083391D02*
X230238013Y-143519820D01*
X136706130Y-108385361D02*
X133359754Y-117579469D01*
X148243749Y-149029806D02*
X148729058Y-149206452D01*
X137005952Y-138156591D02*
X144919528Y-141036897D01*
X220759760Y-96917531D02*
X224213555Y-106406737D01*
X224388273Y-145648951D02*
X221567237Y-151698672D01*
X217007931Y-76519690D02*
X214657479Y-81560253D01*
X148334816Y-76435813D02*
X144988440Y-85629922D01*
%TO.N,middle_home*%
X126153902Y-109697501D02*
X128183636Y-110436265D01*
%TO.N,P9*%
X154200946Y-149097436D02*
X162128102Y-151982686D01*
X200948512Y-85025286D02*
X203549726Y-92172068D01*
%TO.N,middle_home*%
X133906477Y-107767658D02*
X128183636Y-110436265D01*
%TO.N,P9*%
X162128102Y-151982686D02*
X158774627Y-161196302D01*
X202155551Y-95161886D02*
X203309847Y-98333283D01*
X163204212Y-98759832D02*
X158579892Y-100916185D01*
X155233513Y-110110286D02*
X157389865Y-114734603D01*
%TO.N,mirror_middle_top*%
X247254797Y-92594060D02*
X249284534Y-91855301D01*
%TO.N,P9*%
X164595493Y-84847559D02*
X161141704Y-94336772D01*
%TO.N,mirror_middle_top*%
X249284534Y-91855301D02*
X249284534Y-91855295D01*
%TO.N,mirror_space_cluster*%
X218123611Y-169612319D02*
X217554832Y-170832078D01*
X217554832Y-170832078D02*
X209647232Y-173710207D01*
X207694581Y-172799674D02*
X209078831Y-173445161D01*
%TO.N,middle_home*%
X135372039Y-103741074D02*
X133906477Y-107767658D01*
%TO.N,P9*%
X203309847Y-98333283D02*
X204335066Y-98811349D01*
X161141704Y-94336772D02*
X163204212Y-98759832D01*
X158579892Y-100916185D02*
X155233513Y-110110286D01*
%TO.N,mirror_middle_top*%
X250487584Y-82105870D02*
X251953140Y-86132448D01*
X251953140Y-86132448D02*
X249284534Y-91855295D01*
%TO.N,mirror_space_cluster*%
X209647232Y-173710207D02*
X209078831Y-173445161D01*
%TO.N,P9*%
X203549726Y-92172068D02*
X202155551Y-95161886D01*
%TO.N,mirror_outer_num*%
X294749009Y-65197895D02*
X296778739Y-64459130D01*
%TO.N,mirror_space_cluster*%
X207424170Y-172056738D02*
X207694581Y-172799674D01*
%TO.N,P9*%
X148967626Y-137874536D02*
X154200946Y-149097436D01*
%TO.N,mirror_outer_num*%
X299447351Y-58736272D02*
X296778737Y-64459130D01*
%TO.N,ring_bottom*%
X110322623Y-119935301D02*
X104599771Y-122603909D01*
%TO.N,mirror_pinky_num*%
X279864272Y-70615491D02*
X279864273Y-70615494D01*
%TO.N,ring_bottom*%
X111788179Y-115908718D02*
X110322623Y-119935301D01*
%TO.N,middle_num*%
X147000722Y-71791526D02*
X145535170Y-75818113D01*
X145535170Y-75818113D02*
X139812319Y-78486715D01*
%TO.N,P9*%
X169018557Y-82785058D02*
X164595493Y-84847559D01*
%TO.N,mirror_middle_bottom*%
X262116271Y-114055421D02*
X263581825Y-118081991D01*
%TO.N,mirror_inner_num*%
X211351350Y-92891710D02*
X211351353Y-92891709D01*
X209321624Y-93630471D02*
X211351350Y-92891710D01*
%TO.N,inner_home*%
X166025319Y-124778847D02*
X160302472Y-127447452D01*
%TO.N,mirror_inner_num*%
X212554416Y-83142282D02*
X214019966Y-87168859D01*
%TO.N,mirror_pinky_num*%
X282532883Y-64892639D02*
X279864273Y-70615494D01*
%TO.N,mirror_ring_mod*%
X282467340Y-136711251D02*
X284497072Y-135972494D01*
X284497072Y-135972494D02*
X284497077Y-135972493D01*
%TO.N,P9*%
X151575528Y-130709376D02*
X148967626Y-137874536D01*
%TO.N,mirror_middle_num*%
X244673245Y-66131092D02*
X246138795Y-70157678D01*
%TO.N,P9*%
X158774627Y-161196302D02*
X160414528Y-164713076D01*
%TO.N,mirror_pinky_num*%
X281067332Y-60866066D02*
X282532883Y-64892639D01*
%TO.N,ring_bottom*%
X102570043Y-121865148D02*
X104599771Y-122603909D01*
%TO.N,inner_home*%
X167490877Y-120752261D02*
X166025319Y-124778847D01*
%TO.N,mirror_inner_num*%
X214019966Y-87168859D02*
X211351353Y-92891709D01*
%TO.N,mirror_pinky_num*%
X277834537Y-71354250D02*
X279864272Y-70615491D01*
%TO.N,mirror_middle_bottom*%
X260913210Y-123804845D02*
X260913210Y-123804845D01*
X258883476Y-124543613D02*
X260913210Y-123804845D01*
%TO.N,inner_home*%
X158272734Y-126708690D02*
X160302472Y-127447452D01*
%TO.N,mirror_ring_mod*%
X285700130Y-126223062D02*
X287165681Y-130249637D01*
%TO.N,mirror_middle_bottom*%
X263581825Y-118081991D02*
X260913210Y-123804845D01*
%TO.N,middle_num*%
X137782583Y-77747948D02*
X139812319Y-78486715D01*
%TO.N,mirror_middle_num*%
X241440455Y-76619286D02*
X243470188Y-75880525D01*
%TO.N,mirror_ring_mod*%
X287165681Y-130249637D02*
X284497077Y-135972493D01*
%TO.N,mirror_middle_num*%
X246138795Y-70157678D02*
X243470187Y-75880522D01*
X243470188Y-75880525D02*
X243470187Y-75880522D01*
%TO.N,index_top*%
X148027663Y-102228320D02*
X150057394Y-102967084D01*
%TO.N,P4*%
X284332499Y-105171232D02*
X286362236Y-104432471D01*
%TO.N,mirror_inner_bottom*%
X229997435Y-131066605D02*
X231462994Y-135093181D01*
X228794383Y-140816038D02*
X228794386Y-140816034D01*
%TO.N,P4*%
X247938418Y-110436268D02*
X249968146Y-109697497D01*
%TO.N,mirror_ring_top*%
X269722657Y-82325321D02*
X267054045Y-88048167D01*
%TO.N,index_mod*%
X130584630Y-150152650D02*
X132614367Y-150891412D01*
%TO.N,outer_bottom*%
X76249143Y-108294453D02*
X74783583Y-112321037D01*
%TO.N,mirror_inner_bottom*%
X231462994Y-135093181D02*
X228794386Y-140816034D01*
X226764647Y-141554797D02*
X228794383Y-140816038D01*
%TO.N,index_top*%
X155780243Y-100298472D02*
X150057394Y-102967084D01*
%TO.N,mirror_outer_top*%
X303796130Y-70684471D02*
X305261692Y-74711056D01*
X300563353Y-81172667D02*
X302593078Y-80433907D01*
%TO.N,P4*%
X217849315Y-126708687D02*
X217849316Y-126708681D01*
X267737666Y-105890371D02*
X267737670Y-105890364D01*
X265707934Y-106629134D02*
X267737666Y-105890371D01*
X201292646Y-120673429D02*
X215819579Y-127447450D01*
%TO.N,ring_mod*%
X96755696Y-137839920D02*
X98785438Y-138578682D01*
%TO.N,P4*%
X249968146Y-109697497D02*
X249968155Y-109697499D01*
X303276701Y-98276105D02*
X303276704Y-98276106D01*
%TO.N,ring_mod*%
X105973832Y-131883489D02*
X104508285Y-135910072D01*
%TO.N,mirror_ring_top*%
X267054050Y-88048169D02*
X267054045Y-88048167D01*
%TO.N,index_top*%
X157245794Y-96271891D02*
X155780243Y-100298472D01*
%TO.N,mirror_outer_top*%
X302593078Y-80433907D02*
X302593083Y-80433898D01*
X305261692Y-74711056D02*
X302593083Y-80433898D01*
%TO.N,index_mod*%
X139802773Y-144196218D02*
X138337218Y-148222801D01*
%TO.N,P4*%
X301246964Y-99014870D02*
X303276701Y-98276105D01*
X195681024Y-122715891D02*
X201292646Y-120673429D01*
%TO.N,outer_bottom*%
X74783583Y-112321037D02*
X69060740Y-114989640D01*
%TO.N,mirror_index_home*%
X240242513Y-106586237D02*
X241708063Y-110612816D01*
X241708063Y-110612816D02*
X239039459Y-116335664D01*
%TO.N,P4*%
X286362236Y-104432471D02*
X286362235Y-104432467D01*
%TO.N,mirror_ring_top*%
X265024311Y-88786929D02*
X267054050Y-88048169D01*
%TO.N,P4*%
X215819578Y-127447450D02*
X217849315Y-126708687D01*
%TO.N,mirror_ring_top*%
X268257102Y-78298736D02*
X269722657Y-82325321D01*
%TO.N,index_mod*%
X138337218Y-148222801D02*
X132614367Y-150891412D01*
%TO.N,ring_mod*%
X104508285Y-135910072D02*
X98785438Y-138578682D01*
%TO.N,outer_bottom*%
X67031002Y-114250880D02*
X69060740Y-114989640D01*
%TO.N,inner_bottom*%
X161676525Y-136727033D02*
X160210975Y-140753612D01*
%TO.N,mirror_layer_cluster*%
X232750624Y-148140697D02*
X235336054Y-155244110D01*
%TO.N,inner_bottom*%
X160210975Y-140753612D02*
X154488131Y-143422228D01*
%TO.N,P18*%
X149357404Y-141554794D02*
X148117235Y-138895241D01*
%TO.N,mirror_pinky_bottom*%
X297307301Y-118539818D02*
X297307305Y-118539816D01*
X298510354Y-108790385D02*
X299975908Y-112816967D01*
X295277567Y-119278580D02*
X297307301Y-118539818D01*
X299975908Y-112816967D02*
X297307305Y-118539816D01*
%TO.N,inner_bottom*%
X152458390Y-142683462D02*
X154488131Y-143422228D01*
%TO.N,P18*%
X166759142Y-131635861D02*
X180441026Y-125255894D01*
X154061720Y-127014377D02*
X166759142Y-131635861D01*
X131268253Y-132310439D02*
X133297986Y-133049203D01*
%TO.N,mirror_layer_cluster*%
X232342537Y-159108220D02*
X233777774Y-158585841D01*
%TO.N,inner_num*%
X177654003Y-92829297D02*
X171931151Y-95497904D01*
%TO.N,mirror_layer_cluster*%
X235336054Y-155244110D02*
X234111902Y-157869300D01*
%TO.N,P18*%
X115208837Y-123804843D02*
X117238570Y-124543606D01*
%TO.N,mirror_layer_cluster*%
X233777774Y-158585841D02*
X234111902Y-157869300D01*
%TO.N,pinky_home*%
X89759813Y-104432467D02*
X91789551Y-105171238D01*
%TO.N,inner_num*%
X169901419Y-94759136D02*
X171931151Y-95497904D01*
%TO.N,P18*%
X78814752Y-118539816D02*
X80844489Y-119278576D01*
%TO.N,mirror_pinky_home*%
X294161568Y-96842180D02*
X291492958Y-102565034D01*
X291492954Y-102565041D02*
X291492958Y-102565034D01*
%TO.N,P18*%
X148117235Y-138895241D02*
X150195012Y-133186606D01*
X147327670Y-140816031D02*
X149357404Y-141554798D01*
X97439320Y-119997711D02*
X99469053Y-120736473D01*
%TO.N,pinky_home*%
X97512393Y-102502620D02*
X91789551Y-105171238D01*
%TO.N,inner_num*%
X179119559Y-88802708D02*
X177654003Y-92829297D01*
%TO.N,mirror_pinky_home*%
X289463219Y-103303804D02*
X291492954Y-102565041D01*
%TO.N,pinky_home*%
X98977955Y-98476042D02*
X97512393Y-102502620D01*
%TO.N,P18*%
X61900279Y-112383449D02*
X63930018Y-113122216D01*
%TO.N,mirror_pinky_home*%
X292696019Y-92815610D02*
X294161568Y-96842180D01*
%TO.N,mirror_inner_top*%
X215135964Y-109605247D02*
X217165695Y-108866490D01*
%TO.N,mirror_inner_home*%
X220950302Y-125580020D02*
X222980039Y-124841259D01*
%TO.N,mirror_outer_home*%
X308407423Y-96408677D02*
X308407429Y-96408676D01*
%TO.N,middle_bottom*%
X120339555Y-125672271D02*
X122369293Y-126411035D01*
%TO.N,mirror_inner_home*%
X224183089Y-115091828D02*
X225648642Y-119118407D01*
%TO.N,mirror_outer_home*%
X309610477Y-86659255D02*
X311076036Y-90685825D01*
%TO.N,layer_cluster*%
X156468087Y-158898091D02*
X148841425Y-162454457D01*
X147917960Y-161523416D02*
X148252089Y-162239953D01*
%TO.N,mirror_ring_home*%
X272868392Y-104022943D02*
X272868393Y-104022938D01*
X274071449Y-94273511D02*
X275537000Y-98300092D01*
%TO.N,layer_cluster*%
X148841425Y-162454457D02*
X148252089Y-162239953D01*
%TO.N,space_cluster*%
X173871164Y-165825222D02*
X172880478Y-168547120D01*
X171225819Y-169935542D02*
X171496226Y-169192608D01*
%TO.N,mirror_inner_top*%
X217165695Y-108866490D02*
X217165700Y-108866485D01*
%TO.N,mirror_ring_home*%
X270838659Y-104761705D02*
X272868392Y-104022943D01*
%TO.N,inner_top*%
X173305213Y-104777487D02*
X171839657Y-108804068D01*
%TO.N,index_home*%
X142213317Y-118203090D02*
X144243059Y-118941860D01*
%TO.N,middle_bottom*%
X128092139Y-123742431D02*
X122369293Y-126411035D01*
X129557697Y-119715847D02*
X128092139Y-123742431D01*
%TO.N,layer_cluster*%
X146482722Y-161001028D02*
X147917960Y-161523416D01*
%TO.N,mirror_inner_top*%
X219834307Y-103143631D02*
X217165700Y-108866485D01*
%TO.N,index_bottom*%
X145617118Y-128221441D02*
X144151560Y-132248018D01*
X144151560Y-132248018D02*
X138428717Y-134916632D01*
%TO.N,inner_top*%
X171839657Y-108804068D02*
X166116815Y-111472676D01*
%TO.N,ring_top*%
X114198724Y-89915594D02*
X116228459Y-90654357D01*
%TO.N,mirror_inner_home*%
X225648642Y-119118407D02*
X222980040Y-124841253D01*
%TO.N,space_cluster*%
X171496226Y-169192608D02*
X172880478Y-168547120D01*
%TO.N,mirror_inner_home*%
X222980039Y-124841259D02*
X222980040Y-124841253D01*
%TO.N,layer_cluster*%
X156928400Y-157633392D02*
X156468087Y-158898091D01*
%TO.N,mirror_outer_home*%
X311076036Y-90685825D02*
X308407429Y-96408676D01*
%TO.N,ring_top*%
X123416865Y-83959167D02*
X121951307Y-87985752D01*
X121951307Y-87985752D02*
X116228459Y-90654357D01*
%TO.N,mirror_outer_home*%
X306377697Y-97147441D02*
X308407423Y-96408677D01*
%TO.N,index_home*%
X151431453Y-112246668D02*
X149965900Y-116273247D01*
%TO.N,mirror_inner_top*%
X218368749Y-99117054D02*
X219834307Y-103143631D01*
%TO.N,space_cluster*%
X170676479Y-158974187D02*
X173871164Y-165825222D01*
%TO.N,mirror_ring_home*%
X275537000Y-98300092D02*
X272868393Y-104022938D01*
%TO.N,inner_top*%
X164087073Y-110733911D02*
X166116815Y-111472676D01*
%TO.N,index_bottom*%
X136398974Y-134177869D02*
X138428717Y-134916632D01*
%TO.N,index_home*%
X149965900Y-116273247D02*
X144243059Y-118941860D01*
%TO.N,P18*%
X152640703Y-127014377D02*
X152300530Y-127354549D01*
X149731596Y-132154550D02*
X149731596Y-132723190D01*
X154061720Y-127014377D02*
X152640703Y-127014377D01*
X149731596Y-132723190D02*
X150195012Y-133186606D01*
%TO.N,mirror_index_home*%
X237009719Y-117074429D02*
X239039455Y-116335663D01*
%TO.N,P8*%
X196372097Y-168004572D02*
X195120681Y-166753152D01*
X222027552Y-152963375D02*
X220930754Y-155315464D01*
X146841885Y-148519580D02*
X148729056Y-149206449D01*
X220930754Y-155315464D02*
X225562656Y-168041515D01*
X210539438Y-179608149D02*
X209776994Y-179252617D01*
X166054905Y-179496082D02*
X164516207Y-178936043D01*
X141548408Y-150987964D02*
X146841885Y-148519580D01*
X195120681Y-166753152D02*
X194747889Y-166753155D01*
X210838995Y-179499120D02*
X210539438Y-179608149D01*
X179281161Y-168397928D02*
X166054905Y-179496082D01*
X225104298Y-169024471D02*
X210838995Y-179499120D01*
X164516207Y-178936043D02*
X138443393Y-159791445D01*
X180344326Y-166753155D02*
X179613990Y-167483491D01*
X138443393Y-159791445D02*
X138387685Y-159671980D01*
X179613990Y-167483491D02*
X179281161Y-168397928D01*
X225562656Y-168041515D02*
X225104298Y-169024471D01*
X209776994Y-179252617D02*
X196372097Y-168004572D01*
X138387685Y-159671980D02*
X141548408Y-150987964D01*
X194747889Y-166753155D02*
X180344326Y-166753155D01*
%TO.N,P9*%
X178706015Y-168293100D02*
X178706015Y-167755071D01*
X165891918Y-178957879D02*
X166126715Y-178848392D01*
X222851439Y-147879905D02*
X224833036Y-143630355D01*
X157366974Y-173086165D02*
X157396823Y-173150179D01*
X218391541Y-132949611D02*
X219825953Y-129873503D01*
X219825953Y-129873503D02*
X218261208Y-125574405D01*
X202120447Y-172025677D02*
X205505677Y-170793553D01*
X206632528Y-93624853D02*
X203556410Y-92190435D01*
X218261208Y-125574405D02*
X215185095Y-124139990D01*
X212577194Y-116974841D02*
X214011612Y-113898727D01*
X203556410Y-92190435D02*
X200948512Y-85025286D01*
X214011612Y-113898727D02*
X212446866Y-109599632D01*
X164730634Y-178535207D02*
X165891918Y-178957879D01*
X210689933Y-160502826D02*
X215293314Y-150630838D01*
X215293314Y-150630838D02*
X222851439Y-147879905D01*
X224075555Y-141549183D02*
X220999444Y-140114767D01*
X206762856Y-101000064D02*
X208197273Y-97923945D01*
X166126715Y-178848392D02*
X178706015Y-168293100D01*
X178706015Y-167755071D02*
X180157931Y-166303154D01*
X205773312Y-169217952D02*
X209662940Y-160876623D01*
X224833036Y-143630355D02*
X224075555Y-141549183D01*
X220999444Y-140114767D02*
X218391541Y-132949611D01*
X212446866Y-109599632D02*
X209370758Y-108165219D01*
X215185095Y-124139990D02*
X212577194Y-116974841D01*
X157396823Y-173150179D02*
X164730634Y-178535207D01*
X196676397Y-167672477D02*
X201543985Y-171756870D01*
X201543985Y-171756870D02*
X202120447Y-172025677D01*
X195307075Y-166303156D02*
X196676397Y-167672477D01*
X205505677Y-170793553D02*
X205978065Y-169780513D01*
X209662940Y-160876623D02*
X210689933Y-160502826D01*
X205978065Y-169780513D02*
X205773312Y-169217952D01*
X209370758Y-108165219D02*
X206762856Y-101000064D01*
X180157931Y-166303154D02*
X195307075Y-166303156D01*
X160414524Y-164713084D02*
X157366974Y-173086165D01*
X208197273Y-97923945D02*
X206632528Y-93624853D01*
%TO.N,P4*%
X233908734Y-118203093D02*
X231878997Y-118941857D01*
%TO.N,P10*%
X194747890Y-167653154D02*
X181379729Y-167653155D01*
X256324718Y-131913198D02*
X258932622Y-139078355D01*
X262364854Y-140678831D02*
X265187774Y-148434740D01*
X113315859Y-77941506D02*
X111253353Y-73518445D01*
X180352449Y-168673877D02*
X166399617Y-180381698D01*
X258932622Y-139078355D02*
X262364854Y-140678831D01*
X106887049Y-133945164D02*
X113150430Y-131024505D01*
X252009050Y-153603015D02*
X251399753Y-153824783D01*
X265187774Y-148434740D02*
X265183120Y-148444721D01*
X166399617Y-180381698D02*
X166161618Y-180492680D01*
X265183120Y-148444721D02*
X252009050Y-153603015D01*
X209289256Y-180018221D02*
X195763480Y-168668745D01*
X102793321Y-145192598D02*
X106887049Y-133945164D01*
X111253353Y-73518445D02*
X114707136Y-64029239D01*
X114707136Y-64029239D02*
X119130198Y-61966740D01*
X242127128Y-157199742D02*
X241813802Y-157871673D01*
X211187900Y-180359495D02*
X210532603Y-180598004D01*
X210532603Y-180598004D02*
X209481306Y-180107774D01*
X133108275Y-157116110D02*
X132782025Y-156997361D01*
X134319447Y-157744018D02*
X134214382Y-157518699D01*
X209377472Y-180059360D02*
X209289256Y-180018221D01*
X134214382Y-157518699D02*
X133108275Y-157116110D01*
X113642348Y-129672964D02*
X103094299Y-125833789D01*
X241813802Y-157871673D02*
X211187900Y-180359495D01*
X99530818Y-105266741D02*
X102877201Y-96072638D01*
X107501516Y-93916285D02*
X105439006Y-89493222D01*
X209481306Y-180107774D02*
X209481302Y-180107777D01*
X166161618Y-180492680D02*
X164087351Y-179737712D01*
X114889535Y-149991576D02*
X115071220Y-150062717D01*
X101687173Y-109891059D02*
X99530818Y-105266741D01*
X195763480Y-168668745D02*
X194747890Y-167653154D01*
X134415804Y-157950653D02*
X134319447Y-157744018D01*
X251399753Y-153824783D02*
X242127128Y-157199742D01*
X164087351Y-179737712D02*
X134415804Y-157950653D01*
X102877201Y-96072638D02*
X107501516Y-93916285D01*
X115071220Y-150062717D02*
X102829101Y-145269327D01*
X209481302Y-180107777D02*
X209377472Y-180059360D01*
X113150430Y-131024505D02*
X113642348Y-129672964D01*
X102829101Y-145269327D02*
X102793321Y-145192598D01*
X180589913Y-168021452D02*
X180352449Y-168673877D01*
X108892794Y-80004018D02*
X113315859Y-77941506D01*
X181379729Y-167653155D02*
X180589913Y-168021452D01*
X103094299Y-125833789D02*
X99045069Y-117150187D01*
X132782025Y-156997361D02*
X114889535Y-149991576D01*
X99045069Y-117150187D02*
X101687173Y-109891059D01*
X105439006Y-89493222D02*
X108892794Y-80004018D01*
%TO.N,pinky_num*%
X108315855Y-71439099D02*
X103418237Y-73221688D01*
X110606639Y-66526497D02*
X108315855Y-71439099D01*
%TO.N,P7*%
X240385788Y-149293626D02*
X242976554Y-156411698D01*
X179833443Y-168521943D02*
X166155750Y-179998896D01*
X181193332Y-167203155D02*
X181117638Y-167278849D01*
X180115872Y-167745982D02*
X179833443Y-168521943D01*
X241798065Y-156840632D02*
X241454634Y-157577118D01*
X194934286Y-167203155D02*
X181193332Y-167203155D01*
X210553849Y-180111389D02*
X209533124Y-179635419D01*
X196067789Y-168336658D02*
X194934286Y-167203155D01*
X120966387Y-151887695D02*
X120998609Y-151900313D01*
X132298907Y-156324932D02*
X120966387Y-151887695D01*
X181117638Y-167278849D02*
X180115872Y-167745982D01*
X166140369Y-180006068D02*
X164301779Y-179336879D01*
X242132273Y-145548276D02*
X240385788Y-149293626D01*
X120998609Y-151900313D02*
X125764902Y-138805031D01*
X134533500Y-157138258D02*
X132298907Y-156324932D01*
X242976554Y-156411698D02*
X241798065Y-156840632D01*
X134774973Y-157656098D02*
X134533500Y-157138258D01*
X210973474Y-179958660D02*
X210553849Y-180111389D01*
X240265295Y-140418793D02*
X242132273Y-145548276D01*
X241454634Y-157577118D02*
X210973474Y-179958660D01*
X125764902Y-138805031D02*
X128245241Y-137648426D01*
X128245241Y-137648426D02*
X129701764Y-138178558D01*
X209533124Y-179635419D02*
X196067789Y-168336658D01*
X166155750Y-179998896D02*
X166140369Y-180006068D01*
X164301779Y-179336879D02*
X134774973Y-157656098D01*
%TO.N,P1*%
X222280049Y-86253543D02*
X220250311Y-86992307D01*
%TD*%
M02*
