M48
; DRILL file KiCad 10.0.5 date 2026-09-22T23:09:13
; FORMAT={-:-/ absolute / inch / decimal}
; #@! TF.CreationDate,2026-09-22T23:09:13-07:00
; #@! TF.GenerationSoftware,Kicad,Pcbnew,10.0.5
; #@! TF.FileFunction,Plated,1,2,PTH
FMAT,2
INCH
; #@! TA.AperFunction,Plated,PTH,ViaDrill
T1C0.0157
; #@! TA.AperFunction,Plated,PTH,ComponentDrill
T2C0.0390
; #@! TA.AperFunction,Plated,PTH,ComponentDrill
T3C0.0394
; #@! TA.AperFunction,Plated,PTH,ComponentDrill
T4C0.0430
%
G90
G05
T1
X3.0585Y-2.5833
X3.6875Y-2.8479
X4.3923Y-3.0065
X5.8949Y-5.2029
X5.9961Y-5.014
X8.0447Y-3.8902
X8.0668Y-6.6904
X8.6087Y-3.6441
X9.2121Y-3.391
T2
X2.437Y-4.4245
X2.6659Y-3.7956
X2.7189Y-4.5272
X2.8948Y-3.1667
X2.9478Y-3.8982
X3.1029Y-4.6669
X3.1238Y-2.5378
X3.1767Y-3.2693
X3.3319Y-4.038
X3.3849Y-4.7695
X3.4057Y-2.6404
X3.5608Y-3.4091
X3.6073Y-5.3532
X3.6138Y-4.1406
X3.7897Y-2.7801
X3.8362Y-4.7243
X3.8427Y-3.5117
X3.8892Y-5.4559
X4.0651Y-4.0954
X4.0716Y-2.8827
X4.1181Y-4.8269
X4.294Y-3.4665
X4.3069Y-5.5031
X4.347Y-4.198
X4.5229Y-2.8375
X4.5358Y-4.8742
X4.5759Y-3.5691
X4.5888Y-5.6057
X4.7647Y-4.2453
X4.8048Y-2.9401
X4.8177Y-4.9768
X4.9391Y-5.838
X4.9936Y-3.6164
X5.0466Y-4.3479
X5.168Y-5.2091
X5.221Y-5.9406
X5.2225Y-2.9874
X5.2755Y-3.719
X5.397Y-4.5801
X5.4499Y-5.3117
X5.5044Y-3.09
X5.591Y-6.2153
X5.6259Y-3.9512
X5.6789Y-4.6828
X5.8003Y-5.5439
X5.8367Y-6.3874
X5.8548Y-3.3223
X5.9078Y-4.0538
X6.0292Y-4.915
X6.0822Y-5.6465
X6.1367Y-3.4249
X6.2581Y-4.2861
X6.3111Y-5.0176
X6.487Y-3.6572
X6.54Y-4.3887
X6.5765Y-6.8285
X6.7689Y-3.7598
X6.8063Y-6.6357
X8.0016Y-6.6357
X8.039Y-3.7598
X8.2315Y-6.8285
X8.2679Y-4.3887
X8.3209Y-3.6572
X8.4968Y-5.0176
X8.5498Y-4.2861
X8.6713Y-3.4249
X8.7257Y-5.6465
X8.7787Y-4.915
X8.9002Y-4.0538
X8.9532Y-3.3223
X8.9713Y-6.3874
X9.0077Y-5.5439
X9.1291Y-4.6828
X9.1821Y-3.9512
X9.217Y-6.2153
X9.3035Y-3.09
X9.358Y-5.3117
X9.411Y-4.5801
X9.5324Y-3.719
X9.5854Y-2.9874
X9.5869Y-5.9406
X9.6399Y-5.2091
X9.7614Y-4.3479
X9.8144Y-3.6164
X9.8688Y-5.838
X9.9903Y-4.9768
X10.0031Y-2.9401
X10.0433Y-4.2453
X10.2192Y-5.6057
X10.232Y-3.5691
X10.2722Y-4.8742
X10.285Y-2.8375
X10.4609Y-4.198
X10.5011Y-5.5031
X10.5139Y-3.4665
X10.6899Y-4.8269
X10.7364Y-2.8827
X10.7429Y-4.0954
X10.9188Y-5.4559
X10.9653Y-3.5117
X10.9718Y-4.7243
X11.0183Y-2.7801
X11.1942Y-4.1406
X11.2007Y-5.3532
X11.2472Y-3.4091
X11.4023Y-2.6404
X11.4231Y-4.7695
X11.4761Y-4.038
X11.6312Y-3.2693
X11.6842Y-2.5378
X11.705Y-4.6669
X11.8601Y-3.8982
X11.9131Y-3.1667
X12.089Y-4.5272
X12.142Y-3.7956
X12.3709Y-4.4245
T3
X7.2536Y-5.4664
X7.3536Y-5.4664
X7.4536Y-5.4664
X7.5536Y-5.4664
T4
X7.104Y-4.5313
X7.104Y-4.6313
X7.104Y-5.0313
X7.104Y-4.9313
X7.104Y-4.2313
X7.104Y-4.3313
X7.104Y-5.2313
X7.104Y-5.3313
X7.104Y-4.4313
X7.104Y-5.1313
X7.104Y-4.7313
X7.104Y-4.8313
X7.704Y-4.7313
X7.704Y-4.8313
X7.704Y-4.4313
X7.704Y-5.1313
X7.704Y-4.2313
X7.704Y-4.3313
X7.704Y-5.2313
X7.704Y-5.3313
X7.704Y-4.6313
X7.704Y-4.5313
X7.704Y-4.9313
X7.704Y-5.0313
M30
